<?xml version="1.0" encoding="iso-8859-1"?>
<!-- Uploaded to: SVG Repo, www.svgrepo.com, Generator: SVG Repo Mixer Tools -->
<svg version="1.1" id="Layer_1" xmlns="http://www.w3.org/2000/svg" xmlns:xlink="http://www.w3.org/1999/xlink" 
	 viewBox="0 0 475 475" xml:space="preserve">
<g>
	<g id="XMLID_39_">
		<g>
			<polygon style="fill:#E7ECED;" points="182.5,355 182.5,380 92.5,380 182.5,280 182.5,320 			"/>
			<polygon style="fill:#E7ECED;" points="292.5,280 382.5,380 292.5,380 292.5,355 292.5,320 			"/>
			<path style="fill:#737779;" d="M237.5,115c16.602,0,30,13.398,30,30s-13.398,30-30,30s-30-13.398-30-30S220.898,115,237.5,115z"
				/>
			<path style="fill:#AFB6BB;" d="M332.5,125v50h-29.697c-0.4,1.201-0.898,2.402-1.406,3.496l21.006,21.006l-35.4,35.4
				l-21.006-20.996c-1.094,0.488-2.295,0.996-3.496,1.387V245h-50v-29.707c-1.201-0.391-2.402-0.898-3.501-1.387l-21.001,20.898
				l-35.4-35.303l21.001-21.006c-0.498-1.094-1.001-2.295-1.396-3.496H142.5v-50h29.702c0.396-1.201,0.898-2.402,1.396-3.496
				L152.7,100.498l35.298-35.4l21.001,20.996c1.099-0.488,2.3-0.996,3.501-1.387V55h50v29.707c1.201,0.391,2.402,0.898,3.496,1.387
				l21.006-20.996l35.4,35.4l-21.006,21.006c0.508,1.094,1.006,2.295,1.406,3.496H332.5z M267.5,145c0-16.602-13.398-30-30-30
				s-30,13.398-30,30s13.398,30,30,30S267.5,161.602,267.5,145z"/>
			<path style="fill:#FFD248;" d="M377.5,150c0,57.793-35,107.402-85,128.799V280v40h-110v-40v-1.201
				c-50-21.396-85-71.006-85-128.799c0-77.305,62.7-140,140-140C314.805,10,377.5,72.695,377.5,150z M332.5,175v-50h-29.697
				c-0.4-1.201-0.898-2.402-1.406-3.496l21.006-21.006l-35.4-35.4l-21.006,20.996c-1.094-0.488-2.295-0.996-3.496-1.387V55h-50
				v29.707c-1.201,0.391-2.402,0.898-3.501,1.387l-21.001-20.996l-35.298,35.4l20.898,21.006c-0.498,1.094-1.001,2.295-1.396,3.496
				H142.5v50h29.702c0.396,1.201,0.898,2.402,1.396,3.496l-21.001,21.006l35.4,35.303l21.001-20.898
				c1.099,0.488,2.3,0.996,3.501,1.387V245h50v-29.707c1.201-0.391,2.402-0.898,3.496-1.387l21.006,20.996l35.4-35.4l-21.006-21.006
				c0.508-1.094,1.006-2.295,1.406-3.496L332.5,175L332.5,175z"/>
			<polygon style="fill:#AFB6BB;" points="292.5,380 292.5,395 272.5,395 202.5,395 182.5,395 182.5,380 182.5,355 292.5,355 			"/>
			<rect x="182.5" y="320" style="fill:#E7ECED;" width="110" height="35"/>
			<rect x="202.5" y="395" style="fill:#546A79;" width="70" height="50"/>
		</g>
		<g>
			<path style="fill:#231F20;" d="M195.052,241.893l7.448-7.411V245c0,5.523,4.477,10,10,10h50c5.523,0,10-4.477,10-10v-10.454
				l7.433,7.429c3.906,3.905,10.236,3.903,14.141-0.001l35.4-35.4c3.905-3.905,3.905-10.237,0-14.143L322.043,185H332.5
				c5.523,0,10-4.477,10-10v-50c0-5.522-4.477-10-10-10h-10.457l7.431-7.431c3.905-3.905,3.905-10.237,0-14.142l-35.4-35.4
				c-3.905-3.902-10.235-3.907-14.141-0.001l-7.433,7.429V55c0-5.522-4.477-10-10-10h-50c-5.523,0-10,4.478-10,10v10.456
				l-7.432-7.431c-1.876-1.875-4.419-2.928-7.07-2.928c-0.002,0-0.005,0-0.008,0c-2.654,0.002-5.199,1.06-7.073,2.939l-35.298,35.4
				c-3.889,3.899-3.892,10.209-0.008,14.113l7.411,7.449H142.5c-5.523,0-10,4.478-10,10v50c0,5.523,4.477,10,10,10h10.456
				l-7.43,7.432c-1.877,1.877-2.93,4.424-2.928,7.078s1.059,5.198,2.938,7.073l35.4,35.303
				C184.837,245.775,191.148,245.778,195.052,241.893z M166.749,199.491l13.922-13.925c2.949-2.949,3.757-7.419,2.029-11.215
				c-0.444-0.975-0.771-1.785-0.999-2.479c-1.351-4.101-5.181-6.872-9.499-6.872H152.5v-30h19.702c4.318,0,8.148-2.771,9.499-6.872
				c0.228-0.694,0.555-1.505,0.999-2.479c1.725-3.788,0.923-8.247-2.012-11.197l-13.874-13.945l21.195-21.257l13.919,13.917
				c2.925,2.925,7.351,3.748,11.132,2.065c0.748-0.332,1.712-0.748,2.532-1.015c4.119-1.34,6.908-5.179,6.908-9.51V65h30v19.707
				c0,4.331,2.789,8.17,6.908,9.51c0.828,0.27,1.777,0.681,2.512,1.008c3.782,1.688,8.215,0.871,11.146-2.059L287,79.238
				l21.26,21.26l-13.935,13.935c-2.969,2.969-3.767,7.475-2,11.282c0.403,0.868,0.746,1.715,0.99,2.447
				c1.361,4.084,5.183,6.838,9.487,6.838H322.5v30h-19.697c-4.304,0-8.126,2.754-9.487,6.838c-0.244,0.732-0.586,1.579-0.99,2.447
				c-1.768,3.808-0.969,8.313,2,11.282l13.935,13.935L287,220.762l-13.935-13.928c-2.93-2.929-7.361-3.747-11.146-2.059
				c-0.735,0.327-1.684,0.738-2.512,1.008c-4.119,1.34-6.908,5.179-6.908,9.51V235h-30v-19.707c0-4.331-2.789-8.17-6.908-9.51
				c-0.82-0.267-1.784-0.683-2.532-1.015c-3.773-1.68-8.189-0.863-11.115,2.05l-13.94,13.871L166.749,199.491z"/>
			<path style="fill:#231F20;" d="M237.5,185c22.056,0,40-17.944,40-40s-17.944-40-40-40s-40,17.944-40,40S215.444,185,237.5,185z
				 M237.5,125c11.028,0,20,8.972,20,20s-8.972,20-20,20s-20-8.972-20-20S226.472,125,237.5,125z"/>
			<path style="fill:#231F20;" d="M389.933,373.31L308.1,282.385c48.623-25.932,79.4-76.575,79.4-132.385c0-82.71-67.29-150-150-150
				s-150,67.29-150,150c0,55.81,30.778,106.453,79.4,132.385L85.067,373.31c-2.642,2.936-3.309,7.15-1.702,10.758
				C84.972,387.676,88.551,390,92.5,390h80v5c0,5.522,4.477,10,10,10h10v40c0,5.522,4.477,10,10,10h25v20h20v-20h25
				c5.523,0,10-4.478,10-10v-40h10c5.523,0,10-4.478,10-10v-5h80c3.949,0,7.528-2.324,9.135-5.932
				C393.242,380.461,392.575,376.246,389.933,373.31z M192.5,330h90v15h-90V330z M107.5,150c0-71.683,58.318-130,130-130
				s130,58.317,130,130c0,52.138-30.983,99.086-78.934,119.605c-3.68,1.574-6.066,5.191-6.066,9.193V310h-90v-31.201
				c0-4.002-2.386-7.619-6.066-9.193C138.483,249.086,107.5,202.138,107.5,150z M114.954,370l57.546-63.94V370H114.954z M262.5,435
				h-50v-30h50V435z M282.5,385h-90v-20h90V385z M302.5,370v-63.94L360.046,370H302.5z"/>
		</g>
	</g>
</g>
</svg>