<?xml version="1.0" encoding="UTF-8"?>
<!DOCTYPE svg PUBLIC "-//W3C//DTD SVG 1.1//EN" "http://www.w3.org/Graphics/SVG/1.1/DTD/svg11.dtd">
<svg xmlns="http://www.w3.org/2000/svg" version="1.1" width="860px" height="265px" style="shape-rendering:geometricPrecision; text-rendering:geometricPrecision; image-rendering:optimizeQuality; fill-rule:evenodd; clip-rule:evenodd" xmlns:xlink="http://www.w3.org/1999/xlink">
<g><path style="opacity:1" fill="#5fc814" d="M 123.5,20.5 C 125.737,24.5344 127.404,28.8677 128.5,33.5C 128.5,36.1667 128.5,38.8333 128.5,41.5C 124.167,41.5 119.833,41.5 115.5,41.5C 115.993,34.6204 117.326,27.9537 119.5,21.5C 120.959,21.5674 122.292,21.2341 123.5,20.5 Z"/></g>
<g><path style="opacity:0.63" fill="#60b332" d="M 123.5,20.5 C 122.292,21.2341 120.959,21.5674 119.5,21.5C 117.326,27.9537 115.993,34.6204 115.5,41.5C 119.833,41.5 124.167,41.5 128.5,41.5C 128.5,38.8333 128.5,36.1667 128.5,33.5C 130.843,36.3405 131.51,39.5072 130.5,43C 124.804,43.8299 119.137,43.6632 113.5,42.5C 113.167,41.8333 112.833,41.1667 112.5,40.5C 114.882,32.5869 116.882,24.5869 118.5,16.5C 121.546,16.1826 123.213,17.5159 123.5,20.5 Z"/></g>
<g><path style="opacity:1" fill="#05cefa" d="M 65.5,65.5 C 67.4714,66.8231 69.4714,68.1565 71.5,69.5C 73.0754,68.5435 74.742,67.8769 76.5,67.5C 75.7774,69.4289 76.7774,70.4289 79.5,70.5C 81.9944,70.378 82.661,69.378 81.5,67.5C 82.09,66.2011 83.09,65.3678 84.5,65C 89.5074,63.8024 94.3408,62.969 99,62.5C 99.4017,63.8721 99.9017,65.2054 100.5,66.5C 98.3661,66.9019 96.3661,66.9019 94.5,66.5C 93.4104,67.3914 93.4104,68.3914 94.5,69.5C 93.7573,70.1818 93.0906,70.8485 92.5,71.5C 86.5303,75.8233 80.197,79.6567 73.5,83C 72.3855,86.6152 70.0522,89.1152 66.5,90.5C 63.7617,96.3036 60.2617,101.637 56,106.5C 55.5026,109.146 55.3359,111.813 55.5,114.5C 52.6315,113.108 50.9648,114.108 50.5,117.5C 51.1092,126.528 51.7759,135.528 52.5,144.5C 51.4706,144.296 50.4706,144.796 49.5,146C 52.2297,149.351 53.8964,153.184 54.5,157.5C 53.675,158.386 52.675,158.719 51.5,158.5C 51.2276,150.114 50.3942,149.78 49,157.5C 45.4059,154.312 43.4059,150.312 43,145.5C 42.3158,137.13 42.6491,128.797 44,120.5C 45.7178,115.331 47.0511,109.997 48,104.5C 50.0643,100.039 52.3977,95.7057 55,91.5C 55.3228,85.7794 54.8228,80.1127 53.5,74.5C 53.7333,69.5777 55.5666,64.911 59,60.5C 60.7645,62.7044 62.9312,64.3711 65.5,65.5 Z"/></g>
<g><path style="opacity:1" fill="#23c9e6" d="M 154.5,71.5 C 159.74,71.0935 164.74,71.7602 169.5,73.5C 169.354,75.9424 170.187,76.6091 172,75.5C 174.074,79.9082 177.408,82.9082 182,84.5C 185.011,82.9196 187.844,81.2529 190.5,79.5C 190.5,78.5 190.5,77.5 190.5,76.5C 193.278,76.9783 195.278,75.9783 196.5,73.5C 193.693,72.121 191.026,70.4543 188.5,68.5C 187.353,68.8178 186.519,69.4844 186,70.5C 183.689,67.8445 181.523,68.0112 179.5,71C 177.167,71.6667 174.833,71.6667 172.5,71C 173.711,70.1072 173.711,69.2739 172.5,68.5C 171.228,69.046 169.894,69.3793 168.5,69.5C 166.076,68.262 163.742,66.762 161.5,65C 151.417,61.8684 141.084,59.5351 130.5,58C 120.749,57.2945 111.082,57.9612 101.5,60C 100.549,60.7175 100.383,61.5509 101,62.5C 103.627,63.9164 106.46,64.5831 109.5,64.5C 118.661,63.3036 127.661,63.3036 136.5,64.5C 126.792,64.2559 117.126,64.7559 107.5,66C 102.112,67.2836 97.112,69.1169 92.5,71.5C 93.0906,70.8485 93.7573,70.1818 94.5,69.5C 93.4104,68.3914 93.4104,67.3914 94.5,66.5C 96.3661,66.9019 98.3661,66.9019 100.5,66.5C 99.9017,65.2054 99.4017,63.8721 99,62.5C 94.3408,62.969 89.5074,63.8024 84.5,65C 83.09,65.3678 82.09,66.2011 81.5,67.5C 82.661,69.378 81.9944,70.378 79.5,70.5C 76.7774,70.4289 75.7774,69.4289 76.5,67.5C 99.5206,54.3961 123.854,51.5628 149.5,59C 157.382,61.3484 165.049,64.1817 172.5,67.5C 190.515,62.6042 208.515,62.4375 226.5,67C 227.925,68.7141 227.592,70.0475 225.5,71C 216.161,70.8679 207.161,72.5346 198.5,76C 192.514,78.8997 187.014,82.3997 182,86.5C 172.939,81.2643 163.772,76.2643 154.5,71.5 Z"/></g>
<g><path style="opacity:0.486" fill="#35c5d2" d="M 136.5,64.5 C 140.16,65.1926 143.827,66.026 147.5,67C 149.84,68.6413 152.173,70.1413 154.5,71.5C 113.786,58.6174 82.2863,70.2841 60,106.5C 58.1425,112.623 56.3092,118.623 54.5,124.5C 53.8476,123.551 53.5143,122.385 53.5,121C 54.0911,118.761 54.7578,116.594 55.5,114.5C 55.3359,111.813 55.5026,109.146 56,106.5C 60.2617,101.637 63.7617,96.3036 66.5,90.5C 70.0522,89.1152 72.3855,86.6152 73.5,83C 80.197,79.6567 86.5303,75.8233 92.5,71.5C 97.112,69.1169 102.112,67.2836 107.5,66C 117.126,64.7559 126.792,64.2559 136.5,64.5 Z"/></g>
<g><path style="opacity:0.753" fill="#60af44" d="M 115.5,70.5 C 124.835,69.8437 133.835,70.8437 142.5,73.5C 136.16,73.348 129.827,73.0147 123.5,72.5C 120.41,72.4783 117.743,71.8117 115.5,70.5 Z"/></g>
<g><path style="opacity:1" fill="#04cefa" d="M 154.5,71.5 C 152.173,70.1413 149.84,68.6413 147.5,67C 143.827,66.026 140.16,65.1926 136.5,64.5C 127.661,63.3036 118.661,63.3036 109.5,64.5C 106.46,64.5831 103.627,63.9164 101,62.5C 100.383,61.5509 100.549,60.7175 101.5,60C 111.082,57.9612 120.749,57.2945 130.5,58C 141.084,59.5351 151.417,61.8684 161.5,65C 163.742,66.762 166.076,68.262 168.5,69.5C 169.894,69.3793 171.228,69.046 172.5,68.5C 173.711,69.2739 173.711,70.1072 172.5,71C 174.833,71.6667 177.167,71.6667 179.5,71C 181.523,68.0112 183.689,67.8445 186,70.5C 186.519,69.4844 187.353,68.8178 188.5,68.5C 191.026,70.4543 193.693,72.121 196.5,73.5C 195.278,75.9783 193.278,76.9783 190.5,76.5C 190.5,77.5 190.5,78.5 190.5,79.5C 187.844,81.2529 185.011,82.9196 182,84.5C 177.408,82.9082 174.074,79.9082 172,75.5C 170.187,76.6091 169.354,75.9424 169.5,73.5C 164.74,71.7602 159.74,71.0935 154.5,71.5 Z"/></g>
<g><path style="opacity:1" fill="#5ec90f" d="M 115.5,70.5 C 117.743,71.8117 120.41,72.4783 123.5,72.5C 129.827,73.0147 136.16,73.348 142.5,73.5C 152.257,76.2084 160.59,81.2084 167.5,88.5C 167.147,92.6498 168.98,95.3165 173,96.5C 175.151,101.469 177.818,106.136 181,110.5C 181.554,116.188 181.387,121.855 180.5,127.5C 180.167,127.5 179.833,127.5 179.5,127.5C 175.845,127.528 173.178,125.861 171.5,122.5C 167.631,116.759 164.298,110.759 161.5,104.5C 160.28,103.289 159.113,103.289 158,104.5C 154.727,103.744 151.727,102.41 149,100.5C 148.612,102.076 149.112,103.409 150.5,104.5C 152.444,105.189 154.444,105.689 156.5,106C 154.519,106.605 154.185,107.605 155.5,109C 153.256,110.888 153.256,112.388 155.5,113.5C 152.059,113.699 148.726,113.199 145.5,112C 147.327,106.502 145.494,102.668 140,100.5C 138.829,101.893 137.329,102.727 135.5,103C 136.821,104.545 136.488,105.711 134.5,106.5C 132.38,105.597 132.046,104.263 133.5,102.5C 133.192,101.692 132.692,101.025 132,100.5C 130.644,101.38 129.144,101.714 127.5,101.5C 127.5,100.5 127.5,99.5 127.5,98.5C 126.448,98.6495 125.448,98.4828 124.5,98C 124.959,96.0573 123.959,94.724 121.5,94C 116.988,94.1271 112.655,93.9605 108.5,93.5C 113.405,92.1635 118.405,90.8302 123.5,89.5C 123.5,89.8333 123.5,90.1667 123.5,90.5C 121.621,90.3932 121.288,90.8932 122.5,92C 124.868,92.8564 127.202,93.6897 129.5,94.5C 131.288,95.6225 133.288,95.7891 135.5,95C 135.603,90.4355 133.436,87.6022 129,86.5C 116.1,87.1971 103.267,88.1971 90.5,89.5C 90.5,90.5 90.5,91.5 90.5,92.5C 88.8333,92.5 87.1667,92.5 85.5,92.5C 85.3433,91.1266 85.51,89.7932 86,88.5C 88.4725,86.7015 90.1392,84.3682 91,81.5C 95.1038,79.6814 99.2705,77.8481 103.5,76C 102.944,75.6174 102.611,75.1174 102.5,74.5C 106.704,73.0279 111.037,71.6945 115.5,70.5 Z M 129.5,94.5 C 129.5,93.1667 129.5,91.8333 129.5,90.5C 134.665,91.3891 134.665,92.7224 129.5,94.5 Z M 158.5,107.5 C 161.275,107.834 161.941,109.167 160.5,111.5C 158.889,110.68 158.222,109.346 158.5,107.5 Z"/></g>
<g><path style="opacity:0.211" fill="#5baf1e" d="M 102.5,74.5 C 102.611,75.1174 102.944,75.6174 103.5,76C 99.2705,77.8481 95.1038,79.6814 91,81.5C 90.1392,84.3682 88.4725,86.7015 86,88.5C 85.51,89.7932 85.3433,91.1266 85.5,92.5C 87.1667,92.5 88.8333,92.5 90.5,92.5C 90.5,91.5 90.5,90.5 90.5,89.5C 103.267,88.1971 116.1,87.1971 129,86.5C 133.436,87.6022 135.603,90.4355 135.5,95C 133.288,95.7891 131.288,95.6225 129.5,94.5C 127.202,93.6897 124.868,92.8564 122.5,92C 121.288,90.8932 121.621,90.3932 123.5,90.5C 126.167,90.1667 126.167,89.8333 123.5,89.5C 118.405,90.8302 113.405,92.1635 108.5,93.5C 106.473,93.3379 104.473,93.5045 102.5,94C 99.457,95.1185 96.7903,96.7852 94.5,99C 92.1341,99.4396 89.8008,99.9396 87.5,100.5C 89.2214,98.3057 91.5547,97.139 94.5,97C 93.7476,96.3292 93.4142,95.4959 93.5,94.5C 95.1002,95.512 96.4335,95.012 97.5,93C 96.0715,92.4209 94.7382,92.5876 93.5,93.5C 92.2652,93.7214 91.2652,94.3881 90.5,95.5C 88.2706,94.4229 85.9372,93.7563 83.5,93.5C 83.5172,91.4352 83.8505,89.4352 84.5,87.5C 88.2966,80.2552 94.2966,75.9218 102.5,74.5 Z M 129.5,94.5 C 134.665,92.7224 134.665,91.3891 129.5,90.5C 129.5,91.8333 129.5,93.1667 129.5,94.5 Z M 93.5,94.5 C 93.5,94.1667 93.5,93.8333 93.5,93.5C 94.7382,92.5876 96.0715,92.4209 97.5,93C 96.4335,95.012 95.1002,95.512 93.5,94.5 Z"/></g>
<g><path style="opacity:1" fill="#5dcb0c" d="M 108.5,93.5 C 112.655,93.9605 116.988,94.1271 121.5,94C 123.959,94.724 124.959,96.0573 124.5,98C 125.448,98.4828 126.448,98.6495 127.5,98.5C 127.5,99.5 127.5,100.5 127.5,101.5C 129.144,101.714 130.644,101.38 132,100.5C 132.692,101.025 133.192,101.692 133.5,102.5C 132.046,104.263 132.38,105.597 134.5,106.5C 136.488,105.711 136.821,104.545 135.5,103C 137.329,102.727 138.829,101.893 140,100.5C 145.494,102.668 147.327,106.502 145.5,112C 148.726,113.199 152.059,113.699 155.5,113.5C 162.56,115.379 167.727,119.713 171,126.5C 171.499,130.152 171.665,133.818 171.5,137.5C 159.035,142.427 146.368,142.76 133.5,138.5C 130.153,138.217 127.487,136.717 125.5,134C 124.207,133.51 122.873,133.343 121.5,133.5C 120.06,131.051 118.06,129.385 115.5,128.5C 115.567,127.041 115.234,125.708 114.5,124.5C 112.035,122.163 109.035,120.663 105.5,120C 98.286,117.899 90.9527,117.232 83.5,118C 81.5,119 79.5,120 77.5,121C 75.1549,123.677 72.4883,126.01 69.5,128C 67.3787,130.198 65.712,132.698 64.5,135.5C 63.1585,130.111 63.3252,124.778 65,119.5C 65.8333,118.5 66.6667,117.5 67.5,116.5C 68.2575,117.811 69.2575,118.311 70.5,118C 73.0416,113.751 76.0416,109.917 79.5,106.5C 79.4142,105.504 79.7476,104.671 80.5,104C 83.4042,103.867 85.7376,102.7 87.5,100.5C 89.8008,99.9396 92.1341,99.4396 94.5,99C 96.7903,96.7852 99.457,95.1185 102.5,94C 104.473,93.5045 106.473,93.3379 108.5,93.5 Z"/></g>
<g><path style="opacity:1" fill="#3a621d" d="M 81.5,91.5 C 81.4606,92.5832 81.1272,93.5832 80.5,94.5C 81.5,95.1667 82.5,95.8333 83.5,96.5C 82.8019,98.0369 82.4685,99.3702 82.5,100.5C 81.8333,100.5 81.5,100.833 81.5,101.5C 80.1529,100.829 78.9862,100.829 78,101.5C 77.5172,100.552 77.3505,99.552 77.5,98.5C 75.4352,98.5172 73.4352,98.8505 71.5,99.5C 74.5203,96.4838 77.8536,93.8171 81.5,91.5 Z"/></g>
<g><path style="opacity:0.954" fill="#fbfdfb" d="M 458.5,163.5 C 459.117,163.389 459.617,163.056 460,162.5C 460.419,163.672 461.085,164.672 462,165.5C 462.813,163.564 463.313,161.564 463.5,159.5C 464.978,159.762 466.311,159.429 467.5,158.5C 466.808,156.665 467.142,154.832 468.5,153C 467.7,148.92 467.2,144.753 467,140.5C 466.617,139.944 466.117,139.611 465.5,139.5C 464.18,130.667 464.18,121.833 465.5,113C 463.541,112.069 461.541,111.236 459.5,110.5C 458.52,107.914 458.187,105.247 458.5,102.5C 465.167,102.5 471.833,102.5 478.5,102.5C 478.5,121.167 478.5,139.833 478.5,158.5C 483.994,158.93 485.994,161.93 484.5,167.5C 475.833,167.5 467.167,167.5 458.5,167.5C 458.5,166.167 458.5,164.833 458.5,163.5 Z"/></g>
<g><path style="opacity:0.838" fill="#fbfdfb" d="M 601.5,102.5 C 608.167,102.5 614.833,102.5 621.5,102.5C 621.616,121.032 621.282,139.532 620.5,158C 626.832,158.17 629.165,161.337 627.5,167.5C 618.833,167.5 610.167,167.5 601.5,167.5C 600.006,161.93 602.006,158.93 607.5,158.5C 607.667,143.163 607.5,127.83 607,112.5C 605.333,111.833 603.667,111.167 602,110.5C 601.503,107.854 601.336,105.187 601.5,102.5 Z"/></g>
<g><path style="opacity:0.955" fill="#f9fbf9" d="M 749.5,102.5 C 757.447,101.454 761.114,104.788 760.5,112.5C 757.978,117.321 753.978,118.821 748.5,117C 743.057,111.809 743.391,106.976 749.5,102.5 Z"/></g>
<g><path style="opacity:0.992" fill="#54971e" d="M 84.5,87.5 C 83.8505,89.4352 83.5172,91.4352 83.5,93.5C 85.9372,93.7563 88.2706,94.4229 90.5,95.5C 91.2652,94.3881 92.2652,93.7214 93.5,93.5C 93.5,93.8333 93.5,94.1667 93.5,94.5C 93.4142,95.4959 93.7476,96.3292 94.5,97C 91.5547,97.139 89.2214,98.3057 87.5,100.5C 85.7376,102.7 83.4042,103.867 80.5,104C 79.7476,104.671 79.4142,105.504 79.5,106.5C 77.5833,107.746 75.75,108.413 74,108.5C 73.7978,106.744 73.2978,105.078 72.5,103.5C 72.1667,103.667 71.8333,103.833 71.5,104C 68.0254,108.511 65.3587,113.344 63.5,118.5C 64.2785,111.287 66.9452,104.954 71.5,99.5C 73.4352,98.8505 75.4352,98.5172 77.5,98.5C 77.3505,99.552 77.5172,100.552 78,101.5C 78.9862,100.829 80.1529,100.829 81.5,101.5C 82.1667,101.5 82.5,101.167 82.5,100.5C 82.4685,99.3702 82.8019,98.0369 83.5,96.5C 82.5,95.8333 81.5,95.1667 80.5,94.5C 81.1272,93.5832 81.4606,92.5832 81.5,91.5C 81.7376,89.5956 82.7376,88.2623 84.5,87.5 Z"/></g>
<g><path style="opacity:0.925" fill="#fbfcfa" d="M 548.5,104.5 C 560.505,104.333 572.505,104.5 584.5,105C 595.451,107.386 600.784,114.219 600.5,125.5C 600.63,136.542 595.297,143.375 584.5,146C 579.511,146.499 574.511,146.666 569.5,146.5C 569.5,150.5 569.5,154.5 569.5,158.5C 574.994,158.93 576.994,161.93 575.5,167.5C 566.5,167.5 557.5,167.5 548.5,167.5C 547.006,161.93 549.006,158.93 554.5,158.5C 554.176,143.921 554.51,129.421 555.5,115C 553.661,113.868 551.661,113.035 549.5,112.5C 548.52,109.914 548.187,107.247 548.5,104.5 Z M 569.5,114.5 C 574.445,114.237 579.112,115.237 583.5,117.5C 587.752,123.308 587.418,128.808 582.5,134C 578.3,135.367 573.967,135.867 569.5,135.5C 569.408,128.29 569.408,121.29 569.5,114.5 Z"/></g>
<g><path style="opacity:0.999" fill="#fafcfa" d="M 267.5,138.5 C 264.878,134.012 264.878,129.512 267.5,125C 265.187,120.621 262.687,116.454 260,112.5C 258.75,113.573 257.416,113.573 256,112.5C 254.699,112.639 253.866,113.305 253.5,114.5C 250.833,114.5 248.167,114.5 245.5,114.5C 245.5,119.167 245.5,123.833 245.5,128.5C 244.761,128.369 244.094,128.536 243.5,129C 243.888,130.525 243.888,132.192 243.5,134C 244.328,134.915 245.328,135.581 246.5,136C 245.12,137.324 244.786,138.657 245.5,140C 245,140.5 244.5,141 244,141.5C 243.803,146.086 243.303,150.586 242.5,155C 245.167,156.333 245.167,157.667 242.5,159C 244.342,160.911 246.009,162.911 247.5,165C 245.167,165.333 242.833,165.667 240.5,166C 239.944,166.383 239.611,166.883 239.5,167.5C 234.456,167.827 229.456,167.494 224.5,166.5C 224.105,161.334 226.439,158.667 231.5,158.5C 231.667,143.83 231.5,129.163 231,114.5C 224.729,113.626 222.896,110.293 225.5,104.5C 237.171,104.333 248.838,104.5 260.5,105C 273.028,107.873 278.195,115.707 276,128.5C 274.769,133.228 271.936,136.561 267.5,138.5 Z M 253.5,114.5 C 261.201,116.237 264.034,120.904 262,128.5C 257.54,133.163 252.04,135.163 245.5,134.5C 245.5,132.5 245.5,130.5 245.5,128.5C 245.5,123.833 245.5,119.167 245.5,114.5C 248.167,114.5 250.833,114.5 253.5,114.5 Z"/></g>
<g><path style="opacity:0.016" fill="#5fb237" d="M 167.5,88.5 C 177.67,97.5095 183.004,108.843 183.5,122.5C 183.028,124.531 182.028,126.198 180.5,127.5C 181.387,121.855 181.554,116.188 181,110.5C 177.818,106.136 175.151,101.469 173,96.5C 168.98,95.3165 167.147,92.6498 167.5,88.5 Z"/></g>
<g><path style="opacity:0.408" fill="#53b225" d="M 179.5,127.5 C 178.22,128.931 176.553,129.598 174.5,129.5C 174.371,131.216 174.038,132.883 173.5,134.5C 173.5,134.833 173.5,135.167 173.5,135.5C 173.5,136.167 173.5,136.833 173.5,137.5C 172.833,137.5 172.167,137.5 171.5,137.5C 171.665,133.818 171.499,130.152 171,126.5C 167.727,119.713 162.56,115.379 155.5,113.5C 153.256,112.388 153.256,110.888 155.5,109C 154.185,107.605 154.519,106.605 156.5,106C 154.444,105.689 152.444,105.189 150.5,104.5C 149.112,103.409 148.612,102.076 149,100.5C 151.727,102.41 154.727,103.744 158,104.5C 159.113,103.289 160.28,103.289 161.5,104.5C 164.298,110.759 167.631,116.759 171.5,122.5C 173.178,125.861 175.845,127.528 179.5,127.5 Z M 158.5,107.5 C 158.222,109.346 158.889,110.68 160.5,111.5C 161.941,109.167 161.275,107.834 158.5,107.5 Z"/></g>
<g><path style="opacity:1" fill="#3ab33f" d="M 131.5,114.5 C 140.868,114.006 143.535,117.839 139.5,126C 133.489,129.183 129.823,127.516 128.5,121C 128.84,118.489 129.84,116.322 131.5,114.5 Z"/></g>
<g><path style="opacity:0.965" fill="#f9fbfa" d="M 366.5,121.5 C 374.165,122.632 381.832,122.799 389.5,122C 390.602,124.401 390.769,126.901 390,129.5C 388.795,130.071 387.628,130.738 386.5,131.5C 388.667,136.5 390.833,141.5 393,146.5C 395.256,141.91 397.423,137.244 399.5,132.5C 394.373,130.149 393.206,126.482 396,121.5C 403.791,122.449 411.458,122.782 419,122.5C 419.667,124.833 419.667,127.167 419,129.5C 416.667,130.5 414.333,131.5 412,132.5C 405.654,149.036 398.821,165.37 391.5,181.5C 387.217,182.492 382.884,182.826 378.5,182.5C 380.872,176.084 383.539,169.75 386.5,163.5C 381.708,153.291 377.208,142.957 373,132.5C 370.667,131.5 368.333,130.5 366,129.5C 365.278,126.739 365.445,124.073 366.5,121.5 Z"/></g>
<g><path style="opacity:0.937" fill="#f9fcf9" d="M 465.5,139.5 C 466.117,139.611 466.617,139.944 467,140.5C 467.2,144.753 467.7,148.92 468.5,153C 467.142,154.832 466.808,156.665 467.5,158.5C 466.311,159.429 464.978,159.762 463.5,159.5C 463.313,161.564 462.813,163.564 462,165.5C 461.085,164.672 460.419,163.672 460,162.5C 459.617,163.056 459.117,163.389 458.5,163.5C 458.631,162.761 458.464,162.094 458,161.5C 455.831,165.01 452.664,167.177 448.5,168C 430.116,171.284 420.116,163.618 418.5,145C 418.724,129.635 426.391,121.802 441.5,121.5C 446.61,121.464 451.61,122.131 456.5,123.5C 456.805,128.762 456.471,133.928 455.5,139C 453.167,139.667 450.833,139.667 448.5,139C 447.518,136.262 446.852,133.428 446.5,130.5C 440.076,128.963 435.576,131.296 433,137.5C 431.02,144.602 432.02,151.269 436,157.5C 438.022,158.786 440.189,159.786 442.5,160.5C 445.886,158.741 449.219,157.074 452.5,155.5C 455.111,156.337 457.111,158.004 458.5,160.5C 460.667,159.208 463,158.375 465.5,158C 465.202,151.936 465.202,145.769 465.5,139.5 Z"/></g>
<g><path style="opacity:0.925" fill="#fafcfa" d="M 639.5,121.5 C 645.176,121.334 650.843,121.501 656.5,122C 663.338,124.825 666.838,129.992 667,137.5C 667.5,144.826 667.666,152.159 667.5,159.5C 669.199,159.34 670.866,159.506 672.5,160C 672.108,162.354 672.108,164.854 672.5,167.5C 667.489,167.666 662.489,167.499 657.5,167C 656.667,166.167 655.833,165.333 655,164.5C 649.037,168.298 642.537,169.465 635.5,168C 628.953,165.399 626.453,160.565 628,153.5C 631.277,146.602 636.777,142.768 644.5,142C 647.817,141.502 651.15,141.335 654.5,141.5C 654.902,135.949 652.569,132.282 647.5,130.5C 643.921,132.125 640.255,133.458 636.5,134.5C 633.181,134.023 630.847,132.19 629.5,129C 629.667,128.5 629.833,128 630,127.5C 633.147,125.35 636.313,123.35 639.5,121.5 Z M 651.5,149.5 C 652.5,149.5 653.5,149.5 654.5,149.5C 654.08,151.674 654.08,153.674 654.5,155.5C 650.532,159.785 646.032,160.785 641,158.5C 640.333,156.833 640.333,155.167 641,153.5C 644.321,151.385 647.821,150.051 651.5,149.5 Z"/></g>
<g><path style="opacity:0.915" fill="#f7faf7" d="M 743.5,159.5 C 743.938,159.435 744.272,159.601 744.5,160C 742.383,161.769 740.383,163.602 738.5,165.5C 732.942,168.386 726.942,169.219 720.5,168C 718.376,166.878 716.543,165.378 715,163.5C 713.571,152.912 713.071,142.245 713.5,131.5C 707.095,132.594 704.762,129.927 706.5,123.5C 708.92,123.708 711.253,123.374 713.5,122.5C 715.283,118.703 716.45,114.703 717,110.5C 719.607,109.73 722.273,109.063 725,108.5C 726.28,108.613 727.113,109.28 727.5,110.5C 726.394,114.777 726.228,119.11 727,123.5C 730.73,122.54 734.563,122.207 738.5,122.5C 738.5,125.5 738.5,128.5 738.5,131.5C 734.5,131.5 730.5,131.5 726.5,131.5C 726.057,140.608 726.557,149.608 728,158.5C 730.692,158.379 733.525,158.712 736.5,159.5C 737.905,162.852 739.239,163.018 740.5,160C 741.448,159.517 742.448,159.351 743.5,159.5 Z"/></g>
<g><path style="opacity:0.931" fill="#fafcfa" d="M 738.5,165.5 C 740.383,163.602 742.383,161.769 744.5,160C 744.272,159.601 743.938,159.435 743.5,159.5C 745.117,156.49 745.95,153.157 746,149.5C 746.152,143.426 746.319,137.426 746.5,131.5C 739.501,131.116 737.668,127.783 741,121.5C 747.064,121.753 753.064,122.086 759,122.5C 759.167,134.514 759.667,146.514 760.5,158.5C 762.071,159.309 763.738,159.643 765.5,159.5C 765.5,162.167 765.5,164.833 765.5,167.5C 756.235,168.095 747.235,167.428 738.5,165.5 Z"/></g>
<g><path style="opacity:0.97" fill="#fafbfa" d="M 839.5,150.5 C 836.536,151.893 833.703,154.226 831,157.5C 829.739,158.658 828.573,158.658 827.5,157.5C 827.822,155.278 827.155,153.444 825.5,152C 819.957,150.601 814.79,148.434 810,145.5C 806.676,140.676 805.676,135.343 807,129.5C 808.99,125.51 812.157,123.01 816.5,122C 823.523,121.377 830.523,121.543 837.5,122.5C 837.5,127.167 837.5,131.833 837.5,136.5C 834.813,136.664 832.146,136.497 829.5,136C 828.594,134.301 828.261,132.467 828.5,130.5C 827.07,130.579 825.736,130.246 824.5,129.5C 819.987,129.904 818.487,132.237 820,136.5C 825.11,138.74 830.277,140.906 835.5,143C 837.495,145.157 838.828,147.657 839.5,150.5 Z"/></g>
<g><path style="opacity:1" fill="#3aaa2e" d="M 114.5,124.5 C 115.234,125.708 115.567,127.041 115.5,128.5C 114.167,128.167 112.833,127.833 111.5,127.5C 109.437,126.628 107.437,125.462 105.5,124C 98.1667,123.333 90.8333,123.333 83.5,124C 81.4156,124.697 79.7489,125.864 78.5,127.5C 77.391,127.557 76.391,127.89 75.5,128.5C 77.7778,124.738 81.1111,122.238 85.5,121C 91.1667,120.333 96.8333,120.333 102.5,121C 106.285,122.908 110.285,124.075 114.5,124.5 Z"/></g>
<g><path style="opacity:0.765" fill="#24a86e" d="M 111.5,127.5 C 105.203,125.814 98.7026,124.814 92,124.5C 87.2533,124.461 82.7533,125.461 78.5,127.5C 79.7489,125.864 81.4156,124.697 83.5,124C 90.8333,123.333 98.1667,123.333 105.5,124C 107.437,125.462 109.437,126.628 111.5,127.5 Z"/></g>
<g><path style="opacity:0.908" fill="#f9fcfa" d="M 325.5,146.5 C 325.833,145.833 326.167,145.167 326.5,144.5C 327.833,144.167 327.833,143.833 326.5,143.5C 326.423,142.25 325.756,141.417 324.5,141C 325.167,140.667 325.833,140.333 326.5,140C 325.402,139.23 325.402,138.397 326.5,137.5C 328.037,134.1 329.87,130.767 332,127.5C 336.72,122.926 342.387,120.926 349,121.5C 354.255,121.585 359.421,122.252 364.5,123.5C 364.805,128.762 364.471,133.928 363.5,139C 356.166,140.833 353.166,138 354.5,130.5C 348.963,128.735 344.797,130.401 342,135.5C 338.973,143.33 339.806,150.83 344.5,158C 349.203,161.014 353.536,160.348 357.5,156C 362.076,155.05 365.076,156.883 366.5,161.5C 361.668,166.56 355.668,168.893 348.5,168.5C 340.508,169.087 334.341,166.087 330,159.5C 328.164,155.154 326.664,150.821 325.5,146.5 Z"/></g>
<g><path style="opacity:1" fill="#02cefc" d="M 122.5,135.5 C 123.167,135.5 123.833,135.5 124.5,135.5C 124.5,136.833 124.5,138.167 124.5,139.5C 128.936,140.785 133.269,142.285 137.5,144C 138.551,145.385 139.884,146.385 141.5,147C 145.113,147.884 148.78,148.384 152.5,148.5C 159.713,148.114 166.713,146.948 173.5,145C 174.806,142.427 176.473,140.094 178.5,138C 179.448,137.517 180.448,137.351 181.5,137.5C 181.461,134.911 182.461,132.911 184.5,131.5C 184.564,138.047 183.397,144.38 181,150.5C 180.167,149.5 179.333,148.5 178.5,147.5C 177.611,150.279 176.444,152.945 175,155.5C 169.877,157.602 165.71,160.269 162.5,163.5C 161.138,161.988 160.804,160.488 161.5,159C 158.998,158.72 157.331,159.887 156.5,162.5C 155.675,163.386 154.675,163.719 153.5,163.5C 152.108,166.614 150.442,169.614 148.5,172.5C 144.733,172.701 140.9,172.701 137,172.5C 136.667,173.167 136.333,173.833 136,174.5C 131.214,173.559 126.38,173.393 121.5,174C 122.5,173.667 123.5,173.333 124.5,173C 123.333,166.5 120.5,165.667 116,170.5C 115.676,168.431 114.842,168.098 113.5,169.5C 110.249,169.292 107.915,167.792 106.5,165C 104.481,164.55 102.648,163.717 101,162.5C 100.248,158.92 99.748,155.253 99.5,151.5C 98.3926,150.978 97.2259,150.645 96,150.5C 93.637,151.955 91.137,152.455 88.5,152C 88.8333,151.667 89.1667,151.333 89.5,151C 82.7867,148.515 83.12,146.849 90.5,146C 87.2875,145.297 84.1208,145.464 81,146.5C 78.3578,145.69 76.5245,144.023 75.5,141.5C 75.3893,140.883 75.056,140.383 74.5,140C 75.5742,139.261 76.2409,138.261 76.5,137C 74.957,133.498 75.957,130.831 79.5,129C 87.0277,126.082 94.6944,125.749 102.5,128C 106.27,131.907 110.936,133.407 116.5,132.5C 115.167,135.167 115.167,137.833 116.5,140.5C 117.675,140.719 118.675,140.386 119.5,139.5C 118.079,136.572 119.079,135.238 122.5,135.5 Z"/></g>
<g><path style="opacity:1" fill="#4fb318" d="M 79.5,106.5 C 76.0416,109.917 73.0416,113.751 70.5,118C 69.2575,118.311 68.2575,117.811 67.5,116.5C 66.6667,117.5 65.8333,118.5 65,119.5C 63.3252,124.778 63.1585,130.111 64.5,135.5C 65.712,132.698 67.3787,130.198 69.5,128C 72.4883,126.01 75.1549,123.677 77.5,121C 79.5,120 81.5,119 83.5,118C 90.9527,117.232 98.286,117.899 105.5,120C 109.035,120.663 112.035,122.163 114.5,124.5C 110.285,124.075 106.285,122.908 102.5,121C 96.8333,120.333 91.1667,120.333 85.5,121C 81.1111,122.238 77.7778,124.738 75.5,128.5C 74.8333,129.833 73.8333,130.833 72.5,131.5C 70.1094,133.894 67.4427,135.894 64.5,137.5C 63.2613,137.058 62.2613,136.391 61.5,135.5C 60.8761,135.083 60.5427,134.416 60.5,133.5C 60.9123,128.24 61.9123,123.24 63.5,118.5C 65.3587,113.344 68.0254,108.511 71.5,104C 71.8333,103.833 72.1667,103.667 72.5,103.5C 73.2978,105.078 73.7978,106.744 74,108.5C 75.75,108.413 77.5833,107.746 79.5,106.5 Z"/></g>
<g><path style="opacity:1" fill="#24bc8a" d="M 111.5,127.5 C 112.833,127.833 114.167,128.167 115.5,128.5C 118.06,129.385 120.06,131.051 121.5,133.5C 117.944,131.671 114.61,129.671 111.5,127.5 Z"/></g>
<g><path style="opacity:0.212" fill="#3f9a70" d="M 183.5,122.5 C 184.075,124.411 185.075,126.078 186.5,127.5C 184.067,127.273 182.401,128.273 181.5,130.5C 180.833,130.5 180.167,130.5 179.5,130.5C 179.565,130.062 179.399,129.728 179,129.5C 176.724,130.762 174.891,132.429 173.5,134.5C 174.038,132.883 174.371,131.216 174.5,129.5C 176.553,129.598 178.22,128.931 179.5,127.5C 179.833,127.5 180.167,127.5 180.5,127.5C 182.028,126.198 183.028,124.531 183.5,122.5 Z"/></g>
<g><path style="opacity:0.947" fill="#f9fbf9" d="M 326.5,137.5 C 325.402,138.397 325.402,139.23 326.5,140C 325.833,140.333 325.167,140.667 324.5,141C 325.756,141.417 326.423,142.25 326.5,143.5C 326.5,143.833 326.5,144.167 326.5,144.5C 326.167,145.167 325.833,145.833 325.5,146.5C 316.167,146.5 306.833,146.5 297.5,146.5C 297.355,153.684 300.689,158.35 307.5,160.5C 311.868,159.229 316.035,157.562 320,155.5C 323.657,156.512 325.657,158.845 326,162.5C 318.062,168.185 309.229,170.019 299.5,168C 291.611,165.742 286.778,160.575 285,152.5C 281.585,129.921 291.085,119.755 313.5,122C 321.227,124.272 325.561,129.439 326.5,137.5 Z M 305.5,129.5 C 310.843,130.177 313.843,133.177 314.5,138.5C 308.794,138.829 303.128,138.495 297.5,137.5C 298.952,133.473 301.618,130.806 305.5,129.5 Z"/></g>
<g><path style="opacity:0.966" fill="#f9fbf8" d="M 267.5,138.5 C 266.571,139.315 265.571,140.148 264.5,141C 268.391,145.893 271.891,151.06 275,156.5C 277.456,158.211 280.123,159.544 283,160.5C 283.497,162.81 283.663,165.143 283.5,167.5C 277.824,167.666 272.157,167.499 266.5,167C 261.542,159.585 256.709,152.085 252,144.5C 250.103,142.984 247.936,142.317 245.5,142.5C 245.5,147.833 245.5,153.167 245.5,158.5C 251.868,158.257 254.201,161.257 252.5,167.5C 248.167,167.5 243.833,167.5 239.5,167.5C 239.611,166.883 239.944,166.383 240.5,166C 242.833,165.667 245.167,165.333 247.5,165C 246.009,162.911 244.342,160.911 242.5,159C 245.167,157.667 245.167,156.333 242.5,155C 243.303,150.586 243.803,146.086 244,141.5C 244.5,141 245,140.5 245.5,140C 244.786,138.657 245.12,137.324 246.5,136C 245.328,135.581 244.328,134.915 243.5,134C 243.888,132.192 243.888,130.525 243.5,129C 244.094,128.536 244.761,128.369 245.5,128.5C 245.5,130.5 245.5,132.5 245.5,134.5C 252.04,135.163 257.54,133.163 262,128.5C 264.034,120.904 261.201,116.237 253.5,114.5C 253.866,113.305 254.699,112.639 256,112.5C 257.416,113.573 258.75,113.573 260,112.5C 262.687,116.454 265.187,120.621 267.5,125C 264.878,129.512 264.878,134.012 267.5,138.5 Z"/></g>
<g><path style="opacity:1" fill="#5dc810" d="M 27.5,123.5 C 26.5128,128.305 26.1795,133.305 26.5,138.5C 20.4733,137.772 14.64,136.105 9,133.5C 7.27391,134.576 5.44058,134.743 3.5,134C 6.85931,132.617 10.1926,131.284 13.5,130C 14.8228,129.184 15.4894,128.017 15.5,126.5C 18.7415,124.879 22.0748,123.213 25.5,121.5C 26.5223,121.855 27.189,122.522 27.5,123.5 Z"/></g>
<g><path style="opacity:0.971" fill="#f9fbf9" d="M 827.5,157.5 C 828.573,158.658 829.739,158.658 831,157.5C 833.703,154.226 836.536,151.893 839.5,150.5C 840.542,163.786 834.208,169.786 820.5,168.5C 815.703,168.577 811.036,167.91 806.5,166.5C 806.688,164.897 806.188,163.563 805,162.5C 802.374,165.231 799.207,167.064 795.5,168C 772.564,170.054 763.064,159.554 767,136.5C 770.436,125.782 777.769,120.782 789,121.5C 793.943,121.484 798.777,122.151 803.5,123.5C 803.5,128.833 803.5,134.167 803.5,139.5C 800.813,139.664 798.146,139.497 795.5,139C 794.556,136.281 794.223,133.448 794.5,130.5C 783.408,128.923 778.408,133.923 779.5,145.5C 780.851,160.154 787.517,163.488 799.5,155.5C 802.104,156.269 803.938,157.936 805,160.5C 806.152,158.234 806.652,155.9 806.5,153.5C 813.127,150.641 816.127,152.641 815.5,159.5C 819.905,161.14 823.905,160.473 827.5,157.5 Z"/></g>
<g><path style="opacity:0.925" fill="#63b02d" d="M 27.5,123.5 C 27.5029,127.524 27.8362,131.524 28.5,135.5C 28.6353,137.808 27.9686,139.808 26.5,141.5C 18.5292,139.56 10.5292,137.727 2.5,136C 1.83333,135.333 1.16667,134.667 0.5,134C 5.06031,130.645 10.0603,128.145 15.5,126.5C 15.4894,128.017 14.8228,129.184 13.5,130C 10.1926,131.284 6.85931,132.617 3.5,134C 5.44058,134.743 7.27391,134.576 9,133.5C 14.64,136.105 20.4733,137.772 26.5,138.5C 26.1795,133.305 26.5128,128.305 27.5,123.5 Z"/></g>
<g><path style="opacity:0.992" fill="#1da7a4" d="M 179.5,130.5 C 180.167,130.5 180.833,130.5 181.5,130.5C 181.123,132.258 180.456,133.925 179.5,135.5C 176.804,136.74 174.471,138.407 172.5,140.5C 172.557,139.391 172.89,138.391 173.5,137.5C 173.5,136.833 173.5,136.167 173.5,135.5C 176.089,134.581 178.089,132.914 179.5,130.5 Z"/></g>
<g><path style="opacity:0.945" fill="#369543" d="M 72.5,131.5 C 71.7945,136.553 68.7945,139.22 63.5,139.5C 61.8958,138.713 61.2291,137.38 61.5,135.5C 62.2613,136.391 63.2613,137.058 64.5,137.5C 67.4427,135.894 70.1094,133.894 72.5,131.5 Z"/></g>
<g><path style="opacity:0.392" fill="#2bab8d" d="M 78.5,127.5 C 75.1409,130.351 72.8076,133.851 71.5,138C 69.2346,139.118 66.9013,139.951 64.5,140.5C 63.8333,140.5 63.5,140.167 63.5,139.5C 68.7945,139.22 71.7945,136.553 72.5,131.5C 73.8333,130.833 74.8333,129.833 75.5,128.5C 76.391,127.89 77.391,127.557 78.5,127.5 Z"/></g>
<g><path style="opacity:1" fill="#27b376" d="M 121.5,133.5 C 122.873,133.343 124.207,133.51 125.5,134C 127.487,136.717 130.153,138.217 133.5,138.5C 134.694,139.272 135.694,140.272 136.5,141.5C 131.997,140.582 127.997,138.582 124.5,135.5C 123.833,135.5 123.167,135.5 122.5,135.5C 122.167,134.833 121.833,134.167 121.5,133.5 Z"/></g>
<g><path style="opacity:0.941" fill="#f9fcfa" d="M 683.5,121.5 C 690.822,121.071 697.988,121.737 705,123.5C 705.796,127.755 705.629,131.921 704.5,136C 701.833,136.667 699.167,136.667 696.5,136C 694.061,128.274 690.394,127.608 685.5,134C 685.759,135.261 686.426,136.261 687.5,137C 693.798,138.899 699.631,141.732 705,145.5C 709.998,156.515 706.832,164.015 695.5,168C 688.041,168.909 680.708,168.409 673.5,166.5C 673.5,161.833 673.5,157.167 673.5,152.5C 676.187,152.336 678.854,152.503 681.5,153C 683.444,160.648 687.61,162.148 694,157.5C 694.825,155.299 694.325,153.466 692.5,152C 686.443,150.651 680.943,148.151 676,144.5C 670.744,134.056 673.244,126.389 683.5,121.5 Z"/></g>
<g><path style="opacity:0.798" fill="#f9fcf9" d="M 500.5,121.5 C 520.197,118.536 529.197,126.869 527.5,146.5C 517.833,146.5 508.167,146.5 498.5,146.5C 498.441,154.107 502.108,158.773 509.5,160.5C 513.434,158.947 517.268,157.28 521,155.5C 529.738,159.531 529.571,163.364 520.5,167C 495.625,172.659 484.125,162.826 486,137.5C 487.956,129.385 492.789,124.051 500.5,121.5 Z M 506.5,129.5 C 511.51,130.342 514.843,133.175 516.5,138C 510.5,138.667 504.5,138.667 498.5,138C 500.021,133.982 502.687,131.149 506.5,129.5 Z"/></g>
<g><path style="opacity:0.965" fill="#1fc7d7" d="M 111.5,127.5 C 114.61,129.671 117.944,131.671 121.5,133.5C 121.833,134.167 122.167,134.833 122.5,135.5C 119.079,135.238 118.079,136.572 119.5,139.5C 118.675,140.386 117.675,140.719 116.5,140.5C 115.167,137.833 115.167,135.167 116.5,132.5C 110.936,133.407 106.27,131.907 102.5,128C 94.6944,125.749 87.0277,126.082 79.5,129C 75.957,130.831 74.957,133.498 76.5,137C 76.2409,138.261 75.5742,139.261 74.5,140C 75.056,140.383 75.3893,140.883 75.5,141.5C 73.857,141.52 72.5237,140.853 71.5,139.5C 70.2519,140.04 69.0852,140.707 68,141.5C 66.5936,145.031 65.7603,148.698 65.5,152.5C 64.9501,148.582 64.6168,144.582 64.5,140.5C 66.9013,139.951 69.2346,139.118 71.5,138C 72.8076,133.851 75.1409,130.351 78.5,127.5C 82.7533,125.461 87.2533,124.461 92,124.5C 98.7026,124.814 105.203,125.814 111.5,127.5 Z"/></g>
<g><path style="opacity:1" fill="#0cb0c7" d="M 186.5,127.5 C 186.5,127.833 186.5,128.167 186.5,128.5C 186.573,130.027 185.906,131.027 184.5,131.5C 182.461,132.911 181.461,134.911 181.5,137.5C 180.448,137.351 179.448,137.517 178.5,138C 176.473,140.094 174.806,142.427 173.5,145C 166.713,146.948 159.713,148.114 152.5,148.5C 148.78,148.384 145.113,147.884 141.5,147C 139.884,146.385 138.551,145.385 137.5,144C 133.269,142.285 128.936,140.785 124.5,139.5C 124.5,138.167 124.5,136.833 124.5,135.5C 127.997,138.582 131.997,140.582 136.5,141.5C 136.833,141.5 137.167,141.5 137.5,141.5C 149.211,147.048 160.878,146.715 172.5,140.5C 174.471,138.407 176.804,136.74 179.5,135.5C 180.456,133.925 181.123,132.258 181.5,130.5C 182.401,128.273 184.067,127.273 186.5,127.5 Z"/></g>
<g><path style="opacity:0.604" fill="#1e966b" d="M 171.5,137.5 C 172.167,137.5 172.833,137.5 173.5,137.5C 172.89,138.391 172.557,139.391 172.5,140.5C 160.878,146.715 149.211,147.048 137.5,141.5C 148.68,144.577 159.68,144.077 170.5,140C 171.252,139.329 171.586,138.496 171.5,137.5 Z"/></g>
<g><path style="opacity:1" fill="#3fad33" d="M 171.5,137.5 C 171.586,138.496 171.252,139.329 170.5,140C 159.68,144.077 148.68,144.577 137.5,141.5C 137.167,141.5 136.833,141.5 136.5,141.5C 135.694,140.272 134.694,139.272 133.5,138.5C 146.368,142.76 159.035,142.427 171.5,137.5 Z"/></g>
<g><path style="opacity:1" fill="#1ccae9" d="M 65.5,65.5 C 62.9312,64.3711 60.7645,62.7044 59,60.5C 55.5666,64.911 53.7333,69.5777 53.5,74.5C 54.8228,80.1127 55.3228,85.7794 55,91.5C 52.3977,95.7057 50.0643,100.039 48,104.5C 47.0511,109.997 45.7178,115.331 44,120.5C 42.6491,128.797 42.3158,137.13 43,145.5C 43.4059,150.312 45.4059,154.312 49,157.5C 50.3942,149.78 51.2276,150.114 51.5,158.5C 52.675,158.719 53.675,158.386 54.5,157.5C 53.8964,153.184 52.2297,149.351 49.5,146C 50.4706,144.796 51.4706,144.296 52.5,144.5C 51.7759,135.528 51.1092,126.528 50.5,117.5C 50.9648,114.108 52.6315,113.108 55.5,114.5C 54.7578,116.594 54.0911,118.761 53.5,121C 53.5143,122.385 53.8476,123.551 54.5,124.5C 52.2044,147.613 58.8711,167.613 74.5,184.5C 72.9681,185.37 71.4681,185.036 70,183.5C 67.5131,179.774 64.8465,176.107 62,172.5C 60.8822,170.235 60.0488,167.901 59.5,165.5C 56.6545,165.191 55.1545,163.525 55,160.5C 54.6827,162.301 54.016,162.634 53,161.5C 52.3333,163.5 52.3333,165.5 53,167.5C 54.8589,172.909 57.0256,178.243 59.5,183.5C 57.498,187.162 54.498,189.829 50.5,191.5C 49.8933,191.376 49.56,191.043 49.5,190.5C 52.9522,188.883 55.6188,186.383 57.5,183C 35.9142,151.519 34.9142,119.352 54.5,86.5C 47.1506,69.0275 46.6506,51.3608 53,33.5C 54.3333,32.1667 55.6667,32.1667 57,33.5C 56.495,45.179 59.3284,55.8457 65.5,65.5 Z"/></g>
<g><path style="opacity:1" fill="#07cefb" d="M 86.5,157.5 C 86.8333,158.167 87.1667,158.833 87.5,159.5C 86.4721,159.926 85.1388,159.926 83.5,159.5C 83.3433,160.873 83.51,162.207 84,163.5C 84.6667,164.833 85.3333,164.833 86,163.5C 86.2492,164.624 86.7492,165.624 87.5,166.5C 90.4302,167.547 92.9302,169.213 95,171.5C 96.813,170.391 97.6463,171.058 97.5,173.5C 99.1439,173.714 100.644,173.38 102,172.5C 105.757,174.831 109.423,177.165 113,179.5C 113.814,181.902 113.647,184.235 112.5,186.5C 111.575,187.641 110.741,187.641 110,186.5C 109.506,188.134 109.34,189.801 109.5,191.5C 105.831,192.303 103.164,191.136 101.5,188C 98.4592,186.636 95.4592,186.802 92.5,188.5C 88.183,185.514 84.183,182.18 80.5,178.5C 81.675,178.719 82.675,178.386 83.5,177.5C 82.3947,176.108 81.0614,174.941 79.5,174C 81.0374,171.687 81.5374,169.187 81,166.5C 80.6905,167.766 80.1905,168.933 79.5,170C 78.5165,170.591 77.8499,170.257 77.5,169C 76.1932,166.108 75.1932,163.108 74.5,160C 74.7591,158.739 75.4258,157.739 76.5,157C 75.7471,155.513 74.9138,155.346 74,156.5C 73.8032,154.139 72.6365,152.472 70.5,151.5C 70.6225,149.622 70.6225,147.789 70.5,146C 71.2529,144.513 72.0862,144.346 73,145.5C 73.2511,147.433 73.7511,149.266 74.5,151C 74.1667,151.333 73.8333,151.667 73.5,152C 74.6667,152.5 75.5,153.333 76,154.5C 76.4968,151.45 77.9968,150.45 80.5,151.5C 81.1924,150.975 81.6924,150.308 82,149.5C 82.5,150.667 83.3333,151.5 84.5,152C 78.8386,155.862 79.5052,157.695 86.5,157.5 Z"/></g>
<g><path style="opacity:1" fill="#17cef1" d="M 186.5,128.5 C 187.98,154.869 177.313,174.869 154.5,188.5C 154.062,188.565 153.728,188.399 153.5,188C 155.062,185.554 157.062,183.554 159.5,182C 158.708,180.04 157.375,178.54 155.5,177.5C 153.808,178.969 151.808,179.635 149.5,179.5C 147.13,179.076 144.796,178.909 142.5,179C 142.167,179.333 141.833,179.667 141.5,180C 144.477,182.119 144.144,183.286 140.5,183.5C 139.5,183.333 138.5,183.167 137.5,183C 138.833,182.333 138.833,181.667 137.5,181C 132.803,180.72 128.137,180.22 123.5,179.5C 120.474,181.904 117.474,181.738 114.5,179C 113.663,177.989 113.33,176.822 113.5,175.5C 114.458,175.953 115.292,176.619 116,177.5C 116.995,176.934 117.828,176.267 118.5,175.5C 119.167,175.833 119.833,176.167 120.5,176.5C 121.209,177.404 122.209,177.737 123.5,177.5C 125.611,176.258 127.611,176.258 129.5,177.5C 131.167,178.833 132.833,178.833 134.5,177.5C 133.737,176.732 132.737,176.232 131.5,176C 136.197,175.72 140.863,175.22 145.5,174.5C 146.416,174.543 147.083,174.876 147.5,175.5C 148.404,174.791 148.737,173.791 148.5,172.5C 150.442,169.614 152.108,166.614 153.5,163.5C 154.675,163.719 155.675,163.386 156.5,162.5C 157.331,159.887 158.998,158.72 161.5,159C 160.804,160.488 161.138,161.988 162.5,163.5C 165.71,160.269 169.877,157.602 175,155.5C 176.444,152.945 177.611,150.279 178.5,147.5C 179.333,148.5 180.167,149.5 181,150.5C 183.397,144.38 184.564,138.047 184.5,131.5C 185.906,131.027 186.573,130.027 186.5,128.5 Z M 151.5,171.5 C 155.246,172.698 155.079,174.031 151,175.5C 150.5,175.333 150,175.167 149.5,175C 150.823,174.184 151.489,173.017 151.5,171.5 Z"/></g>
<g><path style="opacity:1" fill="#0fcdf5" d="M 75.5,141.5 C 76.5245,144.023 78.3578,145.69 81,146.5C 84.1208,145.464 87.2875,145.297 90.5,146C 83.12,146.849 82.7867,148.515 89.5,151C 89.1667,151.333 88.8333,151.667 88.5,152C 91.137,152.455 93.637,151.955 96,150.5C 97.2259,150.645 98.3926,150.978 99.5,151.5C 99.748,155.253 100.248,158.92 101,162.5C 102.648,163.717 104.481,164.55 106.5,165C 107.915,167.792 110.249,169.292 113.5,169.5C 114.842,168.098 115.676,168.431 116,170.5C 120.5,165.667 123.333,166.5 124.5,173C 123.5,173.333 122.5,173.667 121.5,174C 126.38,173.393 131.214,173.559 136,174.5C 136.333,173.833 136.667,173.167 137,172.5C 140.9,172.701 144.733,172.701 148.5,172.5C 148.737,173.791 148.404,174.791 147.5,175.5C 147.083,174.876 146.416,174.543 145.5,174.5C 140.863,175.22 136.197,175.72 131.5,176C 132.737,176.232 133.737,176.732 134.5,177.5C 132.833,177.5 131.167,177.5 129.5,177.5C 127.611,176.258 125.611,176.258 123.5,177.5C 122.791,176.596 121.791,176.263 120.5,176.5C 119.833,176.167 119.167,175.833 118.5,175.5C 118.5,174.833 118.5,174.167 118.5,173.5C 116.447,173.402 114.78,174.069 113.5,175.5C 113.33,176.822 113.663,177.989 114.5,179C 117.474,181.738 120.474,181.904 123.5,179.5C 128.137,180.22 132.803,180.72 137.5,181C 138.833,181.667 138.833,182.333 137.5,183C 138.5,183.167 139.5,183.333 140.5,183.5C 144.144,183.286 144.477,182.119 141.5,180C 141.833,179.667 142.167,179.333 142.5,179C 144.796,178.909 147.13,179.076 149.5,179.5C 151.808,179.635 153.808,178.969 155.5,177.5C 157.375,178.54 158.708,180.04 159.5,182C 157.062,183.554 155.062,185.554 153.5,188C 153.728,188.399 154.062,188.565 154.5,188.5C 134.016,199.751 113.35,199.751 92.5,188.5C 95.4592,186.802 98.4592,186.636 101.5,188C 103.164,191.136 105.831,192.303 109.5,191.5C 109.34,189.801 109.506,188.134 110,186.5C 110.741,187.641 111.575,187.641 112.5,186.5C 113.647,184.235 113.814,181.902 113,179.5C 109.423,177.165 105.757,174.831 102,172.5C 100.644,173.38 99.1439,173.714 97.5,173.5C 97.6463,171.058 96.813,170.391 95,171.5C 92.9302,169.213 90.4302,167.547 87.5,166.5C 86.7492,165.624 86.2492,164.624 86,163.5C 85.3333,164.833 84.6667,164.833 84,163.5C 83.51,162.207 83.3433,160.873 83.5,159.5C 85.1388,159.926 86.4721,159.926 87.5,159.5C 89.6477,159.611 89.981,158.944 88.5,157.5C 89.7287,156.719 91.062,156.219 92.5,156C 91.5,155.833 90.5,155.667 89.5,155.5C 87.9704,155.64 86.9704,156.307 86.5,157.5C 79.5052,157.695 78.8386,155.862 84.5,152C 83.3333,151.5 82.5,150.667 82,149.5C 81.6924,150.308 81.1924,150.975 80.5,151.5C 77.9968,150.45 76.4968,151.45 76,154.5C 75.5,153.333 74.6667,152.5 73.5,152C 73.8333,151.667 74.1667,151.333 74.5,151C 73.7511,149.266 73.2511,147.433 73,145.5C 72.0862,144.346 71.2529,144.513 70.5,146C 70.6225,147.789 70.6225,149.622 70.5,151.5C 72.6365,152.472 73.8032,154.139 74,156.5C 74.9138,155.346 75.7471,155.513 76.5,157C 75.4258,157.739 74.7591,158.739 74.5,160C 75.1932,163.108 76.1932,166.108 77.5,169C 77.8499,170.257 78.5165,170.591 79.5,170C 80.1905,168.933 80.6905,167.766 81,166.5C 81.5374,169.187 81.0374,171.687 79.5,174C 81.0614,174.941 82.3947,176.108 83.5,177.5C 82.675,178.386 81.675,178.719 80.5,178.5C 72.9393,171.387 67.9393,162.721 65.5,152.5C 65.7603,148.698 66.5936,145.031 68,141.5C 69.0852,140.707 70.2519,140.04 71.5,139.5C 72.5237,140.853 73.857,141.52 75.5,141.5 Z M 118.5,173.5 C 118.5,174.167 118.5,174.833 118.5,175.5C 117.828,176.267 116.995,176.934 116,177.5C 115.292,176.619 114.458,175.953 113.5,175.5C 114.78,174.069 116.447,173.402 118.5,173.5 Z M 87.5,159.5 C 87.1667,158.833 86.8333,158.167 86.5,157.5C 86.9704,156.307 87.9704,155.64 89.5,155.5C 90.5,155.667 91.5,155.833 92.5,156C 91.062,156.219 89.7287,156.719 88.5,157.5C 89.981,158.944 89.6477,159.611 87.5,159.5 Z"/></g>
<g><path style="opacity:1" fill="#65ba31" d="M 191.5,173.5 C 190.928,175.255 190.094,176.922 189,178.5C 185.842,180.957 183.009,183.79 180.5,187C 182.883,187.065 183.55,187.898 182.5,189.5C 184.393,193.727 187.06,197.393 190.5,200.5C 192.003,204.602 192.336,208.602 191.5,212.5C 189.05,202.765 184.383,194.265 177.5,187C 181.982,182.352 186.649,177.852 191.5,173.5 Z"/></g>
<g><path style="opacity:1" fill="#04cefb" d="M 74.5,184.5 C 75.1667,184.833 75.8333,185.167 76.5,185.5C 75.7659,186.708 75.4326,188.041 75.5,189.5C 76.8333,189.5 78.1667,189.5 79.5,189.5C 79.3537,191.942 80.187,192.609 82,191.5C 83.2873,194.428 85.2873,196.762 88,198.5C 88.4828,199.448 88.6495,200.448 88.5,201.5C 85.7426,201.622 83.7426,200.455 82.5,198C 81,197.833 79.5,197.667 78,197.5C 75.6586,198.021 73.4919,198.021 71.5,197.5C 69.2048,198.475 67.2048,199.808 65.5,201.5C 63.8129,201.24 62.3129,200.573 61,199.5C 59.0756,201.756 56.5756,202.756 53.5,202.5C 48.1776,201.89 42.8442,201.39 37.5,201C 39.8196,197.34 43.153,195.507 47.5,195.5C 47.7373,194.209 47.404,193.209 46.5,192.5C 47.2905,191.599 48.2905,190.932 49.5,190.5C 49.56,191.043 49.8933,191.376 50.5,191.5C 54.498,189.829 57.498,187.162 59.5,183.5C 57.0256,178.243 54.8589,172.909 53,167.5C 52.3333,165.5 52.3333,163.5 53,161.5C 54.016,162.634 54.6827,162.301 55,160.5C 55.1545,163.525 56.6545,165.191 59.5,165.5C 60.0488,167.901 60.8822,170.235 62,172.5C 64.8465,176.107 67.5131,179.774 70,183.5C 71.4681,185.036 72.9681,185.37 74.5,184.5 Z"/></g>
<g><path style="opacity:1" fill="#5fc810" d="M 200.5,180.5 C 199.876,180.917 199.543,181.584 199.5,182.5C 202.684,193.384 203.184,204.384 201,215.5C 200.53,217.774 199.53,219.774 198,221.5C 196.454,218.561 194.621,215.894 192.5,213.5C 191.833,213.5 191.5,213.167 191.5,212.5C 192.336,208.602 192.003,204.602 190.5,200.5C 187.06,197.393 184.393,193.727 182.5,189.5C 183.55,187.898 182.883,187.065 180.5,187C 183.009,183.79 185.842,180.957 189,178.5C 190.094,176.922 190.928,175.255 191.5,173.5C 192.665,171.584 194.332,170.751 196.5,171C 197.91,174.146 199.243,177.313 200.5,180.5 Z"/></g>
<g><path style="opacity:0.078" fill="#68ac36" d="M 200.5,180.5 C 204.945,195.701 204.445,210.701 199,225.5C 197.951,226.517 196.784,226.684 195.5,226C 193.804,222.021 192.804,217.855 192.5,213.5C 194.621,215.894 196.454,218.561 198,221.5C 199.53,219.774 200.53,217.774 201,215.5C 203.184,204.384 202.684,193.384 199.5,182.5C 199.543,181.584 199.876,180.917 200.5,180.5 Z"/></g>
<g><path style="opacity:0.992" fill="#22caeb" d="M 76.5,185.5 C 89.4431,196.293 104.443,202.127 121.5,203C 130.54,203.547 139.54,203.547 148.5,203C 149.731,204.183 149.731,205.349 148.5,206.5C 134.292,213.055 119.625,214.222 104.5,210C 95.2414,207.525 86.2414,204.358 77.5,200.5C 58.4121,205.978 39.4121,205.811 20.5,200C 19.1667,199 19.1667,198 20.5,197C 29.3567,196.407 38.0234,194.907 46.5,192.5C 47.404,193.209 47.7373,194.209 47.5,195.5C 43.153,195.507 39.8196,197.34 37.5,201C 42.8442,201.39 48.1776,201.89 53.5,202.5C 56.5756,202.756 59.0756,201.756 61,199.5C 62.3129,200.573 63.8129,201.24 65.5,201.5C 67.2048,199.808 69.2048,198.475 71.5,197.5C 73.4919,198.021 75.6586,198.021 78,197.5C 79.5,197.667 81,197.833 82.5,198C 83.7426,200.455 85.7426,201.622 88.5,201.5C 88.6495,200.448 88.4828,199.448 88,198.5C 85.2873,196.762 83.2873,194.428 82,191.5C 80.187,192.609 79.3537,191.942 79.5,189.5C 78.1667,189.5 76.8333,189.5 75.5,189.5C 75.4326,188.041 75.7659,186.708 76.5,185.5 Z"/></g>
<g><path style="opacity:1" fill="#65b62c" d="M 121.5,239.5 C 118.567,234.199 116.733,228.533 116,222.5C 121.478,220.523 126.978,220.357 132.5,222C 133.081,222.893 133.415,223.893 133.5,225C 131.897,232.244 130.064,239.411 128,246.5C 126.667,247.833 125.333,247.833 124,246.5C 122.864,244.257 122.03,241.924 121.5,239.5 Z"/></g>
<g><path style="opacity:1" fill="#5dca0c" d="M 121.5,239.5 C 120.366,234.613 119.366,229.613 118.5,224.5C 122.182,224.335 125.848,224.501 129.5,225C 130.786,229.238 129.786,233.238 126.5,237C 127.167,237.333 127.833,237.667 128.5,238C 127.853,239.609 127.02,241.109 126,242.5C 125.092,240.561 123.592,239.561 121.5,239.5 Z"/></g>
</svg>
