<?xml version="1.0" encoding="UTF-8"?>
<svg version="1.1" xmlns="http://www.w3.org/2000/svg" width="479" height="149">
<path d="M0 0 C2.58587124 2.58587124 2.4371935 4.1581997 2.875 7.75 C3.66825293 12.91234131 4.45437797 16.14152896 8 20 C9.73139549 20.96808175 9.73139549 20.96808175 12 21 C14.41460493 20.13085734 16.63061545 19.21888625 18.9375 18.125 C33.39532191 11.40970202 49.22559242 12.79667394 64 18 C64.71800781 18.36996094 65.43601562 18.73992188 66.17578125 19.12109375 C70.09705094 21.01035645 74.94319371 20.16908901 79.125 19.5 C87.43928399 18.42718916 96.07123882 17.97951955 104 21 C104 21.99 104 22.98 104 24 C103.01 24.17015625 102.02 24.3403125 101 24.515625 C91.98752383 26.14035801 84.22685412 27.97762157 77 34 C73.82291528 32.45238028 70.76277714 30.7399022 67.6875 29 C63.47630093 26.68553402 59.68032926 25.04007317 55 24 C55.825 24.37125 56.65 24.7425 57.5 25.125 C66.95956756 30.19262548 73.61373064 37.07214925 78 47 C80.98549965 57.33867471 81.32019895 68.02163004 77 78 C71.93082133 87.13326158 65.38858435 93.36935924 56 98 C55.01 98 54.02 98 53 98 C53 98.66 53 99.32 53 100 C54.485 100.495 54.485 100.495 56 101 C56.33 102.98 56.66 104.96 57 107 C44.37959418 111.20680194 32.23591283 109.41718065 20 105 C14.61574333 103.09307576 10.59917594 103.03999878 5.0625 104 C-3.43159731 105.23764409 -11.63118457 105.16343905 -20 103 C-20.66 102.01 -21.32 101.02 -22 100 C-18.33598748 98.65010065 -14.77023205 97.74425652 -10.9375 97.0625 C-7.09367277 96.32152126 -4.11028089 95.50829104 -1 93 C0.39056957 89.94587667 0.39056957 89.94587667 -1.36328125 86.890625 C-2.00324505 85.67189975 -2.65343324 84.45850152 -3.3125 83.25 C-9.2102922 72.32903809 -10.89101085 61.39109955 -7.75 49.1875 C-6.69218029 45.71907191 -5.34744857 42.56286411 -3.75 39.3125 C-1.36597026 34.25436845 -1.9439661 30.53541783 -3.5390625 25.1953125 C-5.09388967 17.79011867 -4.87886415 9.03722349 -2 2 C-1.34 1.34 -0.68 0.68 0 0 Z M9 37 C1.72319667 45.39163392 -0.61663395 54.8422205 -0.359375 65.75 C0.44465327 73.02121221 3.55049356 79.61841308 7 86 C7.66 86 8.32 86 9 86 C9.33 87.32 9.66 88.64 10 90 C10.66 90 11.32 90 12 90 C12 90.66 12 91.32 12 92 C21.7093891 100.02079969 33.5457384 103.51892757 46 103 C45.34 102.01 44.68 101.02 44 100 C40.99425064 99.37635529 40.99425064 99.37635529 37.5 99.125 C25.98435178 97.65466698 18.3033784 93.05733936 11 84 C7.023742 77.99845172 5.33511503 73.18075766 6 66 C5.34 66 4.68 66 4 66 C3.64482309 54.98951568 5.61962463 46.65181841 11 37 C10.34 37 9.68 37 9 37 Z M51 99 C49.35 99.33 47.7 99.66 46 100 C46 100.33 46 100.66 46 101 C47.98 101 49.96 101 52 101 C51.67 100.34 51.34 99.68 51 99 Z " fill="#09CCF5" transform="translate(39,20)"/>
<path d="M0 0 C0.825 0.53625 1.65 1.0725 2.5 1.625 C8.26257286 7.09944421 13.79171607 14.51872264 14.8125 22.5625 C14.97685547 23.70912109 14.97685547 23.70912109 15.14453125 24.87890625 C15 27 15 27 13.63671875 28.77734375 C12 30 12 30 10 30 C9.7215625 31.1446875 9.7215625 31.1446875 9.4375 32.3125 C7.84533866 35.28914946 6.49548437 36.31713571 3.3515625 37.5078125 C-1.68908701 38.56283217 -6.88071453 38.20785069 -12 38 C-12 37.34 -12 36.68 -12 36 C-13.2065625 35.9071875 -13.2065625 35.9071875 -14.4375 35.8125 C-20.26737563 34.48287924 -25.06209932 31.29193378 -30 28 C-36.53827485 26.29388451 -44.84160668 25.41250478 -51 28.625 C-54.16105767 31.12750399 -55.90554372 33.586812 -58 37 C-58.66 37 -59.32 37 -60 37 C-62.48451836 32.03096327 -60.63592596 24.37478601 -59.25 19.19921875 C-56.12657989 10.83105571 -51.18722443 4.27063125 -44 -1 C-43.01 -1.33 -42.02 -1.66 -41 -2 C-40.67 -2.66 -40.34 -3.32 -40 -4 C-25.75880831 -8.21245562 -12.6992199 -8.38148513 0 0 Z " fill="#65CA15" transform="translate(103,49)"/>
<path d="M0 0 C0.66 0.33 1.32 0.66 2 1 C2 1.66 2 2.32 2 3 C2.58007812 2.95359375 3.16015625 2.9071875 3.7578125 2.859375 C8.01331868 2.66275095 10.61410609 2.82397822 14.5625 4.625 C17 7 17 7 17.375 10.25 C17.189375 11.61125 17.189375 11.61125 17 13 C18.093125 12.95875 19.18625 12.9175 20.3125 12.875 C24 13 24 13 27 15 C28.46493445 19.0863961 29.26301956 22.66017733 29 27 C27.35 27 25.7 27 24 27 C24 27.66 24 28.32 24 29 C18.55211681 29.21791533 14.11948326 29.11456917 9 27 C7.14375 26.319375 7.14375 26.319375 5.25 25.625 C2 24 2 24 1.06640625 22.0078125 C0.16153594 19.85832869 0.16153594 19.85832869 -1.92578125 18.953125 C-8.89728563 16.89932666 -15.74706019 16.21672319 -23 17 C-23.99 17.66 -24.98 18.32 -26 19 C-26.99 19 -27.98 19 -29 19 C-29.2475 19.5775 -29.495 20.155 -29.75 20.75 C-31.16683317 23.3002997 -32.87627537 25.01785701 -35 27 C-36.0494188 23.85174359 -35.98655124 23.01298497 -35.1875 19.9375 C-35.01605469 19.24527344 -34.84460937 18.55304688 -34.66796875 17.83984375 C-34 16 -34 16 -32 14 C-32 14.66 -32 15.32 -32 16 C-31.34 16 -30.68 16 -30 16 C-29.79375 15.21625 -29.5875 14.4325 -29.375 13.625 C-27.52806016 10.09902395 -25.67219553 10.1719773 -22 9 C-21.33820153 7.01954441 -21.33820153 7.01954441 -21 5 C-18.85331506 3.61504198 -17.56128588 3 -15 3 C-14.34 2.505 -13.68 2.01 -13 1.5 C-8.73272327 -0.63363837 -4.69752199 -0.43233831 0 0 Z M23 2 C24.32 2 25.64 2 27 2 C27 2.66 27 3.32 27 4 C27.5775 4.061875 28.155 4.12375 28.75 4.1875 C32.13239188 5.40891929 33.1925313 6.90148223 35 10 C35.32502272 13.03185255 35.23811851 15.963989 35 19 C31.0623522 17.68745073 28.7341328 16.1247232 26 13 C24.64560332 10.29120665 24.93498549 7.99066732 25 5 C24.34 5 23.68 5 23 5 C23 4.01 23 3.02 23 2 Z " fill="#5FCA0B" transform="translate(79,56)"/>
<path d="M0 0 C4.48601256 1.60169154 7.89500337 4.06075286 11.5 7.125 C17.79818402 11.84863801 25.30817429 12.89997961 33 12 C36.13788122 11.3063631 39.17750582 10.56233732 42 9 C42.33 8.01 42.66 7.02 43 6 C43.99 6 44.98 6 46 6 C46.67012098 12.19861907 44.24947173 17.35623611 42 23 C41.505 22.01 41.505 22.01 41 21 C40.34 21 39.68 21 39 21 C39 20.34 39 19.68 39 19 C38.01 19 37.02 19 36 19 C35.505 20.485 35.505 20.485 35 22 C33.34795544 22.70211894 31.68076231 23.36971413 30 24 C29.67 24.66 29.34 25.32 29 26 C22.67340712 28.84947735 16.74711867 29.57045004 10 28 C9.34 27.67 8.68 27.34 8 27 C8 26.34 8 25.68 8 25 C7.2575 25 6.515 25 5.75 25 C1.66430397 25 -2.00976294 24.88671935 -6 24 C-5.125 19.125 -5.125 19.125 -4 18 C-4.99 17.67 -5.98 17.34 -7 17 C-7 16.34 -7 15.68 -7 15 C-8.98 15 -10.96 15 -13 15 C-17.8760139 7.38122827 -17.8760139 7.38122827 -17 2 C-11.88425781 -1.41049479 -5.96238109 -0.64230221 0 0 Z " fill="#06CDF8" transform="translate(71,77)"/>
<path d="M0 0 C0.99 0.33 1.98 0.66 3 1 C4.09587955 5.24551856 3.92865836 8.9592839 3.5625 13.3125 C3.46066406 14.56675781 3.35882813 15.82101563 3.25390625 17.11328125 C3.17011719 18.06589844 3.08632813 19.01851562 3 20 C5.27057377 20.05398987 7.54151288 20.09278742 9.8125 20.125 C11.70935547 20.15980469 11.70935547 20.15980469 13.64453125 20.1953125 C17.1338024 20.27581918 17.1338024 20.27581918 20 18 C21.17138134 14.56684863 21.17138134 14.56684863 22 11 C23 8 23 8 25 6 C25.103125 5.34 25.20625 4.68 25.3125 4 C26 2 26 2 28.4375 0.6875 C31 0 31 0 33 1 C33 1.99 33 2.98 33 4 C33.66 4 34.32 4 35 4 C35.81752303 5.58074564 36.62881997 7.16471223 37.4375 8.75 C37.88996094 9.63171875 38.34242188 10.5134375 38.80859375 11.421875 C40 14 40 14 40.53515625 16.203125 C40.89932868 18.23764555 40.89932868 18.23764555 43 20 C43.70710678 21.64991582 44.37943989 23.31562256 45 25 C42 27 42 27 39.9375 26.6875 C38 26 38 26 36 25 C36 24.34 36 23.68 36 23 C32.29437152 21.76479051 30.76055391 22.75521079 27.2578125 24.1640625 C22.25102475 26.01778668 17.33041396 27 12 27 C12 26.34 12 25.68 12 25 C8.7 25 5.4 25 2 25 C2 25.66 2 26.32 2 27 C1.34 27 0.68 27 0 27 C0 26.34 0 25.68 0 25 C-0.66 25 -1.32 25 -2 25 C-2 20.71 -2 16.42 -2 12 C-2.66 12 -3.32 12 -4 12 C-4.309375 13.175625 -4.309375 13.175625 -4.625 14.375 C-6 17 -6 17 -8.8125 18.3125 C-11.69415343 18.93403309 -14.07104545 19.25105325 -17 19 C-17.33 18.67 -17.66 18.34 -18 18 C-18.66 20.97 -19.32 23.94 -20 27 C-23 26 -23 26 -25 23 C-25.25878906 20.85522461 -25.25878906 20.85522461 -25.265625 18.40234375 C-25.26820313 17.51869141 -25.27078125 16.63503906 -25.2734375 15.72460938 C-25.26570313 14.80486328 -25.25796875 13.88511719 -25.25 12.9375 C-25.25773437 12.01388672 -25.26546875 11.09027344 -25.2734375 10.13867188 C-25.27085937 9.25630859 -25.26828125 8.37394531 -25.265625 7.46484375 C-25.26336914 6.656521 -25.26111328 5.84819824 -25.25878906 5.01538086 C-25 3 -25 3 -23 1 C-20.49262823 0.7739255 -18.13153192 0.67563195 -15.625 0.6875 C-14.95210938 0.67138672 -14.27921875 0.65527344 -13.5859375 0.63867188 C-9.42618673 0.63457763 -7.01628109 1.0687935 -4 4 C-2.68 2.68 -1.36 1.36 0 0 Z M-3 4 C-3 5.65 -3 7.3 -3 9 C-2.67 9 -2.34 9 -2 9 C-2 7.35 -2 5.7 -2 4 C-2.33 4 -2.66 4 -3 4 Z M-19 7 C-19.25030977 9.41619823 -19.25030977 9.41619823 -19 12 C-17.515 12.99 -17.515 12.99 -16 14 C-16 13.34 -16 12.68 -16 12 C-14.35 11.67 -12.7 11.34 -11 11 C-11 10.01 -11 9.02 -11 8 C-13.70879335 6.64560332 -16.00933268 6.93498549 -19 7 Z M-5 8 C-4 10 -4 10 -4 10 Z M-19 13 C-18 15 -18 15 -18 15 Z " fill="#0F0F0F" transform="translate(328,65)"/>
<path d="M0 0 C0.99 0.33 1.98 0.66 3 1 C4.06573831 4.30378877 3.95894893 6.6507601 3.125 9.9375 C1.55420095 16.19946917 1.34731292 22.57471103 1 29 C1.66 29 2.32 29 3 29 C3.66 31.97 4.32 34.94 5 38 C5.99 37.505 5.99 37.505 7 37 C10 42.75 10 42.75 10 45 C10.66 45 11.32 45 12 45 C12.33 46.32 12.66 47.64 13 49 C13.66 49 14.32 49 15 49 C15 49.66 15 50.32 15 51 C15.61875 51.309375 16.2375 51.61875 16.875 51.9375 C18.25 52.625 19.625 53.3125 21 54 C21 54.99 21 55.98 21 57 C22.36125 57.433125 22.36125 57.433125 23.75 57.875 C26.32202908 58.76531776 28.61346766 59.71494413 31 61 C31 61.66 31 62.32 31 63 C29.25008666 63.02715383 27.50005055 63.04646551 25.75 63.0625 C24.77546875 63.07410156 23.8009375 63.08570313 22.796875 63.09765625 C20 63 20 63 18.125 62.4296875 C14.78264085 61.75384282 11.57813634 62.5447899 8.25 63.0625 C-0.29432394 64.2326625 -8.59308323 64.1732887 -17 62 C-17.66 61.01 -18.32 60.02 -19 59 C-15.33598748 57.65010065 -11.77023205 56.74425652 -7.9375 56.0625 C-4.09367277 55.32152126 -1.11028089 54.50829104 2 52 C3.39056957 48.94587667 3.39056957 48.94587667 1.63671875 45.890625 C0.99675495 44.67189975 0.34656676 43.45850152 -0.3125 42.25 C-6.83438014 30.17341232 -7.65475251 18.24847783 -4 5 C-3.01 5 -2.02 5 -1 5 C-0.67 3.35 -0.34 1.7 0 0 Z " fill="#2EBDD6" transform="translate(36,61)"/>
<path d="M0 0 C1.258125 0.01417969 2.51625 0.02835937 3.8125 0.04296875 C5.070625 0.04941406 6.32875 0.05585937 7.625 0.0625 C10.8125 0.23046875 10.8125 0.23046875 12.8125 1.23046875 C14.40078152 5.36000071 14.40711865 10.28444409 13.125 14.48046875 C13.021875 15.05796875 12.91875 15.63546875 12.8125 16.23046875 C14.10459912 18.02298934 14.10459912 18.02298934 15.8125 19.23046875 C16.1425 19.23046875 16.4725 19.23046875 16.8125 19.23046875 C17.1425 12.96046875 17.4725 6.69046875 17.8125 0.23046875 C21.9271875 0.13765625 21.9271875 0.13765625 26.125 0.04296875 C27.41531128 0.00200073 27.41531128 0.00200073 28.73168945 -0.03979492 C29.41448975 -0.0472876 30.09729004 -0.05478027 30.80078125 -0.0625 C31.84552612 -0.08606567 31.84552612 -0.08606567 32.91137695 -0.11010742 C35.35739783 0.32808432 36.23952086 1.36484233 37.8125 3.23046875 C37.4825 3.89046875 37.1525 4.55046875 36.8125 5.23046875 C35.8225 5.56046875 34.8325 5.89046875 33.8125 6.23046875 C33.998125 7.52984375 34.18375 8.82921875 34.375 10.16796875 C34.69140625 12.3828125 34.69140625 12.3828125 34.8125 14.23046875 C32.92982015 16.1131486 30.24187958 15.63667412 27.72265625 15.8515625 C25.5796052 16.09269102 25.5796052 16.09269102 23.8125 18.23046875 C27.7725 18.23046875 31.7325 18.23046875 35.8125 18.23046875 C36.4725 19.55046875 37.1325 20.87046875 37.8125 22.23046875 C37.4825 22.89046875 37.1525 23.55046875 36.8125 24.23046875 C34.17511854 24.60000016 31.65091873 24.83667438 29 24.98046875 C28.27490234 25.03589844 27.54980469 25.09132813 26.80273438 25.1484375 C22.93477488 25.38200139 20.07916053 25.45968591 16.8125 23.23046875 C16.1525 23.89046875 15.4925 24.55046875 14.8125 25.23046875 C12.3125 25.48046875 12.3125 25.48046875 9.8125 25.23046875 C8.65582778 24.07379653 7.51814292 22.89597206 6.4375 21.66796875 C4.5833249 20.02773693 3.22399165 19.64624317 0.8125 19.23046875 C0.4825 20.88046875 0.1525 22.53046875 -0.1875 24.23046875 C-1.8375 23.90046875 -3.4875 23.57046875 -5.1875 23.23046875 C-5.24539006 19.77220533 -5.28105821 16.31406582 -5.3125 12.85546875 C-5.32925781 11.870625 -5.34601563 10.88578125 -5.36328125 9.87109375 C-5.36972656 8.93007812 -5.37617188 7.9890625 -5.3828125 7.01953125 C-5.39328613 6.15021973 -5.40375977 5.2809082 -5.41455078 4.38525391 C-5.01819112 0.62367283 -3.59512045 0.25994131 0 0 Z M-0.1875 5.23046875 C-0.1875 7.54046875 -0.1875 9.85046875 -0.1875 12.23046875 C2.75979537 13.38858263 2.75979537 13.38858263 5.8125 13.23046875 C5.8125 12.24046875 5.8125 11.25046875 5.8125 10.23046875 C6.4725 9.90046875 7.1325 9.57046875 7.8125 9.23046875 C7.4825 8.24046875 7.1525 7.25046875 6.8125 6.23046875 C4.5025 5.90046875 2.1925 5.57046875 -0.1875 5.23046875 Z M25.8125 6.23046875 C25.8125 7.55046875 25.8125 8.87046875 25.8125 10.23046875 C27.4625 10.23046875 29.1125 10.23046875 30.8125 10.23046875 C31.1425 8.91046875 31.4725 7.59046875 31.8125 6.23046875 C29.8325 6.23046875 27.8525 6.23046875 25.8125 6.23046875 Z M8.8125 8.23046875 C9.8125 10.23046875 9.8125 10.23046875 9.8125 10.23046875 Z M9.8125 15.23046875 C10.8125 17.23046875 10.8125 17.23046875 10.8125 17.23046875 Z M11.8125 18.23046875 C12.8125 20.23046875 12.8125 20.23046875 12.8125 20.23046875 Z " fill="#131313" transform="translate(137.1875,65.76953125)"/>
<path d="M0 0 C-0.33 1.65 -0.66 3.3 -1 5 C-7.625 5.25 -7.625 5.25 -11 3 C-13.15274948 3.30840599 -13.15274948 3.30840599 -15 4 C-15.12117188 4.56589844 -15.24234375 5.13179687 -15.3671875 5.71484375 C-15.61855469 6.81505859 -15.61855469 6.81505859 -15.875 7.9375 C-16.03742188 8.66839844 -16.19984375 9.39929688 -16.3671875 10.15234375 C-17 12 -17 12 -19 13 C-18.01 13 -17.02 13 -16 13 C-16 13.66 -16 14.32 -16 15 C-9.98007891 18.00996054 -4.27533236 16.45610257 2 15 C2.66 14.67 3.32 14.34 4 14 C3.505 12.96875 3.01 11.9375 2.5 10.875 C1.04279253 7.44709291 0.48753669 4.75806426 1 1 C2.42552716 -1.06701439 3.41425328 -1.80218203 5.78125 -2.6015625 C8.40721105 -3.07312593 10.60412601 -2.87582718 13.25 -2.5625 C14.14203125 -2.46066406 15.0340625 -2.35882813 15.953125 -2.25390625 C16.62859375 -2.17011719 17.3040625 -2.08632812 18 -2 C18.70616589 2.08006961 18.99473055 5.02107781 18 9 C18.66 9.99 19.32 10.98 20 12 C20.67196738 19.05565749 20.67196738 19.05565749 18.390625 22.26171875 C15.15847619 24.61189231 13.30045679 24.29147058 9.375 23.875 C7.65410156 23.71644531 7.65410156 23.71644531 5.8984375 23.5546875 C3 23 3 23 1 21 C-2.48864279 21.36089408 -5.09032693 23.1410422 -8 25 C-8.33 24.34 -8.66 23.68 -9 23 C-9.7425 23 -10.485 23 -11.25 23 C-13.5 23 -15.75 23 -18 23 C-18.33 22.34 -18.66 21.68 -19 21 C-19.66 20.443125 -20.32 19.88625 -21 19.3125 C-23.74355933 16.14025953 -23.86504012 14.18375637 -24 10 C-23.50190839 6.62185395 -22.80752391 3.31685442 -22 0 C-13.55813962 -3.08848551 -8.14668255 -3.39445106 0 0 Z M10 3 C10.66 3.66 11.32 4.32 12 5 C12.66 4.34 13.32 3.68 14 3 C12.68 3 11.36 3 10 3 Z M9 4 C10 6 10 6 10 6 Z M5 12 C7.0140476 15.0210714 8.63279613 16.60667426 12 18 C12 17.01 12 16.02 12 15 C9.46815512 12.64276511 8.52809907 12 5 12 Z " fill="#0F0F0F" transform="translate(448,68)"/>
<path d="M0 0 C0.99 1.485 0.99 1.485 2 3 C1.15953125 2.67386719 0.3190625 2.34773438 -0.546875 2.01171875 C-4.28970269 0.91512104 -7.35905633 0.76696768 -11.25 0.8125 C-12.47203125 0.81894531 -13.6940625 0.82539062 -14.953125 0.83203125 C-17.91722201 0.79306844 -17.91722201 0.79306844 -20 2 C-20.19272728 6.14363644 -20.2731723 9.44199119 -18 13 C-14.46485707 14.37967524 -14.46485707 14.37967524 -11 15 C-11 15.66 -11 16.32 -11 17 C-12.32 17 -13.64 17 -15 17 C-15 18.32 -15 19.64 -15 21 C-15.66 21 -16.32 21 -17 21 C-17 21.66 -17 22.32 -17 23 C-17.66 23 -18.32 23 -19 23 C-21 20 -21 20 -21 16 C-21.66 16 -22.32 16 -23 16 C-23.33 14.02 -23.66 12.04 -24 10 C-24.99 10.495 -24.99 10.495 -26 11 C-26.46523063 12.89533342 -26.46523063 12.89533342 -26.625 15.0625 C-26.810625 17.0115625 -26.810625 17.0115625 -27 19 C-26.34 19 -25.68 19 -25 19 C-25 19.66 -25 20.32 -25 21 C-24.34 21 -23.68 21 -23 21 C-23 23.31 -23 25.62 -23 28 C-22.01 28 -21.02 28 -20 28 C-18.66666667 30 -17.33333333 32 -16 34 C-6.85765589 41.26009679 5.94230031 40.65068269 17 41 C17 41.66 17 42.32 17 43 C17.99 43.33 18.98 43.66 20 44 C20.495 46.97 20.495 46.97 21 50 C8.91870242 54.02709919 -4.38238104 53.02086372 -16 48 C-16.66 47.34 -17.32 46.68 -18 46 C-14.7 46.33 -11.4 46.66 -8 47 C-8 46.34 -8 45.68 -8 45 C-8.53625 44.896875 -9.0725 44.79375 -9.625 44.6875 C-12.62502044 43.81907303 -15.2379535 42.44379704 -18 41 C-17.67 40.34 -17.34 39.68 -17 39 C-16.3709375 39.26554687 -15.741875 39.53109375 -15.09375 39.8046875 C-6.93872596 43.16986308 0.10678223 45.31761492 9 45 C7.15953936 43.15953936 4.04496825 43.5172194 1.5625 43.25 C-10.58451439 41.52701924 -18.19612581 36.45840582 -26 27 C-29.26668313 22.29424941 -31.43321505 18.0741285 -31.0625 12.25 C-29.97298371 6.58251619 -27.51669485 3.20071676 -23 -0.375 C-16.20170465 -3.89135967 -6.88947386 -2.84565225 0 0 Z M15 42 C13.35 42.33 11.7 42.66 10 43 C10 43.33 10 43.66 10 44 C11.98 44 13.96 44 16 44 C15.67 43.34 15.34 42.68 15 42 Z " fill="#37BFD6" transform="translate(75,77)"/>
<path d="M0 0 C0.87914062 0.02449219 1.75828125 0.04898438 2.6640625 0.07421875 C5.1914553 0.25945112 7.5808658 0.75367316 10.0625 1.25 C12.78752965 0.87277985 12.78752965 0.87277985 15.0625 0.25 C15.64 1.03375 16.2175 1.8175 16.8125 2.625 C18.89147637 5.05047244 20.15290333 6.10694417 23.0625 7.25 C23.35125 6.445625 23.64 5.64125 23.9375 4.8125 C25.0625 2.25 25.0625 2.25 27.0625 1.25 C29.06210012 1.210008 31.06297242 1.20653201 33.0625 1.25 C32.7325 3.56 32.4025 5.87 32.0625 8.25 C31.4025 8.25 30.7425 8.25 30.0625 8.25 C28.53950477 11.18720508 27.26149698 14.1668649 26.0625 17.25 C25.7325 17.25 25.4025 17.25 25.0625 17.25 C24.7325 20.22 24.4025 23.19 24.0625 26.25 C22.7425 26.58 21.4225 26.91 20.0625 27.25 C19.39336571 24.40617926 19.06805784 22.18330587 19.3125 19.25 C18.9650408 15.08048959 17.16685371 13.93103275 14.0625 11.25 C12.72916667 9.91666667 11.39583333 8.58333333 10.0625 7.25 C9.19625 7.806875 9.19625 7.806875 8.3125 8.375 C6.0625 9.25 6.0625 9.25 4 8.4375 C3.360625 8.045625 2.72125 7.65375 2.0625 7.25 C1.0725 6.92 0.0825 6.59 -0.9375 6.25 C-1.535625 6.91 -2.13375 7.57 -2.75 8.25 C-4.9375 10.25 -4.9375 10.25 -7.9375 10.25 C-8.2675 11.9 -8.5975 13.55 -8.9375 15.25 C-8.36 15.518125 -7.7825 15.78625 -7.1875 16.0625 C-4.9375 17.25 -4.9375 17.25 -2.875 18.9375 C-2.235625 19.370625 -1.59625 19.80375 -0.9375 20.25 C0.0525 19.92 1.0425 19.59 2.0625 19.25 C3.45689664 19.18334624 4.85419875 19.16461801 6.25 19.1875 C8.1371875 19.2184375 8.1371875 19.2184375 10.0625 19.25 C9.7325 20.9 9.4025 22.55 9.0625 24.25 C8.0725 24.25 7.0825 24.25 6.0625 24.25 C6.0625 24.91 6.0625 25.57 6.0625 26.25 C5.0725 26.25 4.0825 26.25 3.0625 26.25 C2.4025 26.91 1.7425 27.57 1.0625 28.25 C1.0625 27.59 1.0625 26.93 1.0625 26.25 C-0.5153125 26.3428125 -0.5153125 26.3428125 -2.125 26.4375 C-6.95101629 26.20015494 -9.27677864 24.79618886 -12.75 21.5625 C-13.3378125 20.9128125 -13.3378125 20.9128125 -13.9375 20.25 C-13.2775 19.92 -12.6175 19.59 -11.9375 19.25 C-12.2675 18.59 -12.5975 17.93 -12.9375 17.25 C-13.00815617 15.20944995 -13.02171976 13.16665743 -13 11.125 C-12.99097656 10.02929688 -12.98195312 8.93359375 -12.97265625 7.8046875 C-12.96105469 6.96164063 -12.94945312 6.11859375 -12.9375 5.25 C-12.36 4.981875 -11.7825 4.71375 -11.1875 4.4375 C-8.89224547 3.32443894 -8.89224547 3.32443894 -6.99609375 1.640625 C-4.46214487 -0.07111277 -3.02788938 -0.09330938 0 0 Z M-6.9375 18.25 C-6.2775 18.91 -5.6175 19.57 -4.9375 20.25 C-4.9375 19.59 -4.9375 18.93 -4.9375 18.25 C-5.5975 18.25 -6.2575 18.25 -6.9375 18.25 Z M8.0625 21.25 C9.0625 23.25 9.0625 23.25 9.0625 23.25 Z " fill="#100F0F" transform="translate(189.9375,64.75)"/>
<path d="M0 0 C0.66 0 1.32 0 2 0 C3.11823815 2.23647631 3.19396061 3.64891529 3.31640625 6.1328125 C3.35830078 6.93847656 3.40019531 7.74414062 3.44335938 8.57421875 C3.48267578 9.41597656 3.52199219 10.25773437 3.5625 11.125 C3.60568359 11.97449219 3.64886719 12.82398437 3.69335938 13.69921875 C3.79954236 15.79928223 3.90028497 17.89961948 4 20 C8.62 20 13.24 20 18 20 C18 13.73 18 7.46 18 1 C26.415 0.505 26.415 0.505 35 0 C35 0.66 35 1.32 35 2 C36.32 2 37.64 2 39 2 C37.99328314 5.02015057 37.451644 6.09316578 35 8 C31.49064814 8 28.43515002 7.62457273 25 7 C25 8.32 25 9.64 25 11 C27.97 10.34 30.94 9.68 34 9 C34.66 10.65 35.32 12.3 36 14 C32.48812804 16.40814077 30.27343092 17.36629408 26 17 C25.67 17.99 25.34 18.98 25 20 C25.75925781 19.97679688 26.51851563 19.95359375 27.30078125 19.9296875 C28.29464844 19.91164063 29.28851563 19.89359375 30.3125 19.875 C31.29863281 19.85179688 32.28476562 19.82859375 33.30078125 19.8046875 C36 20 36 20 39 22 C38.505 23.485 38.505 23.485 38 25 C37.03175293 25.03758423 37.03175293 25.03758423 36.04394531 25.07592773 C33.11244106 25.19214433 30.18123783 25.31475442 27.25 25.4375 C26.23421875 25.47681641 25.2184375 25.51613281 24.171875 25.55664062 C23.1921875 25.59853516 22.2125 25.64042969 21.203125 25.68359375 C19.85202637 25.73858032 19.85202637 25.73858032 18.47363281 25.79467773 C16.20403661 25.98306407 14.18437113 26.37366501 12 27 C12 26.34 12 25.68 12 25 C11.34773438 25.09539062 10.69546875 25.19078125 10.0234375 25.2890625 C4.78486807 25.95354181 0.95773184 26.21793267 -4 24 C-3.67 22.68 -3.34 21.36 -3 20 C-2.34 20.33 -1.68 20.66 -1 21 C-1.14308594 19.10314453 -1.14308594 19.10314453 -1.2890625 17.16796875 C-1.40161285 15.50785113 -1.51356068 13.84769258 -1.625 12.1875 C-1.68945312 11.35412109 -1.75390625 10.52074219 -1.8203125 9.66210938 C-1.871875 8.85966797 -1.9234375 8.05722656 -1.9765625 7.23046875 C-2.02893066 6.49207764 -2.08129883 5.75368652 -2.13525391 4.99291992 C-2 3 -2 3 0 0 Z M23 18 C24 20 24 20 24 20 Z " fill="#100F10" transform="translate(251,65)"/>
<path d="M0 0 C1.14662109 -0.03867188 1.14662109 -0.03867188 2.31640625 -0.078125 C4.4375 0.25 4.4375 0.25 6.20703125 1.5 C7.7544148 3.70072327 7.72070734 4.83839421 7.5625 7.5 C7.41579424 11.57441904 7.75407511 15.2348788 8.4375 19.25 C9.0975 19.25 9.7575 19.25 10.4375 19.25 C10.4375 20.24 10.4375 21.23 10.4375 22.25 C9.7775 22.25 9.1175 22.25 8.4375 22.25 C8.19 22.889375 7.9425 23.52875 7.6875 24.1875 C6.4375 26.25 6.4375 26.25 4.64453125 26.86328125 C2.35824744 27.26388673 0.19559004 27.45288142 -2.125 27.5 C-2.88941406 27.52578125 -3.65382813 27.5515625 -4.44140625 27.578125 C-7.11826707 27.16402498 -7.9300402 26.3736863 -9.5625 24.25 C-9.8925 23.26 -10.2225 22.27 -10.5625 21.25 C-9.375 19.75 -9.375 19.75 -7.5625 18.25 C-4.875 18.0625 -4.875 18.0625 -2.5625 18.25 C-2.5625 17.59 -2.5625 16.93 -2.5625 16.25 C-3.34625 16.1675 -4.13 16.085 -4.9375 16 C-7.5625 15.25 -7.5625 15.25 -8.8125 13.4375 C-9.06 12.715625 -9.3075 11.99375 -9.5625 11.25 C-9.81 10.63125 -10.0575 10.0125 -10.3125 9.375 C-10.68448513 6.21312643 -9.89527827 4.10595343 -8.5625 1.25 C-5.75077181 0.21699551 -2.97882749 0.06048381 0 0 Z M0.4375 7.25 C0.1075 7.91 -0.2225 8.57 -0.5625 9.25 C0.0975 9.25 0.7575 9.25 1.4375 9.25 C1.1075 8.59 0.7775 7.93 0.4375 7.25 Z M2.4375 7.25 C2.4375 7.91 2.4375 8.57 2.4375 9.25 C3.0975 8.92 3.7575 8.59 4.4375 8.25 C3.7775 7.92 3.1175 7.59 2.4375 7.25 Z M-1.5625 19.25 C-0.9025 19.91 -0.2425 20.57 0.4375 21.25 C0.4375 20.59 0.4375 19.93 0.4375 19.25 C-0.2225 19.25 -0.8825 19.25 -1.5625 19.25 Z " fill="#0F0F0F" transform="translate(382.5625,64.75)"/>
<path d="M0 0 C2.89589652 -0.02706445 5.79153795 -0.04687029 8.6875 -0.0625 C9.91243164 -0.07506836 9.91243164 -0.07506836 11.16210938 -0.08789062 C15.26574287 -0.10450453 18.9848914 0.053954 23 1 C23.99 1 24.98 1 26 1 C27.6875 2.5 27.6875 2.5 29 4 C28.01 4.495 28.01 4.495 27 5 C27.01047363 5.62567871 27.02094727 6.25135742 27.03173828 6.89599609 C27.07323191 9.7222901 27.09930473 12.54852011 27.125 15.375 C27.14175781 16.35984375 27.15851563 17.3446875 27.17578125 18.359375 C27.18222656 19.30039063 27.18867188 20.24140625 27.1953125 21.2109375 C27.20578613 22.08024902 27.21625977 22.94956055 27.22705078 23.84521484 C27 26 27 26 25 28 C24.01 28 23.02 28 22 28 C20.96973056 21.30324864 20.89847201 14.7685324 21 8 C19.0085944 7.61866701 17.00720923 7.28674418 15 7 C12.7977242 9.2022758 13.54767765 14.13675637 13.37890625 17.1171875 C13 20 13 20 11 23 C11.66 23 12.32 23 13 23 C12.67 24.32 12.34 25.64 12 27 C10.35 27 8.7 27 7 27 C6.67 20.73 6.34 14.46 6 8 C4.68 8 3.36 8 2 8 C2 7.34 2 6.68 2 6 C1.01 5.67 0.02 5.34 -1 5 C-0.67 3.35 -0.34 1.7 0 0 Z " fill="#111110" transform="translate(395,65)"/>
<path d="M0 0 C1.65 0.33 3.3 0.66 5 1 C8.56878581 12.21618398 9.22644144 23.40095832 7 35 C5.02 35.495 5.02 35.495 3 36 C-0.56877447 31.34507678 -0.68175995 26.65150436 -1 21 C-1.66 21 -2.32 21 -3 21 C-4.00911458 19.20963542 -5.01822917 17.41927083 -6.02734375 15.62890625 C-6.8972513 14.02121854 -6.8972513 14.02121854 -8 13 C-7.875 9.625 -7.875 9.625 -7 6 C-4.5625 4.25 -4.5625 4.25 -2 3 C-1.34 2.01 -0.68 1.02 0 0 Z " fill="#61C810" transform="translate(121,103)"/>
<path d="M0 0 C0.66 0.33 1.32 0.66 2 1 C2.68772151 14.39783393 -0.67793285 23.44864202 -9.25 33.6875 C-19.13513514 42 -19.13513514 42 -25 42 C-25 41.01 -25 40.02 -25 39 C-22.03 38.01 -19.06 37.02 -16 36 C-16 35.01 -16 34.02 -16 33 C-17.32 33 -18.64 33 -20 33 C-20 32.34 -20 31.68 -20 31 C-19.34 31 -18.68 31 -18 31 C-18 30.34 -18 29.68 -18 29 C-15 27 -15 27 -12.8125 27.375 C-11.9153125 27.684375 -11.9153125 27.684375 -11 28 C-11.66 28 -12.32 28 -13 28 C-13 28.66 -13 29.32 -13 30 C-13.66 30 -14.32 30 -15 30 C-15 30.66 -15 31.32 -15 32 C-12.08482708 30.92598892 -10.22189824 30.22189824 -8 28 C-8 27.01 -8 26.02 -8 25 C-8.7425 25.185625 -9.485 25.37125 -10.25 25.5625 C-12.94990963 25.99203108 -14.44631077 25.85122974 -17 25 C-15 23 -15 23 -12.9375 22.5 C-12.298125 22.335 -11.65875 22.17 -11 22 C-10.67 21.34 -10.34 20.68 -10 20 C-9.01 20 -8.02 20 -7 20 C-7 20.66 -7 21.32 -7 22 C-6.34 22 -5.68 22 -5 22 C-2.62886517 17.03715966 -0.56825653 12.54050113 0 7 C-3.05944018 7.75494504 -3.05944018 7.75494504 -4.8125 9.9375 C-9.23112571 14.10363281 -14.44141269 14.44844089 -20.27734375 14.31640625 C-28.02817577 13.41566394 -34.44505961 10.40480686 -40 5 C-37 4 -37 4 -35.0625 4.7421875 C-34.0415625 5.30292969 -34.0415625 5.30292969 -33 5.875 C-30.63081282 7.15830972 -28.57521017 8.14159661 -26 9 C-26 9.66 -26 10.32 -26 11 C-15.55334489 10.71047546 -15.55334489 10.71047546 -6 7 C-4.77472052 5.04978917 -4.77472052 5.04978917 -4 3 C-1.875 1.25 -1.875 1.25 0 0 Z " fill="#13C7EA" transform="translate(117,76)"/>
<path d="M0 0 C2.58587124 2.58587124 2.4371935 4.1581997 2.875 7.75 C3.65497093 12.95396608 4.69965445 15.95441514 8 20 C8.33 20.66 8.66 21.32 9 22 C5.06850367 20.72492011 3.13613158 19.5602193 1 16 C0.31851351 14.33933797 -0.35005643 12.67325897 -1 11 C-1.02692484 13.29160319 -1.04636124 15.58329546 -1.0625 17.875 C-1.07410156 19.15117188 -1.08570313 20.42734375 -1.09765625 21.7421875 C-1.23176569 24.88664652 -1.23176569 24.88664652 0 27 C0.07033769 28.87379605 0.0843022 30.75001102 0.0625 32.625 C0.05347656 33.62789062 0.04445313 34.63078125 0.03515625 35.6640625 C0.02355469 36.43492188 0.01195312 37.20578125 0 38 C0.66 38.33 1.32 38.66 2 39 C2 39.99 2 40.98 2 42 C5.24849977 40.27773504 5.24849977 40.27773504 6 37 C6.78375 36.236875 7.5675 35.47375 8.375 34.6875 C11.18807504 32.17554776 11.18807504 32.17554776 12.1875 28.75 C14 26 14 26 16.40625 25.3984375 C18.94913991 25.14843428 21.44558013 25.00958507 24 25 C22.71034824 26.37562854 21.37310707 27.70766393 20 29 C19.34 29 18.68 29 18 29 C18 29.66 18 30.32 18 31 C17.319375 31.37125 16.63875 31.7425 15.9375 32.125 C8.26793053 37.02046988 3.57464228 44.6388623 1.41015625 53.3828125 C0.05947876 62.00142124 0.87381796 70.59019068 3 79 C2.01 79.495 2.01 79.495 1 80 C-0.1577506 76.52674819 -0.06866652 73.63932552 0 70 C-0.66 70 -1.32 70 -2 70 C-2.36706108 60.80987806 -1.70968037 52.80646119 1 44 C0.34 43.67 -0.32 43.34 -1 43 C-1.66 42.34 -2.32 41.68 -3 41 C-3 42.65 -3 44.3 -3 46 C-4.485 46.495 -4.485 46.495 -6 47 C-5.59111399 43.56535752 -5.09090533 41.16083251 -3.375 38.125 C-1.36247492 33.55107937 -2.12014872 29.98635655 -3.53515625 25.18359375 C-5.10850862 17.79280405 -4.87417632 9.02576433 -2 2 C-1.34 1.34 -0.68 0.68 0 0 Z " fill="#23C0DD" transform="translate(39,20)"/>
<path d="M0 0 C2.64 0 5.28 0 8 0 C7.01 2.31 6.02 4.62 5 7 C9.455 6.505 9.455 6.505 14 6 C14 6.66 14 7.32 14 8 C15.65 8 17.3 8 19 8 C19 8.66 19 9.32 19 10 C25.90096863 11.08893611 31.21006604 11.11557705 37.80859375 8.69140625 C40 8 40 8 44 8 C44.33 7.34 44.66 6.68 45 6 C46.32 6 47.64 6 49 6 C49.75 7.75 49.75 7.75 50 10 C48.3125 12.25 48.3125 12.25 46 14 C44.68 14 43.36 14 42 14 C42 13.34 42 12.68 42 12 C42.66 12 43.32 12 44 12 C44 11.34 44 10.68 44 10 C42.35 10.33 40.7 10.66 39 11 C39 11.66 39 12.32 39 13 C33.72819129 15.52607501 28.74516743 16.4367486 22.9375 16.875 C21.92913086 16.96672485 21.92913086 16.96672485 20.90039062 17.06030273 C15.71771577 17.36997136 12.47621399 16.40368124 8 14 C7.0625 11.8125 7.0625 11.8125 7 10 C6.01 10.33 5.02 10.66 4 11 C4 10.34 4 9.68 4 9 C1.03 8.505 1.03 8.505 -2 8 C-1.125 2.25 -1.125 2.25 0 0 Z " fill="#17C9EE" transform="translate(60,94)"/>
<path d="M0 0 C1.97956441 0.14033111 3.95865141 0.2874123 5.9375 0.4375 C7.03964844 0.51871094 8.14179688 0.59992188 9.27734375 0.68359375 C12 1 12 1 13 2 C13.36162029 3.32594105 13.69728039 4.65938457 14 6 C12.68 6.33 11.36 6.66 10 7 C10 7.66 10 8.32 10 9 C8 8 8 8 6.1875 6.8125 C3.94337703 5.74263201 3.94337703 5.74263201 1.3125 6.6875 C-1.31822281 7.8397272 -1.31822281 7.8397272 -2 11 C-2.06665376 12.39439664 -2.08538199 13.79169875 -2.0625 15.1875 C-2.041875 16.445625 -2.02125 17.70375 -2 19 C-1.01 19 -0.02 19 1 19 C2.11375 19.185625 3.2275 19.37125 4.375 19.5625 C7.67156365 19.96036113 9.83770998 19.86244273 13 19 C10.56451613 25.69758065 10.56451613 25.69758065 8.25 26.9375 C7.5075 26.958125 6.765 26.97875 6 27 C4.845 27.0825 3.69 27.165 2.5 27.25 C-2.23457404 26.91181614 -3.77095162 25.22904838 -7 22 C-7 21.01 -7 20.02 -7 19 C-7.99 19 -8.98 19 -10 19 C-11.125 13.25 -11.125 13.25 -10 11 C-10.061875 10.21625 -10.12375 9.4325 -10.1875 8.625 C-10 6 -10 6 -8.25 3.75 C-6.03437422 2.0267355 -4.76713408 1.27671341 -2 1 C-1.34 1.33 -0.68 1.66 0 2 C0 1.34 0 0.68 0 0 Z M-5 11 C-4 14 -4 14 -4 14 Z " fill="#111111" transform="translate(234,65)"/>
<path d="M0 0 C3 2 3 2 3.9375 4.375 C5.2121486 7.52413183 6.29347673 8.9344954 9 11 C11.63957217 12.10796857 14.13322268 12.84568072 17 13 C19.19038423 11.62831762 19.19038423 11.62831762 21 10 C23.75 10.3125 23.75 10.3125 26 11 C25.67 11.66 25.34 12.32 25 13 C24.34 13 23.68 13 23 13 C23 13.66 23 14.32 23 15 C21.9275 15.165 20.855 15.33 19.75 15.5 C17.2090322 16.19531513 16.25332087 16.61553875 14.78515625 18.84375 C14.1504128 20.2508921 13.559222 21.67873514 13.01953125 23.125 C11.73140412 25.49396944 10.40307822 25.90283701 8 27 C7.19471111 29.05000871 7.19471111 29.05000871 7 31 C6.34 31 5.68 31 5 31 C4.67 31.66 4.34 32.32 4 33 C2.36368873 29.36301666 1.69216786 26.28423497 1.4375 22.3125 C1.2525248 18.51219962 1.2525248 18.51219962 0 15 C-0.0716735 12.44842345 -0.09308442 9.92527029 -0.0625 7.375 C-0.05798828 6.66859375 -0.05347656 5.9621875 -0.04882812 5.234375 C-0.03703875 3.48954725 -0.01910324 1.744763 0 0 Z " fill="#08CDF7" transform="translate(37,30)"/>
<path d="M0 0 C2.475 0.495 2.475 0.495 5 1 C5 1.66 5 2.32 5 3 C6.32 3.33 7.64 3.66 9 4 C9 4.66 9 5.32 9 6 C10.98 6 12.96 6 15 6 C15 6.99 15 7.98 15 9 C16.36125 9.433125 16.36125 9.433125 17.75 9.875 C20.32202908 10.76531776 22.61346766 11.71494413 25 13 C25 13.66 25 14.32 25 15 C21.37 15 17.74 15 14 15 C13.67 14.34 13.34 13.68 13 13 C11.74316406 13.16371094 10.48632812 13.32742187 9.19140625 13.49609375 C3.76361366 14.09918182 -1.60720338 14.11185202 -7.0625 14.0625 C-8.02349609 14.05798828 -8.98449219 14.05347656 -9.97460938 14.04882812 C-12.31647422 14.03717706 -14.65820181 14.02082025 -17 14 C-17 13.01 -17 12.02 -17 11 C-16.10796875 10.74605469 -15.2159375 10.49210937 -14.296875 10.23046875 C-13.12640625 9.88628906 -11.9559375 9.54210937 -10.75 9.1875 C-9.58984375 8.85105469 -8.4296875 8.51460937 -7.234375 8.16796875 C-4.23288797 7.08409843 -2.22440523 6.27395881 0 4 C0 2.68 0 1.36 0 0 Z " fill="#07CEF8" transform="translate(42,109)"/>
<path d="M0 0 C0.99 1.485 0.99 1.485 2 3 C1.15953125 2.67386719 0.3190625 2.34773438 -0.546875 2.01171875 C-4.28970269 0.91512104 -7.35905633 0.76696768 -11.25 0.8125 C-12.47203125 0.81894531 -13.6940625 0.82539062 -14.953125 0.83203125 C-17.91722201 0.79306844 -17.91722201 0.79306844 -20 2 C-20.19272728 6.14363644 -20.2731723 9.44199119 -18 13 C-14.46485707 14.37967524 -14.46485707 14.37967524 -11 15 C-11 15.66 -11 16.32 -11 17 C-12.32 17 -13.64 17 -15 17 C-15 18.32 -15 19.64 -15 21 C-15.66 21 -16.32 21 -17 21 C-17 21.66 -17 22.32 -17 23 C-17.66 23 -18.32 23 -19 23 C-21 20 -21 20 -21 16 C-21.66 16 -22.32 16 -23 16 C-23.33 14.02 -23.66 12.04 -24 10 C-24.99 10.495 -24.99 10.495 -26 11 C-26.46523063 12.89533342 -26.46523063 12.89533342 -26.625 15.0625 C-26.810625 17.0115625 -26.810625 17.0115625 -27 19 C-26.34 19 -25.68 19 -25 19 C-25 19.66 -25 20.32 -25 21 C-24.34 21 -23.68 21 -23 21 C-23 21.99 -23 22.98 -23 24 C-23.99 23.67 -24.98 23.34 -26 23 C-26 22.34 -26 21.68 -26 21 C-26.99 21 -27.98 21 -29 21 C-31.6223501 16.50744672 -31.16934064 12.94390346 -30 8 C-27.91628794 3.7524331 -25.44870103 0.8915695 -21.1875 -1.3125 C-14.45923187 -3.42709856 -6.46319057 -2.66957871 0 0 Z " fill="#14C7EB" transform="translate(75,77)"/>
<path d="M0 0 C0.99 0.33 1.98 0.66 3 1 C4.06573831 4.30378877 3.95894893 6.6507601 3.125 9.9375 C1.55420095 16.19946917 1.34731292 22.57471103 1 29 C1.66 29 2.32 29 3 29 C3.66 31.97 4.32 34.94 5 38 C5.99 37.505 5.99 37.505 7 37 C7 39.97 7 42.94 7 46 C3.00568735 45.00142184 1.99442316 44.53668716 -0.12109375 41.16015625 C-1.73730509 37.18786792 -2.09367947 32.96349226 -2.60546875 28.73046875 C-2.70857645 26.09185099 -2.70857645 26.09185099 -4 25 C-4.0165911 23.58155387 -3.9633054 22.16212393 -3.87890625 20.74609375 C-3.83056641 19.89208984 -3.78222656 19.03808594 -3.73242188 18.15820312 C-3.67634766 17.26037109 -3.62027344 16.36253906 -3.5625 15.4375 C-3.51029297 14.53580078 -3.45808594 13.63410156 -3.40429688 12.70507812 C-3.27419751 10.4697345 -3.13922064 8.2347911 -3 6 C-2.34 5.67 -1.68 5.34 -1 5 C-0.34444881 2.47266765 -0.34444881 2.47266765 0 0 Z " fill="#0BCCF5" transform="translate(36,61)"/>
<path d="M0 0 C3.65439316 4.38527179 6.08694325 7.84511285 6.8125 13.5625 C6.92207031 14.32691406 7.03164062 15.09132813 7.14453125 15.87890625 C7 18 7 18 5.63671875 19.77734375 C4 21 4 21 2 21 C1.814375 21.763125 1.62875 22.52625 1.4375 23.3125 C-0.15466134 26.28914946 -1.50451563 27.31713571 -4.6484375 28.5078125 C-9.68908701 29.56283217 -14.88071453 29.20785069 -20 29 C-20 28.34 -20 27.68 -20 27 C-20.969375 26.87625 -21.93875 26.7525 -22.9375 26.625 C-24.4534375 26.315625 -24.4534375 26.315625 -26 26 C-26.33 25.34 -26.66 24.68 -27 24 C-25.52031676 24.14049518 -24.04125484 24.28754826 -22.5625 24.4375 C-21.32693359 24.55931641 -21.32693359 24.55931641 -20.06640625 24.68359375 C-18 25 -18 25 -17 26 C-15.48530552 26.23192865 -13.96245438 26.41215238 -12.4375 26.5625 C-11.61121094 26.64628906 -10.78492187 26.73007813 -9.93359375 26.81640625 C-8.97646484 26.90728516 -8.97646484 26.90728516 -8 27 C-8 26.34 -8 25.68 -8 25 C-6.35 25 -4.7 25 -3 25 C-3.11362262 23.5199159 -3.24122908 22.04089926 -3.375 20.5625 C-3.44460937 19.73878906 -3.51421875 18.91507813 -3.5859375 18.06640625 C-3.72257812 17.38449219 -3.85921875 16.70257813 -4 16 C-4.66 15.67 -5.32 15.34 -6 15 C-5.67 14.34 -5.34 13.68 -5 13 C-2.0280615 14.12451727 0.33440687 15.22293791 3 17 C2.88570603 15.22844346 2.75816963 13.45773771 2.625 11.6875 C2.55539063 10.70136719 2.48578125 9.71523437 2.4140625 8.69921875 C2.16134528 5.78471567 2.16134528 5.78471567 0 3 C0 2.01 0 1.02 0 0 Z " fill="#5FC334" transform="translate(111,58)"/>
<path d="M0 0 C1.65 0.33 3.3 0.66 5 1 C8.56878581 12.21618398 9.22644144 23.40095832 7 35 C5.02 35.495 5.02 35.495 3 36 C-0.56877447 31.34507678 -0.68175995 26.65150436 -1 21 C-1.66 21 -2.32 21 -3 21 C-4.00911458 19.20963542 -5.01822917 17.41927083 -6.02734375 15.62890625 C-6.8972513 14.02121854 -6.8972513 14.02121854 -8 13 C-7.875 9.625 -7.875 9.625 -7 6 C-4.5625 4.25 -4.5625 4.25 -2 3 C-1.34 2.01 -0.68 1.02 0 0 Z M-2 4.8125 C-2.721875 5.33457031 -3.44375 5.85664062 -4.1875 6.39453125 C-6.26691492 7.96662297 -6.26691492 7.96662297 -7 11 C-6.360625 11.185625 -5.72125 11.37125 -5.0625 11.5625 C-4.0415625 12.2740625 -4.0415625 12.2740625 -3 13 C-2.61936779 15.3260857 -2.28730055 17.66055264 -2 20 C-0.54166642 21.62514468 -0.54166642 21.62514468 1 23 C1.6875 25.6875 1.6875 25.6875 2 28 C3.32 27.34 4.64 26.68 6 26 C6.08164159 23.3118751 6.14079668 20.626277 6.1875 17.9375 C6.21263672 17.18533203 6.23777344 16.43316406 6.26367188 15.65820312 C6.33282151 10.33368144 5.40669334 6.75653566 3 2 C1.06513252 2 -0.50544105 3.71560048 -2 4.8125 Z " fill="#6DBC24" transform="translate(121,103)"/>
<path d="M0 0 C0.87785156 0.00515625 1.75570312 0.0103125 2.66015625 0.015625 C3.53542969 0.01046875 4.41070312 0.0053125 5.3125 0 C7.72265625 0.265625 7.72265625 0.265625 10.72265625 2.265625 C9.82546875 2.69875 9.82546875 2.69875 8.91015625 3.140625 C6.52937833 4.31304526 6.52937833 4.31304526 3.72265625 6.265625 C3.06265625 6.265625 2.40265625 6.265625 1.72265625 6.265625 C1.39265625 8.905625 1.06265625 11.545625 0.72265625 14.265625 C1.71265625 14.265625 2.70265625 14.265625 3.72265625 14.265625 C3.72265625 14.925625 3.72265625 15.585625 3.72265625 16.265625 C3.06265625 16.925625 2.40265625 17.585625 1.72265625 18.265625 C1.32501362 20.25383813 0.98490276 22.25506839 0.72265625 24.265625 C-0.92734375 23.935625 -2.57734375 23.605625 -4.27734375 23.265625 C-4.33523381 19.80736158 -4.37090196 16.34922207 -4.40234375 12.890625 C-4.41910156 11.90578125 -4.43585938 10.9209375 -4.453125 9.90625 C-4.45957031 8.96523437 -4.46601563 8.02421875 -4.47265625 7.0546875 C-4.48312988 6.18537598 -4.49360352 5.31606445 -4.50439453 4.42041016 C-4.17170468 1.26307616 -3.12096314 0.36402315 0 0 Z " fill="#1A1919" transform="translate(136.27734375,65.734375)"/>
<path d="M0 0 C0.99 0 1.98 0 3 0 C3.26554687 0.73605469 3.53109375 1.47210938 3.8046875 2.23046875 C4.15789062 3.20628906 4.51109375 4.18210937 4.875 5.1875 C5.39707031 6.63189453 5.39707031 6.63189453 5.9296875 8.10546875 C6.62488025 9.9855338 7.37774722 11.84561061 8.1953125 13.67578125 C9 16 9 16 8 19 C7.01 19.33 6.02 19.66 5 20 C4.67 19.67 4.34 19.34 4 19 C2.65252916 18.76924918 1.29622435 18.58846937 -0.0625 18.4375 C-1.361875 18.293125 -2.66125 18.14875 -4 18 C-4.23506884 12.4758822 -3.7426156 7.28163124 -2 2 C-1.34 1.34 -0.68 0.68 0 0 Z " fill="#82BB48" transform="translate(78,10)"/>
<path d="M0 0 C0.99773437 0.02320313 1.99546875 0.04640625 3.0234375 0.0703125 C4.52777344 0.09738281 4.52777344 0.09738281 6.0625 0.125 C6.83335938 0.14820313 7.60421875 0.17140625 8.3984375 0.1953125 C9.89672622 4.07767069 8.82954332 6.62980538 7.4609375 10.4453125 C7.08066406 11.52296875 6.70039062 12.600625 6.30859375 13.7109375 C6.00824219 14.53078125 5.70789063 15.350625 5.3984375 16.1953125 C3.07421875 16.10546875 3.07421875 16.10546875 0.3984375 15.1953125 C-1.18359375 12.25390625 -1.18359375 12.25390625 -2.4140625 8.6328125 C-2.83300781 7.43527344 -3.25195312 6.23773438 -3.68359375 5.00390625 C-3.98652344 4.07707031 -4.28945312 3.15023437 -4.6015625 2.1953125 C-2.6015625 0.1953125 -2.6015625 0.1953125 0 0 Z " fill="#7FBC3B" transform="translate(78.6015625,132.8046875)"/>
<path d="M0 0 C1.21724428 3.95604392 1.89679663 8.20640675 0 12 C-1.89600369 11.68853528 -3.79179587 11.37578283 -5.6875 11.0625 C-6.74324219 10.88847656 -7.79898437 10.71445313 -8.88671875 10.53515625 C-11.60249604 10.06832879 -14.30124235 9.55577384 -17 9 C-16.86328125 7.20703125 -16.86328125 7.20703125 -16 5 C-13.41796875 3.26171875 -13.41796875 3.26171875 -10.1875 1.6875 C-9.12917969 1.15511719 -8.07085937 0.62273437 -6.98046875 0.07421875 C-3.98311202 -1.00608676 -2.88311938 -1.19373708 0 0 Z " fill="#79B44F" transform="translate(23,75)"/>
<path d="M0 0 C2.36053997 2.16382831 3.76162174 4.24241487 5.25 7.0625 C2.30043472 5.69305898 -0.27468811 4.18419591 -2.75 2.0625 C-2.75 1.4025 -2.75 0.7425 -2.75 0.0625 C-3.33587891 -0.06060547 -3.92175781 -0.18371094 -4.52539062 -0.31054688 C-6.75531579 -0.93899813 -8.35778239 -1.79590096 -10.34375 -2.96875 C-15.27967883 -5.49155807 -19.79174948 -5.53147275 -25.25 -5.4375 C-26.59771484 -5.46070313 -26.59771484 -5.46070313 -27.97265625 -5.484375 C-36.73323295 -5.43336728 -42.09050245 -2.4217921 -48.75 3.0625 C-49.41 3.0625 -50.07 3.0625 -50.75 3.0625 C-50.75 3.7225 -50.75 4.3825 -50.75 5.0625 C-51.74 5.3925 -52.73 5.7225 -53.75 6.0625 C-53.49433121 2.61097139 -52.48802926 1.81761431 -49.875 -0.625 C-46.75 -2.9375 -46.75 -2.9375 -43.75 -3.9375 C-43.42 -4.5975 -43.09 -5.2575 -42.75 -5.9375 C-26.82455512 -10.6481472 -13.68445232 -9.64131868 0 0 Z " fill="#5BAE63" transform="translate(105.75,50.9375)"/>
<path d="M0 0 C1.9375 0.75 1.9375 0.75 4 2 C4.75 4.125 4.75 4.125 5 6 C5.66 6 6.32 6 7 6 C7 6.99 7 7.98 7 9 C6.34 9 5.68 9 5 9 C4.7525 9.639375 4.505 10.27875 4.25 10.9375 C3 13 3 13 1.20703125 13.61328125 C-1.07925256 14.01388673 -3.24190996 14.20288142 -5.5625 14.25 C-6.32691406 14.27578125 -7.09132813 14.3015625 -7.87890625 14.328125 C-10.55576707 13.91402498 -11.3675402 13.1236863 -13 11 C-13.33 10.01 -13.66 9.02 -14 8 C-12.625 6.5 -12.625 6.5 -11 5 C-10.34 5 -9.68 5 -9 5 C-8.67 5.66 -8.34 6.32 -8 7 C-5.69 7 -3.38 7 -1 7 C-1 6.01 -1 5.02 -1 4 C-0.6937566 2.66018514 -0.36548445 1.32488113 0 0 Z " fill="#111111" transform="translate(386,78)"/>
<path d="M0 0 C0.66 0.33 1.32 0.66 2 1 C2 4.63 2 8.26 2 12 C1.67 12 1.34 12 1 12 C1 9.36 1 6.72 1 4 C0.34 4 -0.32 4 -1 4 C-1.2475 4.5775 -1.495 5.155 -1.75 5.75 C-3.75980138 9.36764248 -5.8750012 11.46428628 -9.625 13.25 C-18.43900977 15.20866884 -25.89860703 13.96828795 -34 10 C-36.25338072 8.46735377 -38.03794646 6.90902506 -40 5 C-37 4 -37 4 -35.0625 4.7421875 C-34.0415625 5.30292969 -34.0415625 5.30292969 -33 5.875 C-30.63081282 7.15830972 -28.57521017 8.14159661 -26 9 C-26 9.66 -26 10.32 -26 11 C-15.55334489 10.71047546 -15.55334489 10.71047546 -6 7 C-4.77472052 5.04978917 -4.77472052 5.04978917 -4 3 C-1.875 1.25 -1.875 1.25 0 0 Z " fill="#32B495" transform="translate(117,76)"/>
<path d="M0 0 C1.77049689 -0.05410687 3.54146849 -0.09284119 5.3125 -0.125 C6.29863281 -0.14820312 7.28476562 -0.17140625 8.30078125 -0.1953125 C11 0 11 0 14 2 C15.1875 4.125 15.1875 4.125 16 6 C15.01 7.32 14.02 8.64 13 10 C12.34 9.01 11.68 8.02 11 7 C7.93443402 6.26656572 7.93443402 6.26656572 5 6 C4.67 6.99 4.34 7.98 4 9 C3.34 9.66 2.68 10.32 2 11 C2 10.34 2 9.68 2 9 C1.34 9 0.68 9 0 9 C0 13.29 0 17.58 0 22 C-0.33 22 -0.66 22 -1 22 C-1.02895225 18.70835171 -1.0467823 15.41673601 -1.0625 12.125 C-1.07506836 10.71927734 -1.07506836 10.71927734 -1.08789062 9.28515625 C-1.09111328 8.38925781 -1.09433594 7.49335937 -1.09765625 6.5703125 C-1.10289307 5.74289551 -1.10812988 4.91547852 -1.11352539 4.06298828 C-1 2 -1 2 0 0 Z " fill="#0D0C0D" transform="translate(304,66)"/>
<path d="M0 0 C3.20277977 1.96453035 4.99393106 4.19786972 7.1015625 7.2890625 C2.6885833 6.1858177 -0.32032675 5.03228074 -3.8984375 2.2890625 C-10.46805189 0.62384774 -18.71210054 -0.31300938 -24.8984375 2.9140625 C-28.05949517 5.41656649 -29.80398122 7.8758745 -31.8984375 11.2890625 C-32.5584375 11.2890625 -33.2184375 11.2890625 -33.8984375 11.2890625 C-35.25283418 8.58026915 -34.96345201 6.27972982 -34.8984375 3.2890625 C-33.9084375 4.6090625 -32.9184375 5.9290625 -31.8984375 7.2890625 C-31.1971875 6.1959375 -30.4959375 5.1028125 -29.7734375 3.9765625 C-22.77455238 -5.57440227 -9.97895126 -4.51815709 0 0 Z " fill="#46B024" transform="translate(76.8984375,74.7109375)"/>
<path d="M0 0 C0.495 0.99 0.495 0.99 1 2 C-0.20914063 1.7834375 -1.41828125 1.566875 -2.6640625 1.34375 C-14.8328813 -0.75673082 -26.71665702 -2.33968438 -39 0 C-39 0.66 -39 1.32 -39 2 C-40.5778125 2.433125 -40.5778125 2.433125 -42.1875 2.875 C-45.87309321 3.86041151 -45.87309321 3.86041151 -48.6875 5.25 C-51 6 -51 6 -53.14453125 5.046875 C-53.75683594 4.70140625 -54.36914062 4.3559375 -55 4 C-52.27309923 2.84850828 -49.54371696 1.70367078 -46.8125 0.5625 C-46.04357422 0.23701172 -45.27464844 -0.08847656 -44.48242188 -0.42382812 C-30.39536532 -6.28839673 -14.1651751 -5.52099285 0 0 Z " fill="#33BBD4" transform="translate(103,38)"/>
<path d="M0 0 C2.58587124 2.58587124 2.4371935 4.1581997 2.875 7.75 C3.65497093 12.95396608 4.69965445 15.95441514 8 20 C8.33 20.66 8.66 21.32 9 22 C5.06850367 20.72492011 3.13613158 19.5602193 1 16 C0.31851351 14.33933797 -0.35005643 12.67325897 -1 11 C-1.02692484 13.29160319 -1.04636124 15.58329546 -1.0625 17.875 C-1.07410156 19.15117188 -1.08570313 20.42734375 -1.09765625 21.7421875 C-1.23176569 24.88664652 -1.23176569 24.88664652 0 27 C0.06996014 28.70702735 0.08440154 30.41668003 0.0625 32.125 C0.05347656 33.03507812 0.04445313 33.94515625 0.03515625 34.8828125 C0.02355469 35.58148438 0.01195312 36.28015625 0 37 C-0.66 37 -1.32 37 -2 37 C-1.95875 35.989375 -1.9175 34.97875 -1.875 33.9375 C-1.81323329 30.08748097 -1.81323329 30.08748097 -3 26.9375 C-5.43890496 19.25494939 -5.0479264 9.45048675 -2 2 C-1.34 1.34 -0.68 0.68 0 0 Z " fill="#2CB9D3" transform="translate(39,20)"/>
<path d="M0 0 C0.33 0.99 0.66 1.98 1 3 C3.84979639 4.11680706 3.84979639 4.11680706 7 5 C8.34721283 5.63815344 9.68747118 6.29325371 11 7 C11 7.66 11 8.32 11 9 C7.37 9 3.74 9 0 9 C-0.33 8.34 -0.66 7.68 -1 7 C-2.25683594 7.16371094 -3.51367188 7.32742187 -4.80859375 7.49609375 C-10.23638634 8.09918182 -15.60720338 8.11185202 -21.0625 8.0625 C-22.02349609 8.05798828 -22.98449219 8.05347656 -23.97460938 8.04882812 C-26.31647422 8.03717706 -28.65820181 8.02082025 -31 8 C-31 7.01 -31 6.02 -31 5 C-29.21089097 4.47044766 -27.41860852 3.9516063 -25.625 3.4375 C-24.62726562 3.14746094 -23.62953125 2.85742188 -22.6015625 2.55859375 C-20 2 -20 2 -18 3 C-19.2065625 3.433125 -19.2065625 3.433125 -20.4375 3.875 C-23.1326468 4.73262568 -23.1326468 4.73262568 -24 7 C-22.02043559 6.85966889 -20.04134859 6.7125877 -18.0625 6.5625 C-16.96035156 6.48128906 -15.85820313 6.40007812 -14.72265625 6.31640625 C-12.08890097 6.29581916 -12.08890097 6.29581916 -11 5 C-9.48071962 4.92820036 -7.95832518 4.91607993 -6.4375 4.9375 C-5.61121094 4.94652344 -4.78492187 4.95554687 -3.93359375 4.96484375 C-3.29550781 4.97644531 -2.65742187 4.98804687 -2 5 C-2 4.34 -2 3.68 -2 3 C-2.66 2.67 -3.32 2.34 -4 2 C-2.68 1.34 -1.36 0.68 0 0 Z " fill="#13C9EE" transform="translate(56,115)"/>
<path d="M0 0 C0.99 1.485 0.99 1.485 2 3 C1.15566406 2.67515625 0.31132813 2.3503125 -0.55859375 2.015625 C-4.23249314 0.93138681 -7.24056131 0.73336479 -11.0625 0.75 C-12.84333984 0.74226563 -12.84333984 0.74226563 -14.66015625 0.734375 C-17.87488113 0.99004903 -20.1087086 1.62267404 -23 3 C-23 4.65 -23 6.3 -23 8 C-23.9590625 8.3403125 -23.9590625 8.3403125 -24.9375 8.6875 C-27.20463943 9.82567752 -27.20463943 9.82567752 -27.75 12.25 C-28.0167323 15.18405528 -28.06847898 18.05540397 -28 21 C-30.02367105 19.13822264 -30.95931337 17.71472851 -31.1171875 14.94140625 C-30.70830024 9.67031613 -29.58014431 6.05121593 -26 2 C-18.60422356 -3.85498968 -8.53207348 -3.52411731 0 0 Z " fill="#2EB595" transform="translate(75,77)"/>
<path d="M0 0 C0.61875 0.185625 1.2375 0.37125 1.875 0.5625 C4.04160178 1.23686176 4.04160178 1.23686176 6 0 C5.63487253 2.7019433 5.30130763 4.58390852 3.6875 6.8125 C2 8 2 8 -2 8 C-2 7.34 -2 6.68 -2 6 C-1.34 6 -0.68 6 0 6 C0 5.34 0 4.68 0 4 C-1.65 4.33 -3.3 4.66 -5 5 C-5 5.66 -5 6.32 -5 7 C-11.65594553 9.94397591 -17.75841435 10.64999003 -25 11 C-25 10.34 -25 9.68 -25 9 C-21.7 9 -18.4 9 -15 9 C-15 8.34 -15 7.68 -15 7 C-17.31 7 -19.62 7 -22 7 C-22 6.67 -22 6.34 -22 6 C-21.3709375 5.87882812 -20.741875 5.75765625 -20.09375 5.6328125 C-15.90599262 4.81292024 -11.75162251 3.96505123 -7.625 2.875 C-4 2 -4 2 0 2 C0 1.34 0 0.68 0 0 Z " fill="#14C1E5" transform="translate(104,100)"/>
<path d="M0 0 C3 1 3 1 5 4 C6.2065625 4.185625 6.2065625 4.185625 7.4375 4.375 C10 5 10 5 11.8125 7.5625 C12.204375 8.366875 12.59625 9.17125 13 10 C14.65 9.67 16.3 9.34 18 9 C18.66 11.97 19.32 14.94 20 18 C16.7 17.34 13.4 16.68 10 16 C10 14.02 10 12.04 10 10 C5.80491562 7.75263337 2.79167039 7 -2 7 C-2 6.34 -2 5.68 -2 5 C-1.01 4.34 -0.02 3.68 1 3 C0.67 2.01 0.34 1.02 0 0 Z " fill="#71C322" transform="translate(86,53)"/>
<path d="M0 0 C0 3 0 3 -1.14453125 4.61328125 C-3.60026663 6.44862032 -5.6715758 6.72624101 -8.6875 7.1875 C-9.68136719 7.34605469 -10.67523438 7.50460938 -11.69921875 7.66796875 C-12.45847656 7.77753906 -13.21773437 7.88710937 -14 8 C-14 8.99 -14 9.98 -14 11 C-10.68727224 10.85908107 -7.37488029 10.71134606 -4.0625 10.5625 C-3.13630859 10.52318359 -2.21011719 10.48386719 -1.25585938 10.44335938 C4.53513419 10.17920879 10.24539503 9.70235691 16 9 C16.495 9.99 16.495 9.99 17 11 C-8.08388668 14.22695275 -8.08388668 14.22695275 -20 11 C-20.66 10.01 -21.32 9.02 -22 8 C-18.33598748 6.65010065 -14.77023205 5.74425652 -10.9375 5.0625 C-6.67408795 4.25347904 -3.15085911 3.15085911 0 0 Z " fill="#3CC0D7" transform="translate(39,112)"/>
<path d="M0 0 C3.3 0.33 6.6 0.66 10 1 C10 1.66 10 2.32 10 3 C8.35 3.33 6.7 3.66 5 4 C4.67 4.99 4.34 5.98 4 7 C6.97 7.99 9.94 8.98 13 10 C13 9.34 13 8.68 13 8 C15.64 7.67 18.28 7.34 21 7 C17.76478258 9.48862878 14.40739705 11.75421558 11 14 C7.69918209 12.38102741 4.47442567 10.64075691 1.25 8.875 C-0.22726563 8.06675781 -0.22726563 8.06675781 -1.734375 7.2421875 C-2.85585937 6.62730469 -2.85585937 6.62730469 -4 6 C-0.25 4 -0.25 4 2 4 C1.34 2.68 0.68 1.36 0 0 Z " fill="#2EC0D8" transform="translate(105,40)"/>
<path d="M0 0 C-0.99 0.33 -1.98 0.66 -3 1 C-2.34 2.98 -1.68 4.96 -1 7 C-4 9 -4 9 -7 9 C-7.2475 9.5775 -7.495 10.155 -7.75 10.75 C-9.16683317 13.3002997 -10.87627537 15.01785701 -13 17 C-14.0494188 13.85174359 -13.98655124 13.01298497 -13.1875 9.9375 C-13.01605469 9.24527344 -12.84460937 8.55304688 -12.66796875 7.83984375 C-12 6 -12 6 -10 4 C-10 4.66 -10 5.32 -10 6 C-9.34 6 -8.68 6 -8 6 C-7.7525 5.21625 -7.505 4.4325 -7.25 3.625 C-6 1 -6 1 -4 -0.375 C-2 -1 -2 -1 0 0 Z " fill="#5FC811" transform="translate(57,66)"/>
<path d="M0 0 C3.65439316 4.38527179 6.08694325 7.84511285 6.8125 13.5625 C6.92207031 14.32691406 7.03164062 15.09132813 7.14453125 15.87890625 C7 18 7 18 5.63671875 19.77734375 C4 21 4 21 2 21 C1.01 23.475 1.01 23.475 0 26 C-0.99 26 -1.98 26 -3 26 C-2.67 23.36 -2.34 20.72 -2 18 C-0.35 18 1.3 18 3 18 C2.8858134 16.06183265 2.75826577 14.12444901 2.625 12.1875 C2.52058594 10.56908203 2.52058594 10.56908203 2.4140625 8.91796875 C2.18804267 5.81373814 2.18804267 5.81373814 0 3 C0 2.01 0 1.02 0 0 Z " fill="#61BD48" transform="translate(111,58)"/>
<path d="M0 0 C3 3.75 3 3.75 3 6 C3.66 6 4.32 6 5 6 C5.33 7.32 5.66 8.64 6 10 C6.66 10 7.32 10 8 10 C8 10.66 8 11.32 8 12 C8.639375 12.28875 9.27875 12.5775 9.9375 12.875 C12 14 12 14 13 16 C10.525 15.505 10.525 15.505 8 15 C8 14.34 8 13.68 8 13 C7.360625 12.87625 6.72125 12.7525 6.0625 12.625 C5.381875 12.41875 4.70125 12.2125 4 12 C3.67 11.34 3.34 10.68 3 10 C2.01 10 1.02 10 0 10 C-0.0825 10.61875 -0.165 11.2375 -0.25 11.875 C-1 14 -1 14 -3.0625 15.25 C-3.701875 15.4975 -4.34125 15.745 -5 16 C-4.46274105 12.62294375 -3.88935377 9.303314 -3 6 C-2.01 6.33 -1.02 6.66 0 7 C0 4.69 0 2.38 0 0 Z " fill="#23C2E6" transform="translate(43,100)"/>
<path d="M0 0 C0 0.99 0 1.98 0 3 C-5.61 3.99 -11.22 4.98 -17 6 C-16 4 -16 4 -7 1 C-13.93 0.67 -20.86 0.34 -28 0 C-28 -0.33 -28 -0.66 -28 -1 C-18.8890992 -2.73540968 -8.76644858 -3.33959946 0 0 Z " fill="#43B9CF" transform="translate(143,41)"/>
<path d="M0 0 C1.65 0.33 3.3 0.66 5 1 C6.59138085 5.17737474 7.21278058 8.53160785 7 13 C5.26337666 9.77484237 4.1094072 6.48670834 3 3 C2.071875 3.639375 1.14375 4.27875 0.1875 4.9375 C-3 7 -3 7 -6 8 C-6 8.99 -6 9.98 -6 11 C-5.360625 11.165 -4.72125 11.33 -4.0625 11.5 C-2 13 -2 13 -1.51171875 14.9140625 C-1.2724022 16.93575155 -1.13106972 18.96841939 -1 21 C-1.66 21 -2.32 21 -3 21 C-4.00911458 19.20963542 -5.01822917 17.41927083 -6.02734375 15.62890625 C-6.8972513 14.02121854 -6.8972513 14.02121854 -8 13 C-7.875 9.625 -7.875 9.625 -7 6 C-4.5625 4.25 -4.5625 4.25 -2 3 C-1.34 2.01 -0.68 1.02 0 0 Z " fill="#87BA52" transform="translate(121,103)"/>
<path d="M0 0 C7.26 0.33 14.52 0.66 22 1 C21.67 1.99 21.34 2.98 21 4 C13.41 4 5.82 4 -2 4 C-1.34 2.68 -0.68 1.36 0 0 Z " fill="#14C6ED" transform="translate(70,123)"/>
<path d="M0 0 C2.31 0 4.62 0 7 0 C7 2.97 7 5.94 7 9 C5.04020573 8.71831703 3.08217622 8.42433283 1.125 8.125 C-0.51082031 7.88136719 -0.51082031 7.88136719 -2.1796875 7.6328125 C-5 7 -5 7 -7 5 C-4.35261084 3.5393715 -3.10551666 3 0 3 C0 2.01 0 1.02 0 0 Z " fill="#66BE21" transform="translate(15,76)"/>
<path d="M0 0 C2.87255066 2.42195448 3.70838919 4.59742703 4.6875 8.1875 C5.06455078 9.53908203 5.06455078 9.53908203 5.44921875 10.91796875 C5.63097656 11.60503906 5.81273438 12.29210938 6 13 C5 14 5 14 3.15234375 14.09765625 C1.1015625 14.06510417 -0.94921875 14.03255208 -3 14 C-2.69249629 11.85344499 -2.3788634 9.70776715 -2.0625 7.5625 C-1.88847656 6.36753906 -1.71445313 5.17257813 -1.53515625 3.94140625 C-1 1 -1 1 0 0 Z " fill="#64C418" transform="translate(78,12)"/>
<path d="M0 0 C2.97 0 5.94 0 9 0 C8.01 3.96 7.02 7.92 6 12 C3 11 3 11 1.3125 8.25 C0.06049331 5.14979295 -0.28970125 3.28328088 0 0 Z " fill="#63C411" transform="translate(77,135)"/>
<path d="M0 0 C0.66 0.66 1.32 1.32 2 2 C1.98252112 4.59269983 1.86231408 7.0525154 1.625 9.625 C1.56828125 10.33140625 1.5115625 11.0378125 1.453125 11.765625 C1.31159079 13.51121361 1.15702613 15.25573673 1 17 C-0.32 17.33 -1.64 17.66 -3 18 C-4.10474091 13.58103637 -4.07302921 9.52781117 -4 5 C-4 4.01 -4 3.02 -4 2 C-3.01 2 -2.02 2 -1 2 C-0.67 1.34 -0.34 0.68 0 0 Z " fill="#141414" transform="translate(213,74)"/>
<path d="M0 0 C1.0625 1.8125 1.0625 1.8125 2 4 C1.67 4.99 1.34 5.98 1 7 C1.66 7.33 2.32 7.66 3 8 C0.97882713 10.52646608 -1.02579306 13.02874084 -3.1875 15.4375 C-5.24791505 18.35050059 -5.67279519 20.48254828 -6 24 C-8.24420359 20.63369462 -8.2307106 20.25098106 -7.5 16.5 C-6.14989928 10.39754474 -3.2094022 5.30863383 0 0 Z " fill="#66BF3D" transform="translate(50,56)"/>
<path d="M0 0 C0.92876953 -0.00773437 1.85753906 -0.01546875 2.81445312 -0.0234375 C9.70348432 -0.0038246 15.1316738 0.65468553 20.5625 5.25 C17.08556735 4.71508728 13.67241326 4.05456733 10.25 3.25 C5.7031729 2.21381831 1.20292297 1.69194504 -3.4375 1.25 C-3.4375 1.91 -3.4375 2.57 -3.4375 3.25 C-4.32501953 3.34087891 -4.32501953 3.34087891 -5.23046875 3.43359375 C-9.34728208 3.87012371 -13.39294533 4.33671346 -17.4375 5.25 C-13.26338408 -1.01117389 -6.85353604 -0.05683651 0 0 Z " fill="#3CB8C1" transform="translate(80.4375,39.75)"/>
<path d="M0 0 C1.43655854 -0.08131463 2.8744483 -0.13933559 4.3125 -0.1875 C5.51326172 -0.23970703 5.51326172 -0.23970703 6.73828125 -0.29296875 C9 0 9 0 10.8125 1.34375 C12 3 12 3 11.6875 5.6875 C11.460625 6.450625 11.23375 7.21375 11 8 C7.7 7.67 4.4 7.34 1 7 C0 3 0 3 0 0 Z " fill="#0F0E0F" transform="translate(378,65)"/>
<path d="M0 0 C-1.28965176 1.37562854 -2.62689293 2.70766393 -4 4 C-4.66 4 -5.32 4 -6 4 C-6 4.66 -6 5.32 -6 6 C-6.680625 6.37125 -7.36125 6.7425 -8.0625 7.125 C-11.55707286 9.35557842 -13.79995072 12.00570629 -16.44921875 15.16015625 C-18 17 -18 17 -20 19 C-18.40569395 12.39501779 -18.40569395 12.39501779 -15.625 9.6875 C-12.84553269 7.14172213 -12.84553269 7.14172213 -11.5 3.75 C-10 1 -10 1 -7.625 0.125 C-5.07502875 0.0035728 -2.55210945 -0.07291741 0 0 Z " fill="#14C8E6" transform="translate(63,45)"/>
<path d="M0 0 C1.34106208 6.46148093 1.34106208 6.46148093 -0.1875 8.875 C-2.25700196 10.15951846 -3.56264016 10.78493884 -6 11 C-8.75 10.0625 -8.75 10.0625 -11 9 C-11 7.68 -11 6.36 -11 5 C-8.525 5.495 -8.525 5.495 -6 6 C-5.814375 4.7934375 -5.814375 4.7934375 -5.625 3.5625 C-5.41875 2.716875 -5.2125 1.87125 -5 1 C-3 0 -3 0 0 0 Z M-9 6 C-8 8 -8 8 -8 8 Z " fill="#0E0D0D" transform="translate(466,66)"/>
<path d="M0 0 C0.66 0.33 1.32 0.66 2 1 C2 4.63 2 8.26 2 12 C1.67 12 1.34 12 1 12 C1 9.36 1 6.72 1 4 C0.34 4 -0.32 4 -1 4 C-1.2475 4.5775 -1.495 5.155 -1.75 5.75 C-3.75980138 9.36764248 -5.8750012 11.46428628 -9.625 13.25 C-14.11948223 14.24877383 -18.41651652 14.16304882 -23 14 C-23 13.67 -23 13.34 -23 13 C-16.07 12.01 -16.07 12.01 -9 11 C-9 10.34 -9 9.68 -9 9 C-7.7151049 7.61992749 -6.36984198 6.29579647 -5 5 C-4.0925 4.0925 -3.185 3.185 -2.25 2.25 C-1.5075 1.5075 -0.765 0.765 0 0 Z " fill="#14A6B7" transform="translate(117,76)"/>
<path d="M0 0 C3.20815845 -0.08774066 6.41600462 -0.14063706 9.625 -0.1875 C10.52863281 -0.21263672 11.43226562 -0.23777344 12.36328125 -0.26367188 C21.36094917 -0.36218649 27.34029545 3.11946618 34 9 C36 11.875 36 11.875 37 14 C34.05043472 12.63055898 31.47531189 11.12169591 29 9 C29 8.34 29 7.68 29 7 C28.40574219 6.87625 27.81148437 6.7525 27.19921875 6.625 C25 6 25 6 21.8125 4 C15.26134434 0.54279357 7.23369472 1.16440215 0 1 C0 0.67 0 0.34 0 0 Z " fill="#6DBA52" transform="translate(74,44)"/>
<path d="M0 0 C0.33 0.66 0.66 1.32 1 2 C2.32 1.67 3.64 1.34 5 1 C5 1.66 5 2.32 5 3 C5.66 3 6.32 3 7 3 C7 3.66 7 4.32 7 5 C5.35 4.67 3.7 4.34 2 4 C1.67 5.32 1.34 6.64 1 8 C2.32 8.66 3.64 9.32 5 10 C5 10.66 5 11.32 5 12 C6.65 12.33 8.3 12.66 10 13 C10 13.66 10 14.32 10 15 C6.80961017 14.92403834 4.68285912 14.61211245 2.265625 12.4453125 C-2 7.55 -2 7.55 -2 5 C-2.99 5 -3.98 5 -5 5 C-4.67 3.68 -4.34 2.36 -4 1 C-2.02 1.495 -2.02 1.495 0 2 C0 1.34 0 0.68 0 0 Z " fill="#0ACBF5" transform="translate(57,100)"/>
<path d="M0 0 C0.99 0.33 1.98 0.66 3 1 C3 1.66 3 2.32 3 3 C5.31 2.01 7.62 1.02 10 0 C10 3 10 3 8.6875 4.625 C7 6 7 6 4 7 C4 9.97 4 12.94 4 16 C0.63590717 12.63590717 0.56539605 11.52316837 0 7 C-0.33 6.01 -0.66 5.02 -1 4 C-1.66 3.67 -2.32 3.34 -3 3 C-2.01 2.01 -1.02 1.02 0 0 Z " fill="#0A0A0A" transform="translate(228,67)"/>
<path d="M0 0 C0.845625 0.00644531 1.69125 0.01289062 2.5625 0.01953125 C4.86420877 0.17814259 6.82274718 0.4264249 9 1.1875 C10.25 3.25 10.25 3.25 11 5.1875 C8 7.1875 8 7.1875 5.9375 6.875 C4 6.1875 4 6.1875 2 5.1875 C2 4.5275 2 3.8675 2 3.1875 C-1.21717892 2.11510703 -2.05283612 2.25140515 -5.1875 3.125 C-6.445625 3.475625 -7.70375 3.82625 -9 4.1875 C-9 3.5275 -9 2.8675 -9 2.1875 C-5.87186463 0.35551331 -3.60914709 -0.06051923 0 0 Z " fill="#0B0B0A" transform="translate(362,84.8125)"/>
<path d="M0 0 C0.99 0.33 1.98 0.66 3 1 C4.55140992 6.17136639 4.44354178 13.11291645 2 18 C1.34 18 0.68 18 0 18 C-0.07347656 16.75283203 -0.07347656 16.75283203 -0.1484375 15.48046875 C-0.22320312 14.39378906 -0.29796875 13.30710937 -0.375 12.1875 C-0.44460938 11.10855469 -0.51421875 10.02960938 -0.5859375 8.91796875 C-0.81195733 5.81373814 -0.81195733 5.81373814 -3 3 C-2.01 2.01 -1.02 1.02 0 0 Z " fill="#101010" transform="translate(328,65)"/>
<path d="M0 0 C0 1.32 0 2.64 0 4 C-4.62 4 -9.24 4 -14 4 C-12 0 -12 0 -9.8125 -0.8125 C-6.41630536 -1.03891298 -3.34412227 -0.59013922 0 0 Z " fill="#131313" transform="translate(289,86)"/>
<path d="M0 0 C0.928125 -0.01160156 1.85625 -0.02320313 2.8125 -0.03515625 C7.81553086 -0.01365325 11.30081192 0.12596394 15.375 3.375 C12.76050342 4.68224829 11.74758325 4.12540838 8.9375 3.4375 C-0.02043534 1.56857824 -7.15615831 1.58437272 -15.53125 5.5 C-17.625 6.375 -17.625 6.375 -20.625 6.375 C-15.36230981 -0.12597024 -7.66083722 -0.09656518 0 0 Z " fill="#64C322" transform="translate(80.625,44.625)"/>
<path d="M0 0 C0 6 0 6 -1.125 7.5625 C-3.57245046 9.43887869 -6.05734424 10.14989945 -9 11 C-9 8.36 -9 5.72 -9 3 C-7.68 3.33 -6.36 3.66 -5 4 C-5 3.34 -5 2.68 -5 2 C-2 0 -2 0 0 0 Z " fill="#60C51D" transform="translate(60,52)"/>
<path d="M0 0 C0.33 1.98 0.66 3.96 1 6 C-0.65 6 -2.3 6 -4 6 C-3.67 5.01 -3.34 4.02 -3 3 C-8.28 3 -13.56 3 -19 3 C-19 2.67 -19 2.34 -19 2 C-16.03 2 -13.06 2 -10 2 C-10 1.34 -10 0.68 -10 0 C-6.33694766 -0.74926071 -3.57644848 -1.2380014 0 0 Z " fill="#42B9CA" transform="translate(95,121)"/>
<path d="M0 0 C2.74526635 1.37263317 3.44355648 3.40592747 5 6 C5.66 6.33 6.32 6.66 7 7 C7 7.66 7 8.32 7 9 C7.66 9.33 8.32 9.66 9 10 C7.824375 9.9071875 7.824375 9.9071875 6.625 9.8125 C5.325625 9.9053125 5.325625 9.9053125 4 10 C3.01 11.485 3.01 11.485 2 13 C2.33 13.66 2.66 14.32 3 15 C2.401875 14.67 1.80375 14.34 1.1875 14 C-1.05386471 12.79212012 -1.05386471 12.79212012 -4 13 C-3.8125 10.625 -3.8125 10.625 -3 8 C-0.4375 6.6875 -0.4375 6.6875 2 6 C1.34 5.01 0.68 4.02 0 3 C0 2.01 0 1.02 0 0 Z " fill="#070606" transform="translate(450,76)"/>
<path d="M0 0 C0.99 0.33 1.98 0.66 3 1 C4.47666292 4.49029418 4.07164685 8.27436386 4 12 C1.50935112 12.68707555 -0.37886292 13 -3 13 C-2.67 12.34 -2.34 11.68 -2 11 C-2.66 10.67 -3.32 10.34 -4 10 C-3.01 10 -2.02 10 -1 10 C-0.3121764 7.64632287 -0.3121764 7.64632287 0 5 C-0.66 4.01 -1.32 3.02 -2 2 C-1.34 1.34 -0.68 0.68 0 0 Z " fill="#161516" transform="translate(319,66)"/>
<path d="M0 0 C0.33 0.99 0.66 1.98 1 3 C0.67 3.66 0.34 4.32 0 5 C0.66 5.33 1.32 5.66 2 6 C2 6.99 2 7.98 2 9 C1.01 9.33 0.02 9.66 -1 10 C0.32 11.32 1.64 12.64 3 14 C2.01 14.33 1.02 14.66 0 15 C-2 14 -2 14 -3 11 C-3.33 11.66 -3.66 12.32 -4 13 C-4.66 13 -5.32 13 -6 13 C-6.33 12.01 -6.66 11.02 -7 10 C-6.21625 9.649375 -5.4325 9.29875 -4.625 8.9375 C-1.16452728 6.38334156 -0.85463256 4.11777506 0 0 Z " fill="#0A0A0A" transform="translate(350,76)"/>
<path d="M0 0 C2.22909871 -0.02714735 4.45829367 -0.04646254 6.6875 -0.0625 C7.92886719 -0.07410156 9.17023438 -0.08570313 10.44921875 -0.09765625 C13.46235454 -0.01478673 16.08275339 0.29160551 19 1 C15.02389214 3.71486934 10.86098023 3.22440753 6.25 3.125 C5.45722656 3.11597656 4.66445312 3.10695312 3.84765625 3.09765625 C1.89830719 3.07417012 -0.05088575 3.03830137 -2 3 C-1.34 2.67 -0.68 2.34 0 2 C0 1.34 0 0.68 0 0 Z " fill="#0DCBF7" transform="translate(71,36)"/>
<path d="M0 0 C6.93 0 13.86 0 21 0 C21.33 0.66 21.66 1.32 22 2 C20.39743892 2.50512244 18.79288208 3.00391627 17.1875 3.5 C16.29417969 3.7784375 15.40085938 4.056875 14.48046875 4.34375 C12 5 12 5 9 5 C9.33 4.01 9.66 3.02 10 2 C6.7 1.67 3.4 1.34 0 1 C0 0.67 0 0.34 0 0 Z " fill="#15C5EB" transform="translate(115,41)"/>
<path d="M0 0 C4.95769796 -0.29162929 8.02806853 -0.12940055 12 3 C12 3.66 12 4.32 12 5 C8.7 5 5.4 5 2 5 C2 5.66 2 6.32 2 7 C0.68 6.34 -0.64 5.68 -2 5 C-1.01 4.34 -0.02 3.68 1 3 C0.67 2.01 0.34 1.02 0 0 Z " fill="#20CDF0" transform="translate(77,104)"/>
<path d="M0 0 C3.37276393 3.54184708 3.37739213 6.3429494 3.3125 11.125 C3.30863281 12.36507812 3.30476563 13.60515625 3.30078125 14.8828125 C3 18 3 18 1 20 C0.01 20 -0.98 20 -2 20 C-2 18.68 -2 17.36 -2 16 C-1.34 16 -0.68 16 0 16 C-0.26103516 15.20335938 -0.26103516 15.20335938 -0.52734375 14.390625 C-1.12121071 11.38693428 -0.86021606 8.79331972 -0.5625 5.75 C-0.46066406 4.67234375 -0.35882813 3.5946875 -0.25390625 2.484375 C-0.17011719 1.66453125 -0.08632813 0.8446875 0 0 Z " fill="#10110F" transform="translate(419,73)"/>
<path d="M0 0 C0.66 1.65 1.32 3.3 2 5 C-0.125 6.6875 -0.125 6.6875 -3 8 C-6.3125 6.6875 -6.3125 6.6875 -9 5 C-9 4.01 -9 3.02 -9 2 C-2.25 0 -2.25 0 0 0 Z " fill="#171516" transform="translate(285,74)"/>
<path d="M0 0 C0.99 0.33 1.98 0.66 3 1 C3.33 1 3.66 1 4 1 C4.33 1.66 4.66 2.32 5 3 C6.65 2.67 8.3 2.34 10 2 C10 4.31 10 6.62 10 9 C9.29875 8.54625 8.5975 8.0925 7.875 7.625 C5.03269823 5.88300526 5.03269823 5.88300526 1.75 5 C0.8425 4.67 -0.065 4.34 -1 4 C-1.33 3.01 -1.66 2.02 -2 1 C-1.34 0.67 -0.68 0.34 0 0 Z " fill="#020000" transform="translate(380,71)"/>
<path d="M0 0 C2.62187494 1.04874998 3.79371361 1.64931313 5.25 4.125 C5.4975 4.74375 5.745 5.3625 6 6 C5.01 7.32 4.02 8.64 3 10 C2.34 9.01 1.68 8.02 1 7 C-2.06556598 6.26656572 -2.06556598 6.26656572 -5 6 C-5.33 6.99 -5.66 7.98 -6 9 C-5.8125 6.625 -5.8125 6.625 -5 4 C-2.4375 2.6875 -2.4375 2.6875 0 2 C0 1.34 0 0.68 0 0 Z " fill="#0A0A0A" transform="translate(314,66)"/>
<path d="M0 0 C0.66 0 1.32 0 2 0 C2.4485551 8.17367067 2.40744316 13.97563746 -2 21 C-2.33 21 -2.66 21 -3 21 C-2.54283122 16.42831221 -2.1650567 13.05948132 0 9 C0.38290462 7.00889599 0.72604615 5.00899487 1 3 C0.34 2.67 -0.32 2.34 -1 2 C-0.67 1.34 -0.34 0.68 0 0 Z " fill="#2ABBD4" transform="translate(116,80)"/>
<path d="M0 0 C0.99 0 1.98 0 3 0 C3 0.66 3 1.32 3 2 C5.64 2.33 8.28 2.66 11 3 C11 3.66 11 4.32 11 5 C9.68 5 8.36 5 7 5 C7 6.32 7 7.64 7 9 C5.68 8.67 4.36 8.34 3 8 C2.67 6.35 2.34 4.7 2 3 C1.34 3 0.68 3 0 3 C0 2.01 0 1.02 0 0 Z " fill="#1FC5E6" transform="translate(53,89)"/>
<path d="M0 0 C0.33 0 0.66 0 1 0 C1.33 3.96 1.66 7.92 2 12 C2.99 11.67 3.98 11.34 5 11 C5.33 12.98 5.66 14.96 6 17 C4.02 17.99 4.02 17.99 2 19 C0 17 0 17 -0.1953125 13.0859375 C-0.18200376 11.51550649 -0.15813602 9.94513779 -0.125 8.375 C-0.11597656 7.57320313 -0.10695312 6.77140625 -0.09765625 5.9453125 C-0.07406223 3.96341477 -0.03819065 1.98167019 0 0 Z " fill="#090909" transform="translate(155,70)"/>
<path d="M0 0 C3.64277971 4.37133565 6.08565097 7.87341123 6.875 13.5625 C6.99617188 14.32691406 7.11734375 15.09132813 7.2421875 15.87890625 C7 18 7 18 5.0078125 19.77734375 C4.34523438 20.18082031 3.68265625 20.58429688 3 21 C3.03480469 20.28714844 3.06960937 19.57429688 3.10546875 18.83984375 C3.28136092 12.61661143 2.77448015 8.54896029 0 3 C0 2.01 0 1.02 0 0 Z " fill="#7DB255" transform="translate(111,58)"/>
<path d="M0 0 C2.875 -0.1875 2.875 -0.1875 6 0 C8 3 8 3 8 6 C5.6875 6.6875 5.6875 6.6875 3 7 C1.25 5.625 1.25 5.625 0 4 C-0.33 3.67 -0.66 3.34 -1 3 C-0.67 2.01 -0.34 1.02 0 0 Z " fill="#181617" transform="translate(459,76)"/>
<path d="M0 0 C0.886875 0.144375 1.77375 0.28875 2.6875 0.4375 C1.945 1.015 1.2025 1.5925 0.4375 2.1875 C-3.04126577 5.03376291 -5.81581456 7.69247183 -8.3125 11.4375 C-8.9725 11.4375 -9.6325 11.4375 -10.3125 11.4375 C-11.66689668 8.72870665 -11.37751451 6.42816732 -11.3125 3.4375 C-10.3225 4.7575 -9.3325 6.0775 -8.3125 7.4375 C-8.02117188 6.9321875 -7.72984375 6.426875 -7.4296875 5.90625 C-4.03977273 0.53355489 -4.03977273 0.53355489 0 0 Z " fill="#49A33B" transform="translate(53.3125,74.5625)"/>
<path d="M0 0 C2.38564077 0.57584432 4.66682784 1.22227595 7 2 C7 2.66 7 3.32 7 4 C7.5775 4.268125 8.155 4.53625 8.75 4.8125 C13.65010783 7.39866802 15.88268811 9.76243902 18 15 C17.67 15.66 17.34 16.32 17 17 C16.61070313 16.43152344 16.22140625 15.86304687 15.8203125 15.27734375 C11.80830158 9.74002914 7.68858012 6.0126179 1.94140625 2.3125 C1.30074219 1.879375 0.66007812 1.44625 0 1 C0 0.67 0 0.34 0 0 Z " fill="#65C324" transform="translate(96,49)"/>
<path d="M0 0 C0 1.65 0 3.3 0 5 C-0.639375 5.226875 -1.27875 5.45375 -1.9375 5.6875 C-4.20463943 6.82567752 -4.20463943 6.82567752 -4.75 9.25 C-5.0167323 12.18405528 -5.06847898 15.05540397 -5 18 C-7.51163688 15.48836312 -7.99442917 14.29525379 -8.0625 10.6875 C-7.18616106 7.64608839 -4.03765977 0 0 0 Z " fill="#3AACC3" transform="translate(52,80)"/>
<path d="M0 0 C2.41696872 -0.05411124 4.83271787 -0.09372278 7.25 -0.125 C7.93191406 -0.14175781 8.61382812 -0.15851563 9.31640625 -0.17578125 C13.0608235 -0.21213482 15.82352727 -0.07944349 19 2 C19 3.98 19 5.96 19 8 C17.68 7.34 16.36 6.68 15 6 C15.33 5.01 15.66 4.02 16 3 C10.39 2.67 4.78 2.34 -1 2 C-0.67 1.34 -0.34 0.68 0 0 Z " fill="#000000" transform="translate(398,65)"/>
<path d="M0 0 C5.94 0 11.88 0 18 0 C17.67 0.66 17.34 1.32 17 2 C15.02 2 13.04 2 11 2 C10.67 2.66 10.34 3.32 10 4 C9.67 3.67 9.34 3.34 9 3 C7.48530552 2.76807135 5.96245438 2.58784762 4.4375 2.4375 C3.61121094 2.35371094 2.78492187 2.26992187 1.93359375 2.18359375 C1.29550781 2.12300781 0.65742187 2.06242187 0 2 C0 1.34 0 0.68 0 0 Z " fill="#2FCAE2" transform="translate(74,118)"/>
<path d="M0 0 C0.99773437 0.02320313 1.99546875 0.04640625 3.0234375 0.0703125 C4.52777344 0.09738281 4.52777344 0.09738281 6.0625 0.125 C6.83335938 0.14820313 7.60421875 0.17140625 8.3984375 0.1953125 C9.515625 3.9140625 9.515625 3.9140625 8.4609375 6.4453125 C8.1103125 7.0228125 7.7596875 7.6003125 7.3984375 8.1953125 C7.3984375 6.2153125 7.3984375 4.2353125 7.3984375 2.1953125 C4.0984375 2.1953125 0.7984375 2.1953125 -2.6015625 2.1953125 C-2.9315625 3.5153125 -3.2615625 4.8353125 -3.6015625 6.1953125 C-4.2265625 4.3203125 -4.2265625 4.3203125 -4.6015625 2.1953125 C-2.6015625 0.1953125 -2.6015625 0.1953125 0 0 Z " fill="#82BE6C" transform="translate(78.6015625,132.8046875)"/>
<path d="M0 0 C0.33 0 0.66 0 1 0 C1.02716824 2.54173977 1.04691969 5.08318415 1.0625 7.625 C1.07087891 8.33785156 1.07925781 9.05070312 1.08789062 9.78515625 C1.10710296 13.97344438 0.8267327 17.8728462 0 22 C-1.32 22.33 -2.64 22.66 -4 23 C-4.33 21.68 -4.66 20.36 -5 19 C-4.01 18.67 -3.02 18.34 -2 18 C-0.57457799 14.48339 -0.68025824 10.49541288 -0.4375 6.75 C-0.35371094 5.48671875 -0.26992187 4.2234375 -0.18359375 2.921875 C-0.12300781 1.95765625 -0.06242187 0.9934375 0 0 Z " fill="#89B351" transform="translate(128,116)"/>
<path d="M0 0 C2.97 0.495 2.97 0.495 6 1 C6 2.98 6 4.96 6 7 C3.6568787 6.74438677 1.32156597 6.40729228 -1 6 C-1.33 5.34 -1.66 4.68 -2 4 C-1.34 4 -0.68 4 0 4 C0 2.68 0 1.36 0 0 Z " fill="#5FCA0F" transform="translate(15,76)"/>
<path d="M0 0 C3 2 3 2 3.73046875 4.1640625 C3.88128906 4.97617187 4.03210937 5.78828125 4.1875 6.625 C4.34605469 7.44226562 4.50460938 8.25953125 4.66796875 9.1015625 C4.83232422 10.04128906 4.83232422 10.04128906 5 11 C3.68 11 2.36 11 1 11 C0 10 0 10 -0.09765625 7.71484375 C-0.08605469 6.79832031 -0.07445312 5.88179687 -0.0625 4.9375 C-0.05347656 4.01839844 -0.04445312 3.09929688 -0.03515625 2.15234375 C-0.02355469 1.44207031 -0.01195312 0.73179688 0 0 Z " fill="#08D0F7" transform="translate(37,30)"/>
<path d="M0 0 C0.99 0 1.98 0 3 0 C3.26554687 0.73605469 3.53109375 1.47210938 3.8046875 2.23046875 C4.15789062 3.20628906 4.51109375 4.18210937 4.875 5.1875 C5.22304687 6.15042969 5.57109375 7.11335938 5.9296875 8.10546875 C6.90990488 10.75634859 7.93720434 13.3813098 9 16 C7.1015625 15.796875 7.1015625 15.796875 5 15 C4.0234375 12.890625 4.0234375 12.890625 3.375 10.25 C3.02115234 8.90035156 3.02115234 8.90035156 2.66015625 7.5234375 C2.44230469 6.69070312 2.22445312 5.85796875 2 5 C1.36236461 3.32201212 0.71372719 1.64706275 0 0 Z " fill="#94C145" transform="translate(78,10)"/>
<path d="M0 0 C2.97 0 5.94 0 9 0 C8.67 1.98 8.34 3.96 8 6 C7.34 5.67 6.68 5.34 6 5 C6 4.34 6 3.68 6 3 C4.02 3.66 2.04 4.32 0 5 C0 3.35 0 1.7 0 0 Z " fill="#65C225" transform="translate(77,135)"/>
<path d="M0 0 C0.66 0 1.32 0 2 0 C2.1953125 6.0546875 2.1953125 6.0546875 2 8 C1.34 8.66 0.68 9.32 0 10 C0 8.68 0 7.36 0 6 C-2.97 5.505 -2.97 5.505 -6 5 C-6 4.34 -6 3.68 -6 3 C-6.66 2.67 -7.32 2.34 -8 2 C-6.68 2 -5.36 2 -4 2 C-2.65835921 1.7018576 -1.32148827 1.37756808 0 1 C0 0.67 0 0.34 0 0 Z " fill="#090909" transform="translate(466,80)"/>
<path d="M0 0 C-0.66 0 -1.32 0 -2 0 C-2 0.66 -2 1.32 -2 2 C-3.5778125 2.433125 -3.5778125 2.433125 -5.1875 2.875 C-8.87309321 3.86041151 -8.87309321 3.86041151 -11.6875 5.25 C-14 6 -14 6 -16.3125 5.125 C-16.869375 4.75375 -17.42625 4.3825 -18 4 C-5.36842105 -1.78947368 -5.36842105 -1.78947368 0 0 Z " fill="#21BFE3" transform="translate(66,38)"/>
<path d="M0 0 C0.042721 1.66611905 0.04063832 3.33382885 0 5 C-1 6 -1 6 -3.5625 6.0625 C-4.7690625 6.0315625 -4.7690625 6.0315625 -6 6 C-6.66 4.35 -7.32 2.7 -8 1 C-2.25 0 -2.25 0 0 0 Z " fill="#191919" transform="translate(172,75)"/>
<path d="M0 0 C0.66 2.97 1.32 5.94 2 9 C-1.3 8.34 -4.6 7.68 -8 7 C-8 6.67 -8 6.34 -8 6 C-6.02 5.67 -4.04 5.34 -2 5 C-2.33 4.67 -2.66 4.34 -3 4 C-3.99 4 -4.98 4 -6 4 C-5.67 3.01 -5.34 2.02 -5 1 C-2 0 -2 0 0 0 Z " fill="#79C82C" transform="translate(104,62)"/>
<path d="M0 0 C-0.33 0.99 -0.66 1.98 -1 3 C-1.88751953 3.09087891 -1.88751953 3.09087891 -2.79296875 3.18359375 C-6.90978208 3.62012371 -10.95544533 4.08671346 -15 5 C-11.19450521 -0.70824218 -6.30442274 -0.21370925 0 0 Z " fill="#33BABB" transform="translate(78,40)"/>
<path d="M0 0 C0.33 0.66 0.66 1.32 1 2 C2.65 2 4.3 2 6 2 C6 2.33 6 2.66 6 3 C3.03 3 0.06 3 -3 3 C-2.67 4.98 -2.34 6.96 -2 9 C-2.99 8.67 -3.98 8.34 -5 8 C-6.1875 5.4375 -6.1875 5.4375 -7 3 C-6.34 3 -5.68 3 -5 3 C-4.67 2.34 -4.34 1.68 -4 1 C-1.9375 0.375 -1.9375 0.375 0 0 Z " fill="#11C9F0" transform="translate(73,100)"/>
<path d="M0 0 C0.66 0.33 1.32 0.66 2 1 C0.8803014 2.00593243 -0.2459412 3.0045849 -1.375 4 C-2.00148438 4.556875 -2.62796875 5.11375 -3.2734375 5.6875 C-5 7 -5 7 -7 7 C-7 7.66 -7 8.32 -7 9 C-7.99 9.33 -8.98 9.66 -10 10 C-9.74433121 6.54847139 -8.73802926 5.75511431 -6.125 3.3125 C-3 1 -3 1 0 0 Z " fill="#5ABA51" transform="translate(62,47)"/>
<path d="M0 0 C0.33 0 0.66 0 1 0 C1.04898438 0.75023438 1.09796875 1.50046875 1.1484375 2.2734375 C1.63877844 8.98603585 2.50458926 15.43761499 4 22 C3.34 22.33 2.68 22.66 2 23 C0.04596958 15.27111181 -0.22428282 7.94957992 0 0 Z " fill="#33B2C6" transform="translate(38,77)"/>
<path d="M0 0 C0.66 0.33 1.32 0.66 2 1 C2 1.66 2 2.32 2 3 C0.02 3.99 -1.96 4.98 -4 6 C-4 6.99 -4 7.98 -4 9 C-5.32 9.33 -6.64 9.66 -8 10 C-8.33 9.34 -8.66 8.68 -9 8 C-6.14723863 5.06799526 -3.34920216 2.35684596 0 0 Z " fill="#67C221" transform="translate(123,105)"/>
<path d="M0 0 C0.33 0 0.66 0 1 0 C1.33 1.65 1.66 3.3 2 5 C2.33 5 2.66 5 3 5 C3 8.3 3 11.6 3 15 C2.01 15 1.02 15 0 15 C0 10.05 0 5.1 0 0 Z " fill="#070706" transform="translate(416,74)"/>
<path d="M0 0 C1.5 1.0625 1.5 1.0625 3 3 C3.1875 6.6875 3.1875 6.6875 3 10 C2.34 9.34 1.68 8.68 1 8 C0.01 7.34 -0.98 6.68 -2 6 C-2 4.68 -2 3.36 -2 2 C-1.34 2 -0.68 2 0 2 C0 1.34 0 0.68 0 0 Z " fill="#171717" transform="translate(148,68)"/>
<path d="M0 0 C1.32 0.33 2.64 0.66 4 1 C3.67 1.66 3.34 2.32 3 3 C2.01 3.33 1.02 3.66 0 4 C0 5.98 0 7.96 0 10 C-0.66 9.34 -1.32 8.68 -2 8 C-2.53625 7.505 -3.0725 7.01 -3.625 6.5 C-5 5 -5 5 -5 3 C-3.35 2.67 -1.7 2.34 0 2 C0 1.34 0 0.68 0 0 Z " fill="#0A0A0A" transform="translate(146,66)"/>
<path d="M0 0 C0.99 0.33 1.98 0.66 3 1 C3.66 1 4.32 1 5 1 C5 2.32 5 3.64 5 5 C3.68 5.33 2.36 5.66 1 6 C1 6.66 1 7.32 1 8 C-1 7 -1 7 -1.75 5.125 C-2 3 -2 3 0 0 Z " fill="#0B0B0B" transform="translate(243,66)"/>
<path d="M0 0 C4.62 0 9.24 0 14 0 C13.67 0.99 13.34 1.98 13 3 C10.69 3 8.38 3 6 3 C6 2.67 6 2.34 6 2 C3.03 1.505 3.03 1.505 0 1 C0 0.67 0 0.34 0 0 Z " fill="#1DC0DE" transform="translate(78,124)"/>
<path d="M0 0 C0.75 1.75 0.75 1.75 1 4 C-0.6875 6.25 -0.6875 6.25 -3 8 C-4.32 8 -5.64 8 -7 8 C-7 7.34 -7 6.68 -7 6 C-6.34 6 -5.68 6 -5 6 C-5 5.34 -5 4.68 -5 4 C-3.37373596 2.61767557 -1.7074998 1.28062485 0 0 Z " fill="#0DCDF3" transform="translate(109,100)"/>
<path d="M0 0 C2 0 2 0 3.625 1.25 C5 3 5 3 5 7 C5.99 7 6.98 7 8 7 C8.33 7.99 8.66 8.98 9 10 C5.91085915 9.66902062 4.9973069 8.99715301 2.8125 6.6875 C1.20592291 4.30533398 0.41425314 2.79620867 0 0 Z " fill="#37BCDC" transform="translate(47,98)"/>
<path d="M0 0 C2.64 0.33 5.28 0.66 8 1 C8 2.32 8 3.64 8 5 C4.37673261 6.2077558 3.35853631 5.54311128 0 4 C0 2.68 0 1.36 0 0 Z M2 1 C3 3 3 3 3 3 Z " fill="#000000" transform="translate(455,71)"/>
<path d="M0 0 C0.66 0.33 1.32 0.66 2 1 C-0.77904424 4.60246476 -3.74106442 7.82682588 -7 11 C-7.66 11.66 -8.32 12.32 -9 13 C-7.90818381 8.47676152 -7.10627058 5.81422138 -3.4375 2.8125 C-2.79683594 2.28269531 -2.15617187 1.75289062 -1.49609375 1.20703125 C-1.00238281 0.80871094 -0.50867187 0.41039062 0 0 Z " fill="#3AB4BF" transform="translate(52,51)"/>
<path d="M0 0 C3 2 3 2 3.51171875 4.1640625 C3.56972656 4.97617188 3.62773438 5.78828125 3.6875 6.625 C3.75324219 7.44226563 3.81898437 8.25953125 3.88671875 9.1015625 C3.92410156 9.72804687 3.96148437 10.35453125 4 11 C3.01 10.67 2.02 10.34 1 10 C0.67 6.7 0.34 3.4 0 0 Z " fill="#71B83F" transform="translate(120,124)"/>
<path d="M0 0 C5.35152885 0.32433508 8.28280043 3.49704824 12 7 C11.01 7.495 11.01 7.495 10 8 C5.36660757 6.1869334 2.8475202 4.05224029 0 0 Z " fill="#55C03A" transform="translate(72,74)"/>
<path d="M0 0 C2 3 2 3 1.7578125 5.26171875 C1.54898438 6.06222656 1.34015625 6.86273438 1.125 7.6875 C0.92132813 8.49574219 0.71765625 9.30398437 0.5078125 10.13671875 C0.25644531 11.05904297 0.25644531 11.05904297 0 12 C-0.99 12 -1.98 12 -3 12 C-2.69106068 10.3743193 -2.3777305 8.74947252 -2.0625 7.125 C-1.88847656 6.22007813 -1.71445312 5.31515625 -1.53515625 4.3828125 C-1 2 -1 2 0 0 Z " fill="#63C027" transform="translate(46,70)"/>
<path d="M0 0 C-6.625 4 -6.625 4 -10 4 C-10 3.01 -10 2.02 -10 1 C-3.71428571 -1.42857143 -3.71428571 -1.42857143 0 0 Z " fill="#34BDD8" transform="translate(102,114)"/>
<path d="M0 0 C1.89213369 2.38573379 3.02391783 4.07175348 4 7 C1.69 7 -0.62 7 -3 7 C-1.125 1.125 -1.125 1.125 0 0 Z " fill="#020000" transform="translate(358,74)"/>
<path d="M0 0 C2 2 2 2 2.1953125 3.9453125 C2.13020833 5.96354167 2.06510417 7.98177083 2 10 C1.01 8.68 0.02 7.36 -1 6 C-1.66 6.99 -2.32 7.98 -3 9 C-2.25 2.25 -2.25 2.25 0 0 Z " fill="#49B3C3" transform="translate(39,20)"/>
<path d="M0 0 C2.475 0.99 2.475 0.99 5 2 C5.33 4.64 5.66 7.28 6 10 C5.34 10 4.68 10 4 10 C0 3.375 0 3.375 0 0 Z " fill="#7CBD38" transform="translate(114,114)"/>
<path d="M0 0 C0.66 0 1.32 0 2 0 C0.44499019 3.81684226 -2.03595495 6.19195732 -5 9 C-5.66 8.67 -6.32 8.34 -7 8 C-6.67 7.01 -6.34 6.02 -6 5 C-5.01 5 -4.02 5 -3 5 C-2.690625 4.360625 -2.38125 3.72125 -2.0625 3.0625 C-1 1 -1 1 0 0 Z " fill="#36BCD5" transform="translate(109,104)"/>
<path d="M0 0 C1.98 0 3.96 0 6 0 C4.6875 2.5 4.6875 2.5 3 5 C2.01 5 1.02 5 0 5 C-0.33 5.66 -0.66 6.32 -1 7 C-1 3 -1 3 0 0 Z " fill="#2FD1F0" transform="translate(60,94)"/>
<path d="M0 0 C0 3 0 3 -1 5 C-2.98 5 -4.96 5 -7 5 C-6.3125 3.0625 -6.3125 3.0625 -5 1 C-2.375 0.25 -2.375 0.25 0 0 Z " fill="#191919" transform="translate(282,85)"/>
<path d="M0 0 C0.66 1.32 1.32 2.64 2 4 C1.01 4.495 1.01 4.495 0 5 C0 4.34 0 3.68 0 3 C-3.21717892 1.92760703 -4.05283612 2.06390515 -7.1875 2.9375 C-8.445625 3.288125 -9.70375 3.63875 -11 4 C-11 3.34 -11 2.68 -11 2 C-7.36576791 -0.32590854 -4.22911669 -0.16265833 0 0 Z " fill="#010101" transform="translate(364,85)"/>
<path d="M0 0 C0 0.66 0 1.32 0 2 C-4.29 2 -8.58 2 -13 2 C-9.15166533 -1.84833467 -5.03008029 -1.0528075 0 0 Z " fill="#69C419" transform="translate(83,53)"/>
<path d="M0 0 C1.98 0.66 3.96 1.32 6 2 C6 2.66 6 3.32 6 4 C7.65 4.33 9.3 4.66 11 5 C11 5.66 11 6.32 11 7 C7.98342209 6.85969405 5.76158727 6.70648535 3.48828125 4.59765625 C2.26743934 3.11095765 1.12753478 1.55865102 0 0 Z " fill="#17C7F0" transform="translate(56,108)"/>
<path d="M0 0 C1.65 0 3.3 0 5 0 C4.67 1.65 4.34 3.3 4 5 C2.35 4.67 0.7 4.34 -1 4 C-0.67 2.68 -0.34 1.36 0 0 Z " fill="#121212" transform="translate(409,67)"/>
<path d="M0 0 C1.98 0 3.96 0 6 0 C6.33 1.98 6.66 3.96 7 6 C6.01 6 5.02 6 4 6 C3.67 5.01 3.34 4.02 3 3 C2.01 2.67 1.02 2.34 0 2 C0 1.34 0 0.68 0 0 Z " fill="#050505" transform="translate(196,66)"/>
<path d="M0 0 C0.33 0 0.66 0 1 0 C1.25 6.625 1.25 6.625 -1 10 C-1.66 9.67 -2.32 9.34 -3 9 C-2.69181644 7.68647977 -2.37832335 6.37420428 -2.0625 5.0625 C-1.88847656 4.33160156 -1.71445313 3.60070312 -1.53515625 2.84765625 C-1 1 -1 1 0 0 Z " fill="#11D2FB" transform="translate(115,84)"/>
<path d="M0 0 C1.4540625 0.0309375 1.4540625 0.0309375 2.9375 0.0625 C2.9375 0.7225 2.9375 1.3825 2.9375 2.0625 C3.5975 2.3925 4.2575 2.7225 4.9375 3.0625 C2.6275 3.3925 0.3175 3.7225 -2.0625 4.0625 C-2.7225 3.0725 -3.3825 2.0825 -4.0625 1.0625 C-3.0625 0.0625 -3.0625 0.0625 0 0 Z " fill="#191919" transform="translate(311.0625,65.9375)"/>
<path d="M0 0 C0.2475 0.53625 0.495 1.0725 0.75 1.625 C2.29665225 4.56363927 4.1451936 7.24770663 6 10 C6.33 10.66 6.66 11.32 7 12 C3.34683329 10.75023244 2.21934164 10.32901247 0 7 C-0.07905064 4.66800612 -0.08798769 2.33167378 0 0 Z " fill="#31AFCF" transform="translate(41,30)"/>
<path d="M0 0 C0.33 0.66 0.66 1.32 1 2 C1.66 2 2.32 2 3 2 C3 2.66 3 3.32 3 4 C3.9590625 4.433125 3.9590625 4.433125 4.9375 4.875 C7 6 7 6 8 8 C6.35 7.67 4.7 7.34 3 7 C3 6.34 3 5.68 3 5 C2.01 4.67 1.02 4.34 0 4 C0 2.68 0 1.36 0 0 Z " fill="#31BED7" transform="translate(48,108)"/>
<path d="M0 0 C0.66 0.33 1.32 0.66 2 1 C1.8125 2.875 1.8125 2.875 1 5 C-1.5625 6.25 -1.5625 6.25 -4 7 C-4 5.68 -4 4.36 -4 3 C-2 1.25 -2 1.25 0 0 Z " fill="#090909" transform="translate(443,86)"/>
<path d="M0 0 C0.66 0.33 1.32 0.66 2 1 C2 4.63 2 8.26 2 12 C1.67 12 1.34 12 1 12 C1 9.36 1 6.72 1 4 C-0.65 4 -2.3 4 -4 4 C-2.68 2.68 -1.36 1.36 0 0 Z " fill="#51ACA7" transform="translate(117,76)"/>
<path d="M0 0 C0.99 0.66 1.98 1.32 3 2 C1.625 3.5 1.625 3.5 0 5 C-2.33333333 5 -4.66666667 5 -7 5 C-7 4.34 -7 3.68 -7 3 C-3.6875 1.375 -3.6875 1.375 0 0 Z " fill="#050505" transform="translate(384,81)"/>
<path d="M0 0 C-0.3125 1.875 -0.3125 1.875 -1 4 C-1.99 4.66 -2.98 5.32 -4 6 C-4 5.34 -4 4.68 -4 4 C-4.66 4 -5.32 4 -6 4 C-6 3.01 -6 2.02 -6 1 C-3.92446352 0.4465236 -2.15634036 0 0 0 Z " fill="#161215" transform="translate(223,66)"/>
<path d="M0 0 C0.78375 0.04125 1.5675 0.0825 2.375 0.125 C1.08534824 1.50062854 -0.25189293 2.83266393 -1.625 4.125 C-2.285 4.125 -2.945 4.125 -3.625 4.125 C-3.955 4.785 -4.285 5.445 -4.625 6.125 C-4.625 1.71963177 -4.59063093 0.21860147 0 0 Z " fill="#30BCBB" transform="translate(60.625,44.875)"/>
<path d="M0 0 C1.5625 1.25 1.5625 1.25 3 3 C2.6875 5.1875 2.6875 5.1875 2 7 C1.01 7 0.02 7 -1 7 C-1.04254356 5.00045254 -1.04080783 2.99958364 -1 1 C-0.67 0.67 -0.34 0.34 0 0 Z " fill="#6BC020" transform="translate(78,12)"/>
<path d="M0 0 C1.65 0 3.3 0 5 0 C5 1.32 5 2.64 5 4 C3.35 3.67 1.7 3.34 0 3 C0 2.01 0 1.02 0 0 Z " fill="#5EB7CB" transform="translate(18,119)"/>
<path d="M0 0 C0.33 0.66 0.66 1.32 1 2 C1.66 2 2.32 2 3 2 C2.67 3.32 2.34 4.64 2 6 C0.35 6 -1.3 6 -3 6 C-2.01 4.02 -1.02 2.04 0 0 Z " fill="#0B0B0B" transform="translate(405,86)"/>
<path d="M0 0 C0.66 0.33 1.32 0.66 2 1 C-0.31 3.64 -2.62 6.28 -5 9 C-5.33 8.34 -5.66 7.68 -6 7 C-2.25 1.125 -2.25 1.125 0 0 Z " fill="#44B387" transform="translate(51,78)"/>
<path d="M0 0 C0.33 0.99 0.66 1.98 1 3 C1.99 3 2.98 3 4 3 C4 5 4 5 2.625 6.625 C1 8 1 8 -1 8 C-0.67 5.36 -0.34 2.72 0 0 Z " fill="#212121" transform="translate(136,77)"/>
<path d="M0 0 C0.66 0.33 1.32 0.66 2 1 C1.67 5.62 1.34 10.24 1 15 C0.67 15 0.34 15 0 15 C-0.19390729 12.68802845 -0.37996367 10.3753971 -0.5625 8.0625 C-0.71912109 6.13083984 -0.71912109 6.13083984 -0.87890625 4.16015625 C-0.91886719 3.11730469 -0.95882813 2.07445313 -1 1 C-0.67 0.67 -0.34 0.34 0 0 Z " fill="#000000" transform="translate(407,70)"/>
<path d="M0 0 C1.46132217 2.92264434 2.34099246 4.92463146 3 8 C1.68 8.99 0.36 9.98 -1 11 C-0.67 7.37 -0.34 3.74 0 0 Z " fill="#81C26B" transform="translate(115,68)"/>
<path d="M0 0 C0.33 0.99 0.66 1.98 1 3 C3.00016466 4.20882096 3.00016466 4.20882096 5 5 C2.36 5 -0.28 5 -3 5 C-3 4.01 -3 3.02 -3 2 C-2.01 1.34 -1.02 0.68 0 0 Z " fill="#1A1A1A" transform="translate(163,66)"/>
<path d="M0 0 C2.475 0.495 2.475 0.495 5 1 C4.01 2.485 4.01 2.485 3 4 C3 3.34 3 2.68 3 2 C2.01 2 1.02 2 0 2 C0 1.34 0 0.68 0 0 Z M0 4 C1.9375 4.375 1.9375 4.375 4 5 C4.33 5.66 4.66 6.32 5 7 C3.68 7 2.36 7 1 7 C0.67 6.01 0.34 5.02 0 4 Z " fill="#090808" transform="translate(137,78)"/>
<path d="M0 0 C2.475 0.99 2.475 0.99 5 2 C4.67 2.99 4.34 3.98 4 5 C2.35 5 0.7 5 -1 5 C-0.67 3.35 -0.34 1.7 0 0 Z " fill="#141414" transform="translate(170,66)"/>
<path d="M0 0 C1.32 0 2.64 0 4 0 C4 0.66 4 1.32 4 2 C4.99 2.33 5.98 2.66 7 3 C2.25 4.125 2.25 4.125 0 3 C0 2.01 0 1.02 0 0 Z " fill="#58CD06" transform="translate(102,58)"/>
<path d="M0 0 C0 0.66 0 1.32 0 2 C-0.99 2.33 -1.98 2.66 -3 3 C-3.33 2.67 -3.66 2.34 -4 2 C-6.32817964 1.63239269 -8.6618385 1.29758419 -11 1 C-11 0.67 -11 0.34 -11 0 C-3.57142857 -1.28571429 -3.57142857 -1.28571429 0 0 Z " fill="#8CBE76" transform="translate(86,27)"/>
<path d="M0 0 C4.455 0.99 4.455 0.99 9 2 C9 2.66 9 3.32 9 4 C5.625 3.6875 5.625 3.6875 2 3 C1.34 2.01 0.68 1.02 0 0 Z " fill="#3ABAD1" transform="translate(65,115)"/>
<path d="M0 0 C2.64 0.66 5.28 1.32 8 2 C7.34 2.66 6.68 3.32 6 4 C2.875 3.625 2.875 3.625 0 3 C0 2.01 0 1.02 0 0 Z " fill="#23C2E5" transform="translate(72,104)"/>
<path d="M0 0 C0.99 0.33 1.98 0.66 3 1 C3 3.31 3 5.62 3 8 C2.67 7.34 2.34 6.68 2 6 C1.01 5.67 0.02 5.34 -1 5 C-0.67 3.35 -0.34 1.7 0 0 Z " fill="#0C0C0C" transform="translate(189,85)"/>
<path d="M0 0 C0 1.65 0 3.3 0 5 C-1.98 5.66 -3.96 6.32 -6 7 C-2.86206897 0 -2.86206897 0 0 0 Z " fill="#2FC3CD" transform="translate(52,80)"/>
<path d="M0 0 C0.66 0 1.32 0 2 0 C1.34 3.63 0.68 7.26 0 11 C-2 8 -2 8 -1.7578125 5.95703125 C-1.171875 3.97135417 -0.5859375 1.98567708 0 0 Z " fill="#75B451" transform="translate(44,69)"/>
<path d="M0 0 C0.66 0 1.32 0 2 0 C2.33 1.32 2.66 2.64 3 4 C1.35 5.32 -0.3 6.64 -2 8 C-1.125 1.125 -1.125 1.125 0 0 Z " fill="#080808" transform="translate(374,66)"/>
<path d="M0 0 C1.98 0 3.96 0 6 0 C6 0.99 6 1.98 6 3 C5.01 2.67 4.02 2.34 3 2 C1.68 2 0.36 2 -1 2 C-0.67 1.34 -0.34 0.68 0 0 Z " fill="#141414" transform="translate(434,66)"/>
<path d="M0 0 C2.64 0.66 5.28 1.32 8 2 C5.8614515 4.1385485 4.86724686 4.42655063 2 5 C1.34 3.35 0.68 1.7 0 0 Z " fill="#66C619" transform="translate(96,59)"/>
<path d="M0 0 C0.66 0.33 1.32 0.66 2 1 C0.625 2.5 0.625 2.5 -1 4 C-1.66 4 -2.32 4 -3 4 C-3.33 5.32 -3.66 6.64 -4 8 C-5 6 -5 6 -4.25 3.4375 C-3 1 -3 1 0 0 Z " fill="#14C5EA" transform="translate(48,53)"/>
<path d="M0 0 C0.99 0 1.98 0 3 0 C3.66 1.32 4.32 2.64 5 4 C3.02 4.99 3.02 4.99 1 6 C0.67 4.02 0.34 2.04 0 0 Z " fill="#1EC5E3" transform="translate(109,98)"/>
<path d="M0 0 C0.33 1.32 0.66 2.64 1 4 C-0.875 5.0625 -0.875 5.0625 -3 6 C-3.66 5.67 -4.32 5.34 -5 5 C-4.67 4.01 -4.34 3.02 -4 2 C-3.01 2 -2.02 2 -1 2 C-0.67 1.34 -0.34 0.68 0 0 Z " fill="#141414" transform="translate(347,86)"/>
<path d="M0 0 C2.1875 0.3125 2.1875 0.3125 4 1 C2.35 2.65 0.7 4.3 -1 6 C-1.66 5.01 -2.32 4.02 -3 3 C-1.75 1.4375 -1.75 1.4375 0 0 Z " fill="#0B0B0B" transform="translate(145,83)"/>
<path d="M0 0 C0.99 0.33 1.98 0.66 3 1 C3.33 1.99 3.66 2.98 4 4 C3.01 5.485 3.01 5.485 2 7 C0 5 0 5 -0.125 2.375 C-0.08375 1.59125 -0.0425 0.8075 0 0 Z " fill="#212121" transform="translate(306,78)"/>
<path d="M0 0 C3.37503669 1.1858237 5.64722731 2.27573689 8 5 C6.02 5 4.04 5 2 5 C1.34 3.35 0.68 1.7 0 0 Z " fill="#65BF18" transform="translate(106,71)"/>
<path d="M0 0 C0.33 0 0.66 0 1 0 C1 1.65 1 3.3 1 5 C0.67 5 0.34 5 0 5 C0 3.35 0 1.7 0 0 Z " fill="#000000" transform="translate(268,76)"/>
<path d="M0 0 C3 1 3 1 3 1 Z " fill="#7FD4D4" transform="translate(83,131)"/>
<path d="M0 0 C3 1 3 1 3 1 Z " fill="#0E0E0E" transform="translate(148,91)"/>
<path d="" fill="#000000" transform="translate(0,0)"/>
<path d="M0 0 C0.99 0.495 0.99 0.495 2 1 C1.01 1.495 1.01 1.495 0 2 C0 1.34 0 0.68 0 0 Z " fill="#000000" transform="translate(433,72)"/>
<path d="" fill="#000000" transform="translate(0,0)"/>
<path d="M0 0 C3 1 3 1 3 1 Z " fill="#000000" transform="translate(460,65)"/>
<path d="M0 0 C3 1 3 1 3 1 Z " fill="#000000" transform="translate(316,65)"/>
<path d="M0 0 C3 1 3 1 3 1 Z " fill="#000000" transform="translate(218,65)"/>
<path d="M0 0 C2 1 2 1 2 1 Z " fill="#000000" transform="translate(380,92)"/>
<path d="M0 0 C2 1 2 1 2 1 Z " fill="#000000" transform="translate(270,91)"/>
<path d="M0 0 C2 1 2 1 2 1 Z " fill="#000000" transform="translate(168,91)"/>
<path d="" fill="#000000" transform="translate(0,0)"/>
<path d="" fill="#000000" transform="translate(0,0)"/>
<path d="" fill="#000000" transform="translate(0,0)"/>
<path d="M0 0 C2 1 2 1 2 1 Z " fill="#101010" transform="translate(182,78)"/>
<path d="" fill="#000000" transform="translate(0,0)"/>
<path d="" fill="#000000" transform="translate(0,0)"/>
<path d="" fill="#191919" transform="translate(0,0)"/>
<path d="M0 0 C2 1 2 1 2 1 Z " fill="#000000" transform="translate(241,65)"/>
<path d="" fill="#FFFF00" transform="translate(0,0)"/>
<path d="" fill="#000000" transform="translate(0,0)"/>
<path d="" fill="#000000" transform="translate(0,0)"/>
<path d="" fill="#000000" transform="translate(0,0)"/>
<path d="" fill="#000000" transform="translate(0,0)"/>
<path d="" fill="#000000" transform="translate(0,0)"/>
<path d="" fill="#000000" transform="translate(0,0)"/>
<path d="" fill="#000000" transform="translate(0,0)"/>
<path d="" fill="#000000" transform="translate(0,0)"/>
<path d="" fill="#000000" transform="translate(0,0)"/>
<path d="" fill="#000000" transform="translate(0,0)"/>
<path d="" fill="#000000" transform="translate(0,0)"/>
<path d="" fill="#000000" transform="translate(0,0)"/>
<path d="" fill="#000000" transform="translate(0,0)"/>
<path d="" fill="#000000" transform="translate(0,0)"/>
<path d="" fill="#000000" transform="translate(0,0)"/>
<path d="" fill="#000000" transform="translate(0,0)"/>
<path d="" fill="#000000" transform="translate(0,0)"/>
<path d="" fill="#000000" transform="translate(0,0)"/>
<path d="" fill="#000000" transform="translate(0,0)"/>
<path d="" fill="#000000" transform="translate(0,0)"/>
<path d="" fill="#000000" transform="translate(0,0)"/>
<path d="" fill="#000000" transform="translate(0,0)"/>
<path d="" fill="#000000" transform="translate(0,0)"/>
<path d="" fill="#000000" transform="translate(0,0)"/>
<path d="" fill="#000000" transform="translate(0,0)"/>
<path d="" fill="#000000" transform="translate(0,0)"/>
<path d="" fill="#000000" transform="translate(0,0)"/>
<path d="" fill="#000000" transform="translate(0,0)"/>
<path d="" fill="#000000" transform="translate(0,0)"/>
<path d="" fill="#000000" transform="translate(0,0)"/>
<path d="" fill="#000000" transform="translate(0,0)"/>
<path d="" fill="#000000" transform="translate(0,0)"/>
<path d="" fill="#000000" transform="translate(0,0)"/>
<path d="" fill="#000000" transform="translate(0,0)"/>
<path d="" fill="#330000" transform="translate(0,0)"/>
<path d="" fill="#000000" transform="translate(0,0)"/>
<path d="" fill="#000000" transform="translate(0,0)"/>
<path d="" fill="#000000" transform="translate(0,0)"/>
<path d="" fill="#000000" transform="translate(0,0)"/>
<path d="" fill="#1C1C1C" transform="translate(0,0)"/>
<path d="" fill="#000000" transform="translate(0,0)"/>
<path d="" fill="#000000" transform="translate(0,0)"/>
<path d="" fill="#000000" transform="translate(0,0)"/>
<path d="" fill="#000000" transform="translate(0,0)"/>
<path d="" fill="#000000" transform="translate(0,0)"/>
<path d="" fill="#000000" transform="translate(0,0)"/>
<path d="" fill="#000000" transform="translate(0,0)"/>
<path d="" fill="#000000" transform="translate(0,0)"/>
<path d="" fill="#000000" transform="translate(0,0)"/>
<path d="" fill="#000000" transform="translate(0,0)"/>
<path d="" fill="#000000" transform="translate(0,0)"/>
<path d="" fill="#000000" transform="translate(0,0)"/>
<path d="" fill="#000000" transform="translate(0,0)"/>
<path d="" fill="#000000" transform="translate(0,0)"/>
<path d="" fill="#202020" transform="translate(0,0)"/>
<path d="" fill="#000000" transform="translate(0,0)"/>
<path d="" fill="#141414" transform="translate(0,0)"/>
<path d="" fill="#000000" transform="translate(0,0)"/>
<path d="" fill="#000000" transform="translate(0,0)"/>
<path d="" fill="#000000" transform="translate(0,0)"/>
<path d="" fill="#000000" transform="translate(0,0)"/>
<path d="" fill="#000000" transform="translate(0,0)"/>
<path d="" fill="#000000" transform="translate(0,0)"/>
</svg>
