<?xml version="1.0" encoding="iso-8859-1"?>
<!-- Uploaded to: SVG Repo, www.svgrepo.com, Generator: SVG Repo Mixer Tools -->
<!DOCTYPE svg PUBLIC "-//W3C//DTD SVG 1.1//EN" "http://www.w3.org/Graphics/SVG/1.1/DTD/svg11.dtd">
<svg fill="#000000" version="1.1" id="Capa_1" xmlns="http://www.w3.org/2000/svg" xmlns:xlink="http://www.w3.org/1999/xlink" 
	 width="800px" height="800px" viewBox="0 0 528.907 528.907"
	 xml:space="preserve">
<g>
	<g>
		<path d="M319.172,463.117c0,10.159-2.685,19.059-7.122,25.447C316.5,482.176,319.172,473.276,319.172,463.117v-73.295l0,0V463.117
			z"/>
		<path d="M215.042,488.564c4.45,6.359,10.67,10.19,17.762,10.19l0,0C225.719,498.755,219.492,494.924,215.042,488.564z"/>
		<path d="M173.039,370.595l13.271-19.672l0,0l-13.289,19.672c-2.552,3.783-2.81,8.659-0.667,12.694
			C170.229,379.254,170.481,374.378,173.039,370.595z"/>
		<path d="M207.915,389.822L207.915,389.822l-0.006,73.295c0,10.159,2.696,19.059,7.133,25.447
			c-4.443-6.389-7.127-15.288-7.127-25.447V389.822z"/>
		<path d="M172.354,383.289c2.15,4.018,6.335,6.533,10.893,6.533h0.006C178.689,389.822,174.51,387.307,172.354,383.289z"/>
		<path d="M294.27,498.755h0.007c7.098,0,13.312-3.831,17.768-10.19C307.583,494.924,301.374,498.755,294.27,498.755z"/>
		<path d="M344.002,389.822c5.969,0,10.929-4.228,12.087-9.836C354.925,385.595,349.964,389.822,344.002,389.822z"/>
		<path d="M354.99,372.174c-0.528-1.081-1.099-2.155-1.897-3.021l-11.457-16.964l-12.334-18.242
			c4.533-1.158,8.647-3.242,12.298-5.963c1.657-1.236,3.194-2.594,4.612-4.083c0.06-0.06,0.107-0.096,0.162-0.15
			c1.362-1.446,2.611-3.008,3.711-4.689c0.06-0.072,0.107-0.15,0.168-0.222c1.11-1.688,2.071-3.465,2.888-5.356
			c0.019-0.036,0.036-0.091,0.055-0.126c0.828-1.928,1.495-3.951,1.97-6.035c0.252-1.087,0.443-2.18,0.612-3.291
			c0.174-1.375,0.324-2.732,0.36-4.155c0-0.149,0.023-0.317,0.023-0.468v-117.1c0,0-0.018-0.142-0.018-0.204
			c-0.006-1.925-0.252-3.792-0.553-5.618c-0.138-0.708-0.234-1.429-0.391-2.117c-1.921-8.431-6.863-15.673-13.601-20.642
			c-1.183-0.88-2.474-1.636-3.747-2.369c-0.553-0.312-1.093-0.627-1.663-0.897c-1.093-0.564-2.24-1.045-3.393-1.474
			c-1.027-0.375-2.048-0.682-3.099-0.973c-0.895-0.24-1.789-0.516-2.708-0.681c-2.096-0.387-4.245-0.658-6.449-0.658h-3.495h-0.006
			c6.647-7.725,11.674-16.873,14.496-26.952c1.705-6.038,2.605-12.394,2.605-18.963c0-2.435-0.12-4.852-0.372-7.23
			c-3.615-35.536-33.729-63.377-70.214-63.377c-36.485,0-66.611,27.835-70.232,63.377c-0.246,2.378-0.36,4.789-0.36,7.23
			c0,4.372,0.396,8.671,1.177,12.826c2.306,12.49,7.956,23.827,15.924,33.089l0,0h-3.5c-2.21,0-4.341,0.276-6.431,0.658
			c-0.721,0.129-1.429,0.324-2.138,0.504c-1.339,0.336-2.636,0.745-3.909,1.21c-0.792,0.303-1.579,0.604-2.36,0.961
			c-1.183,0.552-2.294,1.174-3.393,1.85c-0.679,0.405-1.375,0.756-2.018,1.186c-6.881,4.78-11.919,11.95-14.099,20.275
			c-0.006,0.072-0.036,0.129-0.042,0.189c-0.276,1.045-0.48,2.141-0.685,3.204c-0.288,1.841-0.552,3.678-0.552,5.597v117.105
			c0,1.657,0.192,3.278,0.42,4.876c0.21,1.345,0.48,2.666,0.823,3.975v0.013c0.546,2.09,1.267,4.107,2.149,6.022c0,0,0,0,0.006,0
			c0.865,1.892,1.897,3.669,3.051,5.345c0.048,0.078,0.09,0.149,0.15,0.216c1.129,1.621,2.402,3.134,3.789,4.521
			c0.084,0.103,0.168,0.192,0.252,0.276c1.459,1.453,3.05,2.786,4.75,3.975c3.447,2.391,7.284,4.252,11.458,5.309l-11.458,16.97
			l-13.271,19.672c-2.564,3.782-2.81,8.659-0.679,12.694c2.15,4.017,6.329,6.533,10.899,6.533h6.101h0.168h18.38h0.006v73.294
			c0,10.16,2.69,19.06,7.127,25.448c4.456,6.365,10.677,10.196,17.762,10.196h61.471c7.104,0,13.312-3.831,17.78-10.196
			c4.443-6.389,7.128-15.288,7.128-25.448v-73.294l0,0h20.193h4.462h0.006c0.061-0.013,0.114-0.013,0.168,0
			c5.951,0,10.917-4.228,12.082-9.836c0.15-0.805,0.252-1.64,0.252-2.498C356.342,375.566,355.783,373.813,354.99,372.174z"/>
		<path d="M155.728,308.265V173.442c2.167-8.371,7.211-15.601,14.135-20.404c-5.764-3.996-12.724-6.374-20.248-6.374h-3.5
			c10.623-12.361,17.089-28.379,17.089-45.916c0-38.935-31.663-70.601-70.592-70.601s-70.568,31.667-70.568,70.601
			c0,17.537,6.467,33.555,17.096,45.916h-3.5c-19.654,0-35.627,16-35.627,35.645v117.105c0,16.621,11.427,30.612,26.854,34.539
			L2.113,370.595c-2.552,3.783-2.816,8.659-0.661,12.694c2.149,4.018,6.335,6.533,10.893,6.533H37v73.295
			c0,20.332,10.701,35.644,24.89,35.644h61.465c14.207,0,24.908-15.312,24.908-35.644v-73.295h18.543
			c-4.558,0-8.737-2.51-10.887-6.533c-2.132-4.035-1.885-8.911,0.667-12.694l13.283-19.672l-11.475-16.97
			c4.173-1.057,8.028-2.93,11.475-5.308C162.957,323.829,157.895,316.647,155.728,308.265z"/>
		<path d="M525.646,369.153l-23.761-35.206c15.402-3.933,26.842-17.918,26.842-34.539v-117.1c0-19.645-15.985-35.645-35.627-35.645
			H489.6c10.629-12.361,17.103-28.379,17.103-45.916c0-38.935-31.664-70.601-70.587-70.601c-38.929,0-70.599,31.667-70.599,70.601
			c0,17.537,6.468,33.555,17.102,45.916h-3.507c-7.884,0-15.138,2.681-21.053,7.059c6.737,4.975,11.668,12.211,13.589,20.642
			l-0.023,132.958c-1.934,8.431-6.815,15.696-13.565,20.662c3.657,2.715,7.771,4.805,12.292,5.963l-12.292,18.195l11.476,17.011
			c2.023,2.192,3.254,5.128,3.254,8.323c0,6.821-5.518,12.34-12.333,12.34h20.025v73.294c0,20.339,10.713,35.645,24.896,35.645
			h61.471c14.195,0,24.901-15.306,24.901-35.645v-73.294h24.656c0.078-0.013,0.126-0.013,0.168,0c6.815,0,12.334-5.507,12.334-12.34
			C528.896,374.281,527.664,371.352,525.646,369.153z"/>
	</g>
</g>
</svg>